<mxfile host="Electron" agent="Mozilla/5.0 (Windows NT 10.0; Win64; x64) AppleWebKit/537.36 (KHTML, like Gecko) draw.io/24.7.17 Chrome/128.0.6613.36 Electron/32.0.1 Safari/537.36" version="24.7.17" pages="4">
  <diagram id="s41PsZ60OBa5maBCZKTs" name="ver.3.0.0">
    <mxGraphModel dx="1147" dy="669" grid="1" gridSize="10" guides="1" tooltips="1" connect="1" arrows="1" fold="1" page="1" pageScale="1" pageWidth="827" pageHeight="1169" math="0" shadow="0">
      <root>
        <mxCell id="0" />
        <mxCell id="1" parent="0" />
        <mxCell id="rvd_Lmfn2GWDsAaqOo8y-1" value="上位層&lt;br style=&quot;font-size: 36px;&quot;&gt;レンダリング層やアセット層など" style="rounded=0;whiteSpace=wrap;html=1;fontSize=36;" vertex="1" parent="1">
          <mxGeometry x="1565" y="30" width="990" height="170" as="geometry" />
        </mxCell>
        <mxCell id="rvd_Lmfn2GWDsAaqOo8y-2" value="プラットフォーム層　ネームスペース＜OS＞" style="swimlane;whiteSpace=wrap;html=1;swimlaneFillColor=default;" vertex="1" parent="1">
          <mxGeometry x="160" y="340" width="3800" height="3870" as="geometry" />
        </mxCell>
        <mxCell id="rvd_Lmfn2GWDsAaqOo8y-3" value="&lt;p style=&quot;line-height: 100%;&quot;&gt;OS制御用システムの基底クラス　ネームスペース＜OS::BASE＞&lt;/p&gt;" style="swimlane;whiteSpace=wrap;html=1;swimlaneFillColor=default;" vertex="1" parent="rvd_Lmfn2GWDsAaqOo8y-2">
          <mxGeometry x="2400" y="2570" width="1300" height="1290" as="geometry" />
        </mxCell>
        <mxCell id="rvd_Lmfn2GWDsAaqOo8y-4" value="&lt;p style=&quot;line-height: 100%;&quot;&gt;OS制御システムの基底クラス　C_OS_Management_System_Base&lt;br&gt;&lt;/p&gt;" style="swimlane;whiteSpace=wrap;html=1;swimlaneFillColor=default;" vertex="1" parent="rvd_Lmfn2GWDsAaqOo8y-2">
          <mxGeometry x="2461" y="2640" width="560" height="1210" as="geometry" />
        </mxCell>
        <mxCell id="rvd_Lmfn2GWDsAaqOo8y-5" value="パラメータ" style="swimlane;fontStyle=0;childLayout=stackLayout;horizontal=1;startSize=25;horizontalStack=0;resizeParent=1;resizeParentMax=0;resizeLast=0;collapsible=1;marginBottom=0;whiteSpace=wrap;html=1;" vertex="1" parent="rvd_Lmfn2GWDsAaqOo8y-4">
          <mxGeometry x="10" y="30" width="540" height="265" as="geometry" />
        </mxCell>
        <mxCell id="rvd_Lmfn2GWDsAaqOo8y-6" value="ー　ウィンドウのサイズ" style="text;strokeColor=none;fillColor=none;align=left;verticalAlign=middle;spacingLeft=4;spacingRight=4;overflow=hidden;points=[[0,0.5],[1,0.5]];portConstraint=eastwest;rotatable=0;whiteSpace=wrap;html=1;" vertex="1" parent="rvd_Lmfn2GWDsAaqOo8y-5">
          <mxGeometry y="25" width="540" height="30" as="geometry" />
        </mxCell>
        <mxCell id="rvd_Lmfn2GWDsAaqOo8y-7" value="ー　ウィンドウの位置座標" style="text;strokeColor=none;fillColor=none;align=left;verticalAlign=middle;spacingLeft=4;spacingRight=4;overflow=hidden;points=[[0,0.5],[1,0.5]];portConstraint=eastwest;rotatable=0;whiteSpace=wrap;html=1;" vertex="1" parent="rvd_Lmfn2GWDsAaqOo8y-5">
          <mxGeometry y="55" width="540" height="30" as="geometry" />
        </mxCell>
        <mxCell id="rvd_Lmfn2GWDsAaqOo8y-8" value="ー　マウスの入力情報" style="text;strokeColor=none;fillColor=none;align=left;verticalAlign=middle;spacingLeft=4;spacingRight=4;overflow=hidden;points=[[0,0.5],[1,0.5]];portConstraint=eastwest;rotatable=0;whiteSpace=wrap;html=1;" vertex="1" parent="rvd_Lmfn2GWDsAaqOo8y-5">
          <mxGeometry y="85" width="540" height="30" as="geometry" />
        </mxCell>
        <mxCell id="rvd_Lmfn2GWDsAaqOo8y-9" value="ー　ウィンドウタイトル" style="text;strokeColor=none;fillColor=none;align=left;verticalAlign=middle;spacingLeft=4;spacingRight=4;overflow=hidden;points=[[0,0.5],[1,0.5]];portConstraint=eastwest;rotatable=0;whiteSpace=wrap;html=1;" vertex="1" parent="rvd_Lmfn2GWDsAaqOo8y-5">
          <mxGeometry y="115" width="540" height="30" as="geometry" />
        </mxCell>
        <mxCell id="rvd_Lmfn2GWDsAaqOo8y-10" value="ー　現在の年月日時分秒" style="text;strokeColor=none;fillColor=none;align=left;verticalAlign=middle;spacingLeft=4;spacingRight=4;overflow=hidden;points=[[0,0.5],[1,0.5]];portConstraint=eastwest;rotatable=0;whiteSpace=wrap;html=1;" vertex="1" parent="rvd_Lmfn2GWDsAaqOo8y-5">
          <mxGeometry y="145" width="540" height="30" as="geometry" />
        </mxCell>
        <mxCell id="rvd_Lmfn2GWDsAaqOo8y-11" value="ー　現在のexe起動時からのミリ秒単位での経過時間" style="text;strokeColor=none;fillColor=none;align=left;verticalAlign=middle;spacingLeft=4;spacingRight=4;overflow=hidden;points=[[0,0.5],[1,0.5]];portConstraint=eastwest;rotatable=0;whiteSpace=wrap;html=1;" vertex="1" parent="rvd_Lmfn2GWDsAaqOo8y-5">
          <mxGeometry y="175" width="540" height="30" as="geometry" />
        </mxCell>
        <mxCell id="rvd_Lmfn2GWDsAaqOo8y-12" value="＝　シングルトン化用の自クラスポインタ　＜静的変数＞" style="text;strokeColor=none;fillColor=none;align=left;verticalAlign=middle;spacingLeft=4;spacingRight=4;overflow=hidden;points=[[0,0.5],[1,0.5]];portConstraint=eastwest;rotatable=0;whiteSpace=wrap;html=1;" vertex="1" parent="rvd_Lmfn2GWDsAaqOo8y-5">
          <mxGeometry y="205" width="540" height="30" as="geometry" />
        </mxCell>
        <mxCell id="rvd_Lmfn2GWDsAaqOo8y-13" value="＝　OSがアクティブであるかどうかのフラグ　＜静的変数＞" style="text;strokeColor=none;fillColor=none;align=left;verticalAlign=middle;spacingLeft=4;spacingRight=4;overflow=hidden;points=[[0,0.5],[1,0.5]];portConstraint=eastwest;rotatable=0;whiteSpace=wrap;html=1;" vertex="1" parent="rvd_Lmfn2GWDsAaqOo8y-5">
          <mxGeometry y="235" width="540" height="30" as="geometry" />
        </mxCell>
        <mxCell id="rvd_Lmfn2GWDsAaqOo8y-14" value="メゾッド" style="swimlane;fontStyle=0;childLayout=stackLayout;horizontal=1;startSize=25;horizontalStack=0;resizeParent=1;resizeParentMax=0;resizeLast=0;collapsible=1;marginBottom=0;whiteSpace=wrap;html=1;" vertex="1" parent="rvd_Lmfn2GWDsAaqOo8y-4">
          <mxGeometry x="10" y="310" width="540" height="895" as="geometry" />
        </mxCell>
        <mxCell id="rvd_Lmfn2GWDsAaqOo8y-15" value="＝　ウィンドウタイトルのセッタ" style="text;strokeColor=none;fillColor=none;align=left;verticalAlign=middle;spacingLeft=4;spacingRight=4;overflow=hidden;points=[[0,0.5],[1,0.5]];portConstraint=eastwest;rotatable=0;whiteSpace=wrap;html=1;" vertex="1" parent="rvd_Lmfn2GWDsAaqOo8y-14">
          <mxGeometry y="25" width="540" height="30" as="geometry" />
        </mxCell>
        <mxCell id="rvd_Lmfn2GWDsAaqOo8y-16" value="＝　現在の年月日時分秒のセッタ" style="text;strokeColor=none;fillColor=none;align=left;verticalAlign=middle;spacingLeft=4;spacingRight=4;overflow=hidden;points=[[0,0.5],[1,0.5]];portConstraint=eastwest;rotatable=0;whiteSpace=wrap;html=1;" vertex="1" parent="rvd_Lmfn2GWDsAaqOo8y-14">
          <mxGeometry y="55" width="540" height="30" as="geometry" />
        </mxCell>
        <mxCell id="rvd_Lmfn2GWDsAaqOo8y-17" value="＝　現在のexe起動時からのミリ秒単位での経過時間のセッタ" style="text;strokeColor=none;fillColor=none;align=left;verticalAlign=middle;spacingLeft=4;spacingRight=4;overflow=hidden;points=[[0,0.5],[1,0.5]];portConstraint=eastwest;rotatable=0;whiteSpace=wrap;html=1;" vertex="1" parent="rvd_Lmfn2GWDsAaqOo8y-14">
          <mxGeometry y="85" width="540" height="30" as="geometry" />
        </mxCell>
        <mxCell id="rvd_Lmfn2GWDsAaqOo8y-18" value="＋　コンストラクタ" style="text;strokeColor=none;fillColor=none;align=left;verticalAlign=middle;spacingLeft=4;spacingRight=4;overflow=hidden;points=[[0,0.5],[1,0.5]];portConstraint=eastwest;rotatable=0;whiteSpace=wrap;html=1;" vertex="1" parent="rvd_Lmfn2GWDsAaqOo8y-14">
          <mxGeometry y="115" width="540" height="30" as="geometry" />
        </mxCell>
        <mxCell id="rvd_Lmfn2GWDsAaqOo8y-19" value="＋　OSの初期化　＜純粋仮想関数＞" style="text;strokeColor=none;fillColor=none;align=left;verticalAlign=middle;spacingLeft=4;spacingRight=4;overflow=hidden;points=[[0,0.5],[1,0.5]];portConstraint=eastwest;rotatable=0;whiteSpace=wrap;html=1;" vertex="1" parent="rvd_Lmfn2GWDsAaqOo8y-14">
          <mxGeometry y="145" width="540" height="30" as="geometry" />
        </mxCell>
        <mxCell id="rvd_Lmfn2GWDsAaqOo8y-20" value="＋　メモリの解放処理　＜純粋仮想関数＞" style="text;strokeColor=none;fillColor=none;align=left;verticalAlign=middle;spacingLeft=4;spacingRight=4;overflow=hidden;points=[[0,0.5],[1,0.5]];portConstraint=eastwest;rotatable=0;whiteSpace=wrap;html=1;" vertex="1" parent="rvd_Lmfn2GWDsAaqOo8y-14">
          <mxGeometry y="175" width="540" height="30" as="geometry" />
        </mxCell>
        <mxCell id="rvd_Lmfn2GWDsAaqOo8y-21" value="＋　OSシステムの削除　＜静的関数＞" style="text;strokeColor=none;fillColor=none;align=left;verticalAlign=middle;spacingLeft=4;spacingRight=4;overflow=hidden;points=[[0,0.5],[1,0.5]];portConstraint=eastwest;rotatable=0;whiteSpace=wrap;html=1;" vertex="1" parent="rvd_Lmfn2GWDsAaqOo8y-14">
          <mxGeometry y="205" width="540" height="30" as="geometry" />
        </mxCell>
        <mxCell id="rvd_Lmfn2GWDsAaqOo8y-22" value="＋　デストラクタ　＜仮想関数＞" style="text;strokeColor=none;fillColor=none;align=left;verticalAlign=middle;spacingLeft=4;spacingRight=4;overflow=hidden;points=[[0,0.5],[1,0.5]];portConstraint=eastwest;rotatable=0;whiteSpace=wrap;html=1;" vertex="1" parent="rvd_Lmfn2GWDsAaqOo8y-14">
          <mxGeometry y="235" width="540" height="30" as="geometry" />
        </mxCell>
        <mxCell id="rvd_Lmfn2GWDsAaqOo8y-23" value="＋　OSの更新処理　＜純粋仮想関数＞" style="text;strokeColor=none;fillColor=none;align=left;verticalAlign=middle;spacingLeft=4;spacingRight=4;overflow=hidden;points=[[0,0.5],[1,0.5]];portConstraint=eastwest;rotatable=0;whiteSpace=wrap;html=1;" vertex="1" parent="rvd_Lmfn2GWDsAaqOo8y-14">
          <mxGeometry y="265" width="540" height="30" as="geometry" />
        </mxCell>
        <mxCell id="rvd_Lmfn2GWDsAaqOo8y-24" value="＋　ウィンドウサイズの更新処理　＜純粋仮想関数＞" style="text;strokeColor=none;fillColor=none;align=left;verticalAlign=middle;spacingLeft=4;spacingRight=4;overflow=hidden;points=[[0,0.5],[1,0.5]];portConstraint=eastwest;rotatable=0;whiteSpace=wrap;html=1;" vertex="1" parent="rvd_Lmfn2GWDsAaqOo8y-14">
          <mxGeometry y="295" width="540" height="30" as="geometry" />
        </mxCell>
        <mxCell id="rvd_Lmfn2GWDsAaqOo8y-25" value="&lt;span style=&quot;background-color: initial;&quot;&gt;＋　時間の更新　＜純粋仮想関数＞&lt;/span&gt;" style="text;strokeColor=none;fillColor=none;align=left;verticalAlign=middle;spacingLeft=4;spacingRight=4;overflow=hidden;points=[[0,0.5],[1,0.5]];portConstraint=eastwest;rotatable=0;whiteSpace=wrap;html=1;" vertex="1" parent="rvd_Lmfn2GWDsAaqOo8y-14">
          <mxGeometry y="325" width="540" height="30" as="geometry" />
        </mxCell>
        <mxCell id="rvd_Lmfn2GWDsAaqOo8y-26" value="＋　マウス座標のセッタ" style="text;strokeColor=none;fillColor=none;align=left;verticalAlign=middle;spacingLeft=4;spacingRight=4;overflow=hidden;points=[[0,0.5],[1,0.5]];portConstraint=eastwest;rotatable=0;whiteSpace=wrap;html=1;" vertex="1" parent="rvd_Lmfn2GWDsAaqOo8y-14">
          <mxGeometry y="355" width="540" height="30" as="geometry" />
        </mxCell>
        <mxCell id="rvd_Lmfn2GWDsAaqOo8y-27" value="＋　ウィンドウサイズのセッタ" style="text;strokeColor=none;fillColor=none;align=left;verticalAlign=middle;spacingLeft=4;spacingRight=4;overflow=hidden;points=[[0,0.5],[1,0.5]];portConstraint=eastwest;rotatable=0;whiteSpace=wrap;html=1;" vertex="1" parent="rvd_Lmfn2GWDsAaqOo8y-14">
          <mxGeometry y="385" width="540" height="30" as="geometry" />
        </mxCell>
        <mxCell id="rvd_Lmfn2GWDsAaqOo8y-28" value="＋　ウィンドウ座標のセッタ" style="text;strokeColor=none;fillColor=none;align=left;verticalAlign=middle;spacingLeft=4;spacingRight=4;overflow=hidden;points=[[0,0.5],[1,0.5]];portConstraint=eastwest;rotatable=0;whiteSpace=wrap;html=1;" vertex="1" parent="rvd_Lmfn2GWDsAaqOo8y-14">
          <mxGeometry y="415" width="540" height="30" as="geometry" />
        </mxCell>
        <mxCell id="rvd_Lmfn2GWDsAaqOo8y-29" value="＋　マウス左クリックフラグのセッタ" style="text;strokeColor=none;fillColor=none;align=left;verticalAlign=middle;spacingLeft=4;spacingRight=4;overflow=hidden;points=[[0,0.5],[1,0.5]];portConstraint=eastwest;rotatable=0;whiteSpace=wrap;html=1;" vertex="1" parent="rvd_Lmfn2GWDsAaqOo8y-14">
          <mxGeometry y="445" width="540" height="30" as="geometry" />
        </mxCell>
        <mxCell id="rvd_Lmfn2GWDsAaqOo8y-30" value="＋　マウス右クリックフラグのセッタ" style="text;strokeColor=none;fillColor=none;align=left;verticalAlign=middle;spacingLeft=4;spacingRight=4;overflow=hidden;points=[[0,0.5],[1,0.5]];portConstraint=eastwest;rotatable=0;whiteSpace=wrap;html=1;" vertex="1" parent="rvd_Lmfn2GWDsAaqOo8y-14">
          <mxGeometry y="475" width="540" height="30" as="geometry" />
        </mxCell>
        <mxCell id="rvd_Lmfn2GWDsAaqOo8y-31" value="＋　マウス中クリックフラグのセッタ" style="text;strokeColor=none;fillColor=none;align=left;verticalAlign=middle;spacingLeft=4;spacingRight=4;overflow=hidden;points=[[0,0.5],[1,0.5]];portConstraint=eastwest;rotatable=0;whiteSpace=wrap;html=1;" vertex="1" parent="rvd_Lmfn2GWDsAaqOo8y-14">
          <mxGeometry y="505" width="540" height="30" as="geometry" />
        </mxCell>
        <mxCell id="rvd_Lmfn2GWDsAaqOo8y-32" value="＋　自クラスのシングルトンインスタンスのアドレスのゲッタ　＜静的関数＞" style="text;strokeColor=none;fillColor=none;align=left;verticalAlign=middle;spacingLeft=4;spacingRight=4;overflow=hidden;points=[[0,0.5],[1,0.5]];portConstraint=eastwest;rotatable=0;whiteSpace=wrap;html=1;" vertex="1" parent="rvd_Lmfn2GWDsAaqOo8y-14">
          <mxGeometry y="535" width="540" height="30" as="geometry" />
        </mxCell>
        <mxCell id="rvd_Lmfn2GWDsAaqOo8y-33" value="＋　OSがアクティブであるかどうかのフラグのゲッタ　＜静的関数＞" style="text;strokeColor=none;fillColor=none;align=left;verticalAlign=middle;spacingLeft=4;spacingRight=4;overflow=hidden;points=[[0,0.5],[1,0.5]];portConstraint=eastwest;rotatable=0;whiteSpace=wrap;html=1;" vertex="1" parent="rvd_Lmfn2GWDsAaqOo8y-14">
          <mxGeometry y="565" width="540" height="30" as="geometry" />
        </mxCell>
        <mxCell id="rvd_Lmfn2GWDsAaqOo8y-34" value="＋　ウィンドウのサイズのゲッタ　＜const関数＞" style="text;strokeColor=none;fillColor=none;align=left;verticalAlign=middle;spacingLeft=4;spacingRight=4;overflow=hidden;points=[[0,0.5],[1,0.5]];portConstraint=eastwest;rotatable=0;whiteSpace=wrap;html=1;" vertex="1" parent="rvd_Lmfn2GWDsAaqOo8y-14">
          <mxGeometry y="595" width="540" height="30" as="geometry" />
        </mxCell>
        <mxCell id="rvd_Lmfn2GWDsAaqOo8y-35" value="＋　ウィンドウのアスペクト比のゲッタ　＜const関数＞" style="text;strokeColor=none;fillColor=none;align=left;verticalAlign=middle;spacingLeft=4;spacingRight=4;overflow=hidden;points=[[0,0.5],[1,0.5]];portConstraint=eastwest;rotatable=0;whiteSpace=wrap;html=1;" vertex="1" parent="rvd_Lmfn2GWDsAaqOo8y-14">
          <mxGeometry y="625" width="540" height="30" as="geometry" />
        </mxCell>
        <mxCell id="rvd_Lmfn2GWDsAaqOo8y-36" value="＋　ウィンドウの座標のゲッタ　＜const関数＞" style="text;strokeColor=none;fillColor=none;align=left;verticalAlign=middle;spacingLeft=4;spacingRight=4;overflow=hidden;points=[[0,0.5],[1,0.5]];portConstraint=eastwest;rotatable=0;whiteSpace=wrap;html=1;" vertex="1" parent="rvd_Lmfn2GWDsAaqOo8y-14">
          <mxGeometry y="655" width="540" height="30" as="geometry" />
        </mxCell>
        <mxCell id="rvd_Lmfn2GWDsAaqOo8y-37" value="＋　マウス情報のゲッタ　＜const関数＞" style="text;strokeColor=none;fillColor=none;align=left;verticalAlign=middle;spacingLeft=4;spacingRight=4;overflow=hidden;points=[[0,0.5],[1,0.5]];portConstraint=eastwest;rotatable=0;whiteSpace=wrap;html=1;" vertex="1" parent="rvd_Lmfn2GWDsAaqOo8y-14">
          <mxGeometry y="685" width="540" height="30" as="geometry" />
        </mxCell>
        <mxCell id="rvd_Lmfn2GWDsAaqOo8y-38" value="＋　ウィンドウタイトルのゲッタ　＜const関数＞" style="text;strokeColor=none;fillColor=none;align=left;verticalAlign=middle;spacingLeft=4;spacingRight=4;overflow=hidden;points=[[0,0.5],[1,0.5]];portConstraint=eastwest;rotatable=0;whiteSpace=wrap;html=1;" vertex="1" parent="rvd_Lmfn2GWDsAaqOo8y-14">
          <mxGeometry y="715" width="540" height="30" as="geometry" />
        </mxCell>
        <mxCell id="rvd_Lmfn2GWDsAaqOo8y-39" value="＋　現在の年月日時分秒のゲッタ　＜const関数＞" style="text;strokeColor=none;fillColor=none;align=left;verticalAlign=middle;spacingLeft=4;spacingRight=4;overflow=hidden;points=[[0,0.5],[1,0.5]];portConstraint=eastwest;rotatable=0;whiteSpace=wrap;html=1;" vertex="1" parent="rvd_Lmfn2GWDsAaqOo8y-14">
          <mxGeometry y="745" width="540" height="30" as="geometry" />
        </mxCell>
        <mxCell id="rvd_Lmfn2GWDsAaqOo8y-40" value="＋　現在のexe起動からのミリ秒単位での経過時間のゲッタ　＜const関数＞" style="text;strokeColor=none;fillColor=none;align=left;verticalAlign=middle;spacingLeft=4;spacingRight=4;overflow=hidden;points=[[0,0.5],[1,0.5]];portConstraint=eastwest;rotatable=0;whiteSpace=wrap;html=1;" vertex="1" parent="rvd_Lmfn2GWDsAaqOo8y-14">
          <mxGeometry y="775" width="540" height="30" as="geometry" />
        </mxCell>
        <mxCell id="rvd_Lmfn2GWDsAaqOo8y-41" value="＋　ウィンドウのハンドル番号や、識別番号のゲッタ　＜const関数＞　＜純粋仮想関数＞" style="text;strokeColor=none;fillColor=none;align=left;verticalAlign=middle;spacingLeft=4;spacingRight=4;overflow=hidden;points=[[0,0.5],[1,0.5]];portConstraint=eastwest;rotatable=0;whiteSpace=wrap;html=1;" vertex="1" parent="rvd_Lmfn2GWDsAaqOo8y-14">
          <mxGeometry y="805" width="540" height="30" as="geometry" />
        </mxCell>
        <mxCell id="rvd_Lmfn2GWDsAaqOo8y-42" value="＋　ウィンドウタイトルの変更　＜純粋仮想関数＞" style="text;strokeColor=none;fillColor=none;align=left;verticalAlign=middle;spacingLeft=4;spacingRight=4;overflow=hidden;points=[[0,0.5],[1,0.5]];portConstraint=eastwest;rotatable=0;whiteSpace=wrap;html=1;" vertex="1" parent="rvd_Lmfn2GWDsAaqOo8y-14">
          <mxGeometry y="835" width="540" height="30" as="geometry" />
        </mxCell>
        <mxCell id="rvd_Lmfn2GWDsAaqOo8y-43" value="＋　メッセージボックスの表示　＜純粋仮想関数＞" style="text;strokeColor=none;fillColor=none;align=left;verticalAlign=middle;spacingLeft=4;spacingRight=4;overflow=hidden;points=[[0,0.5],[1,0.5]];portConstraint=eastwest;rotatable=0;whiteSpace=wrap;html=1;" vertex="1" parent="rvd_Lmfn2GWDsAaqOo8y-14">
          <mxGeometry y="865" width="540" height="30" as="geometry" />
        </mxCell>
        <mxCell id="rvd_Lmfn2GWDsAaqOo8y-44" value="現在の設計評価　：正常" style="swimlane;whiteSpace=wrap;html=1;swimlaneFillColor=default;fontSize=17;" vertex="1" parent="rvd_Lmfn2GWDsAaqOo8y-2">
          <mxGeometry x="3120" y="3215" width="460" height="40" as="geometry" />
        </mxCell>
        <mxCell id="rvd_Lmfn2GWDsAaqOo8y-45" value="" style="rounded=0;whiteSpace=wrap;html=1;align=left;verticalAlign=top;" vertex="1" parent="rvd_Lmfn2GWDsAaqOo8y-44">
          <mxGeometry x="10" y="30" width="440" height="10" as="geometry" />
        </mxCell>
        <mxCell id="rvd_Lmfn2GWDsAaqOo8y-46" value="" style="shape=link;html=1;rounded=0;entryX=0;entryY=0.5;entryDx=0;entryDy=0;exitX=1;exitY=0.5;exitDx=0;exitDy=0;" edge="1" parent="rvd_Lmfn2GWDsAaqOo8y-2" source="rvd_Lmfn2GWDsAaqOo8y-4" target="rvd_Lmfn2GWDsAaqOo8y-44">
          <mxGeometry width="100" relative="1" as="geometry">
            <mxPoint x="3045" y="1820" as="sourcePoint" />
            <mxPoint x="3145" y="1820" as="targetPoint" />
          </mxGeometry>
        </mxCell>
        <mxCell id="rvd_Lmfn2GWDsAaqOo8y-47" value="ウィンドウズOS層　ネームスペース＜OS::WINDOWS＞" style="swimlane;whiteSpace=wrap;html=1;" vertex="1" parent="rvd_Lmfn2GWDsAaqOo8y-2">
          <mxGeometry x="60" y="860" width="2460" height="1490" as="geometry" />
        </mxCell>
        <mxCell id="rvd_Lmfn2GWDsAaqOo8y-48" value="&lt;p style=&quot;line-height: 100%;&quot;&gt;ウィンドウズOS制御用システム　C_Windows_OS_Management_System　基底クラス&amp;lt;C_OS_System_Base&amp;gt;&lt;/p&gt;" style="swimlane;whiteSpace=wrap;html=1;swimlaneFillColor=default;" vertex="1" parent="rvd_Lmfn2GWDsAaqOo8y-47">
          <mxGeometry x="70" y="55" width="650" height="625" as="geometry" />
        </mxCell>
        <mxCell id="rvd_Lmfn2GWDsAaqOo8y-49" value="パラメータ" style="swimlane;fontStyle=0;childLayout=stackLayout;horizontal=1;startSize=25;horizontalStack=0;resizeParent=1;resizeParentMax=0;resizeLast=0;collapsible=1;marginBottom=0;whiteSpace=wrap;html=1;" vertex="1" parent="rvd_Lmfn2GWDsAaqOo8y-48">
          <mxGeometry x="10" y="30" width="600" height="115" as="geometry" />
        </mxCell>
        <mxCell id="rvd_Lmfn2GWDsAaqOo8y-50" value="ー　自ウィンドウのハンドル" style="text;strokeColor=none;fillColor=none;align=left;verticalAlign=middle;spacingLeft=4;spacingRight=4;overflow=hidden;points=[[0,0.5],[1,0.5]];portConstraint=eastwest;rotatable=0;whiteSpace=wrap;html=1;" vertex="1" parent="rvd_Lmfn2GWDsAaqOo8y-49">
          <mxGeometry y="25" width="600" height="30" as="geometry" />
        </mxCell>
        <mxCell id="rvd_Lmfn2GWDsAaqOo8y-51" value="ー　ウィンドウの処理を取得するためのメッセージパラメータ" style="text;strokeColor=none;fillColor=none;align=left;verticalAlign=middle;spacingLeft=4;spacingRight=4;overflow=hidden;points=[[0,0.5],[1,0.5]];portConstraint=eastwest;rotatable=0;whiteSpace=wrap;html=1;" vertex="1" parent="rvd_Lmfn2GWDsAaqOo8y-49">
          <mxGeometry y="55" width="600" height="30" as="geometry" />
        </mxCell>
        <mxCell id="rvd_Lmfn2GWDsAaqOo8y-52" value="ー　ウィンドウ操作用のコマンド番号" style="text;strokeColor=none;fillColor=none;align=left;verticalAlign=middle;spacingLeft=4;spacingRight=4;overflow=hidden;points=[[0,0.5],[1,0.5]];portConstraint=eastwest;rotatable=0;whiteSpace=wrap;html=1;" vertex="1" parent="rvd_Lmfn2GWDsAaqOo8y-49">
          <mxGeometry y="85" width="600" height="30" as="geometry" />
        </mxCell>
        <mxCell id="rvd_Lmfn2GWDsAaqOo8y-53" value="メゾッド" style="swimlane;fontStyle=0;childLayout=stackLayout;horizontal=1;startSize=25;horizontalStack=0;resizeParent=1;resizeParentMax=0;resizeLast=0;collapsible=1;marginBottom=0;whiteSpace=wrap;html=1;" vertex="1" parent="rvd_Lmfn2GWDsAaqOo8y-48">
          <mxGeometry x="10" y="155" width="600" height="445" as="geometry" />
        </mxCell>
        <mxCell id="rvd_Lmfn2GWDsAaqOo8y-54" value="ー　コンストラクタ" style="text;strokeColor=none;fillColor=none;align=left;verticalAlign=middle;spacingLeft=4;spacingRight=4;overflow=hidden;points=[[0,0.5],[1,0.5]];portConstraint=eastwest;rotatable=0;whiteSpace=wrap;html=1;" vertex="1" parent="rvd_Lmfn2GWDsAaqOo8y-53">
          <mxGeometry y="25" width="600" height="30" as="geometry" />
        </mxCell>
        <mxCell id="rvd_Lmfn2GWDsAaqOo8y-55" value="ー　ウィンドウ生成処理" style="text;strokeColor=none;fillColor=none;align=left;verticalAlign=middle;spacingLeft=4;spacingRight=4;overflow=hidden;points=[[0,0.5],[1,0.5]];portConstraint=eastwest;rotatable=0;whiteSpace=wrap;html=1;" vertex="1" parent="rvd_Lmfn2GWDsAaqOo8y-53">
          <mxGeometry y="55" width="600" height="30" as="geometry" />
        </mxCell>
        <mxCell id="rvd_Lmfn2GWDsAaqOo8y-56" value="ー　マウス入力の更新処理" style="text;strokeColor=none;fillColor=none;align=left;verticalAlign=middle;spacingLeft=4;spacingRight=4;overflow=hidden;points=[[0,0.5],[1,0.5]];portConstraint=eastwest;rotatable=0;whiteSpace=wrap;html=1;" vertex="1" parent="rvd_Lmfn2GWDsAaqOo8y-53">
          <mxGeometry y="85" width="600" height="30" as="geometry" />
        </mxCell>
        <mxCell id="rvd_Lmfn2GWDsAaqOo8y-57" value="＋　ウィンドウズ制御用システム生成処理（シングルトンインスタンス生成）　＜静的関数＞" style="text;strokeColor=none;fillColor=none;align=left;verticalAlign=middle;spacingLeft=4;spacingRight=4;overflow=hidden;points=[[0,0.5],[1,0.5]];portConstraint=eastwest;rotatable=0;whiteSpace=wrap;html=1;" vertex="1" parent="rvd_Lmfn2GWDsAaqOo8y-53">
          <mxGeometry y="115" width="600" height="30" as="geometry" />
        </mxCell>
        <mxCell id="rvd_Lmfn2GWDsAaqOo8y-58" value="＋　ウィンドウズ機能の初期化処理　＜継承関数＞" style="text;strokeColor=none;fillColor=none;align=left;verticalAlign=middle;spacingLeft=4;spacingRight=4;overflow=hidden;points=[[0,0.5],[1,0.5]];portConstraint=eastwest;rotatable=0;whiteSpace=wrap;html=1;" vertex="1" parent="rvd_Lmfn2GWDsAaqOo8y-53">
          <mxGeometry y="145" width="600" height="30" as="geometry" />
        </mxCell>
        <mxCell id="rvd_Lmfn2GWDsAaqOo8y-59" value="＋　デストラクタ　＜継承関数＞" style="text;strokeColor=none;fillColor=none;align=left;verticalAlign=middle;spacingLeft=4;spacingRight=4;overflow=hidden;points=[[0,0.5],[1,0.5]];portConstraint=eastwest;rotatable=0;whiteSpace=wrap;html=1;" vertex="1" parent="rvd_Lmfn2GWDsAaqOo8y-53">
          <mxGeometry y="175" width="600" height="30" as="geometry" />
        </mxCell>
        <mxCell id="rvd_Lmfn2GWDsAaqOo8y-60" value="＋　メモリの解放処理　＜継承関数＞" style="text;strokeColor=none;fillColor=none;align=left;verticalAlign=middle;spacingLeft=4;spacingRight=4;overflow=hidden;points=[[0,0.5],[1,0.5]];portConstraint=eastwest;rotatable=0;whiteSpace=wrap;html=1;" vertex="1" parent="rvd_Lmfn2GWDsAaqOo8y-53">
          <mxGeometry y="205" width="600" height="30" as="geometry" />
        </mxCell>
        <mxCell id="rvd_Lmfn2GWDsAaqOo8y-61" value="＋　ウィンドウの更新処理　＜継承関数＞" style="text;strokeColor=none;fillColor=none;align=left;verticalAlign=middle;spacingLeft=4;spacingRight=4;overflow=hidden;points=[[0,0.5],[1,0.5]];portConstraint=eastwest;rotatable=0;whiteSpace=wrap;html=1;" vertex="1" parent="rvd_Lmfn2GWDsAaqOo8y-53">
          <mxGeometry y="235" width="600" height="30" as="geometry" />
        </mxCell>
        <mxCell id="rvd_Lmfn2GWDsAaqOo8y-62" value="＋　ウィンドウのサイズの更新処理　＜継承関数＞" style="text;strokeColor=none;fillColor=none;align=left;verticalAlign=middle;spacingLeft=4;spacingRight=4;overflow=hidden;points=[[0,0.5],[1,0.5]];portConstraint=eastwest;rotatable=0;whiteSpace=wrap;html=1;" vertex="1" parent="rvd_Lmfn2GWDsAaqOo8y-53">
          <mxGeometry y="265" width="600" height="30" as="geometry" />
        </mxCell>
        <mxCell id="rvd_Lmfn2GWDsAaqOo8y-63" value="&lt;span style=&quot;background-color: initial;&quot;&gt;＋　時間の更新　＜継承関数＞&lt;/span&gt;" style="text;strokeColor=none;fillColor=none;align=left;verticalAlign=middle;spacingLeft=4;spacingRight=4;overflow=hidden;points=[[0,0.5],[1,0.5]];portConstraint=eastwest;rotatable=0;whiteSpace=wrap;html=1;" vertex="1" parent="rvd_Lmfn2GWDsAaqOo8y-53">
          <mxGeometry y="295" width="600" height="30" as="geometry" />
        </mxCell>
        <mxCell id="rvd_Lmfn2GWDsAaqOo8y-64" value="＋　ウィンドウ操作用のコマンド番号のセッタ　＜静的関数＞" style="text;strokeColor=none;fillColor=none;align=left;verticalAlign=middle;spacingLeft=4;spacingRight=4;overflow=hidden;points=[[0,0.5],[1,0.5]];portConstraint=eastwest;rotatable=0;whiteSpace=wrap;html=1;" vertex="1" parent="rvd_Lmfn2GWDsAaqOo8y-53">
          <mxGeometry y="325" width="600" height="30" as="geometry" />
        </mxCell>
        <mxCell id="rvd_Lmfn2GWDsAaqOo8y-65" value="＋　ウィンドウのハンドル番号や、識別番号のゲッタ　＜const関数＞　＜継承関数＞" style="text;strokeColor=none;fillColor=none;align=left;verticalAlign=middle;spacingLeft=4;spacingRight=4;overflow=hidden;points=[[0,0.5],[1,0.5]];portConstraint=eastwest;rotatable=0;whiteSpace=wrap;html=1;" vertex="1" parent="rvd_Lmfn2GWDsAaqOo8y-53">
          <mxGeometry y="355" width="600" height="30" as="geometry" />
        </mxCell>
        <mxCell id="rvd_Lmfn2GWDsAaqOo8y-66" value="＋　ウィンドウタイトルの変更　＜継承関数＞" style="text;strokeColor=none;fillColor=none;align=left;verticalAlign=middle;spacingLeft=4;spacingRight=4;overflow=hidden;points=[[0,0.5],[1,0.5]];portConstraint=eastwest;rotatable=0;whiteSpace=wrap;html=1;" vertex="1" parent="rvd_Lmfn2GWDsAaqOo8y-53">
          <mxGeometry y="385" width="600" height="30" as="geometry" />
        </mxCell>
        <mxCell id="rvd_Lmfn2GWDsAaqOo8y-67" value="＋　メッセージボックスの表示　＜継承関数＞" style="text;strokeColor=none;fillColor=none;align=left;verticalAlign=middle;spacingLeft=4;spacingRight=4;overflow=hidden;points=[[0,0.5],[1,0.5]];portConstraint=eastwest;rotatable=0;whiteSpace=wrap;html=1;" vertex="1" parent="rvd_Lmfn2GWDsAaqOo8y-53">
          <mxGeometry y="415" width="600" height="30" as="geometry" />
        </mxCell>
        <mxCell id="rvd_Lmfn2GWDsAaqOo8y-68" value="&lt;p style=&quot;line-height: 100%;&quot;&gt;ウィンドウプロシージャ関数制御システム　C_Wnd_Proc_Manager&lt;/p&gt;" style="swimlane;whiteSpace=wrap;html=1;swimlaneFillColor=default;" vertex="1" parent="rvd_Lmfn2GWDsAaqOo8y-47">
          <mxGeometry x="490" y="1150" width="620" height="220" as="geometry" />
        </mxCell>
        <mxCell id="rvd_Lmfn2GWDsAaqOo8y-69" value="パラメータ" style="swimlane;fontStyle=0;childLayout=stackLayout;horizontal=1;startSize=25;horizontalStack=0;resizeParent=1;resizeParentMax=0;resizeLast=0;collapsible=1;marginBottom=0;whiteSpace=wrap;html=1;" vertex="1" parent="rvd_Lmfn2GWDsAaqOo8y-68">
          <mxGeometry x="10" y="30" width="600" height="55" as="geometry" />
        </mxCell>
        <mxCell id="rvd_Lmfn2GWDsAaqOo8y-70" value="ー　ゲーム用のウィンドウプロシージャのアドレス" style="text;strokeColor=none;fillColor=none;align=left;verticalAlign=middle;spacingLeft=4;spacingRight=4;overflow=hidden;points=[[0,0.5],[1,0.5]];portConstraint=eastwest;rotatable=0;whiteSpace=wrap;html=1;" vertex="1" parent="rvd_Lmfn2GWDsAaqOo8y-69">
          <mxGeometry y="25" width="600" height="30" as="geometry" />
        </mxCell>
        <mxCell id="rvd_Lmfn2GWDsAaqOo8y-71" value="メゾッド" style="swimlane;fontStyle=0;childLayout=stackLayout;horizontal=1;startSize=25;horizontalStack=0;resizeParent=1;resizeParentMax=0;resizeLast=0;collapsible=1;marginBottom=0;whiteSpace=wrap;html=1;" vertex="1" parent="rvd_Lmfn2GWDsAaqOo8y-68">
          <mxGeometry x="10" y="110" width="600" height="85" as="geometry" />
        </mxCell>
        <mxCell id="rvd_Lmfn2GWDsAaqOo8y-72" value="＋　ゲーム用のウィンドウプロシージャのセッタ" style="text;strokeColor=none;fillColor=none;align=left;verticalAlign=middle;spacingLeft=4;spacingRight=4;overflow=hidden;points=[[0,0.5],[1,0.5]];portConstraint=eastwest;rotatable=0;whiteSpace=wrap;html=1;" vertex="1" parent="rvd_Lmfn2GWDsAaqOo8y-71">
          <mxGeometry y="25" width="600" height="30" as="geometry" />
        </mxCell>
        <mxCell id="rvd_Lmfn2GWDsAaqOo8y-73" value="＋　ゲーム用のウィンドウプロシージャのゲッタ" style="text;strokeColor=none;fillColor=none;align=left;verticalAlign=middle;spacingLeft=4;spacingRight=4;overflow=hidden;points=[[0,0.5],[1,0.5]];portConstraint=eastwest;rotatable=0;whiteSpace=wrap;html=1;" vertex="1" parent="rvd_Lmfn2GWDsAaqOo8y-71">
          <mxGeometry y="55" width="600" height="30" as="geometry" />
        </mxCell>
        <mxCell id="rvd_Lmfn2GWDsAaqOo8y-74" value="" style="endArrow=classic;html=1;rounded=0;exitX=0.5;exitY=1;exitDx=0;exitDy=0;entryX=0.25;entryY=0;entryDx=0;entryDy=0;strokeWidth=8;" edge="1" parent="rvd_Lmfn2GWDsAaqOo8y-47" source="rvd_Lmfn2GWDsAaqOo8y-48" target="rvd_Lmfn2GWDsAaqOo8y-68">
          <mxGeometry width="50" height="50" relative="1" as="geometry">
            <mxPoint x="550" y="930" as="sourcePoint" />
            <mxPoint x="600" y="880" as="targetPoint" />
            <Array as="points">
              <mxPoint x="390" y="930" />
              <mxPoint x="645" y="930" />
            </Array>
          </mxGeometry>
        </mxCell>
        <mxCell id="rvd_Lmfn2GWDsAaqOo8y-75" value="&lt;p style=&quot;line-height: 100%;&quot;&gt;ゲーム用ウィンドウプロシージャ管理クラス　C_Wnd_Proc_For_Game_APK&lt;/p&gt;" style="swimlane;whiteSpace=wrap;html=1;swimlaneFillColor=default;" vertex="1" parent="rvd_Lmfn2GWDsAaqOo8y-47">
          <mxGeometry x="1290" y="240" width="620" height="220" as="geometry" />
        </mxCell>
        <mxCell id="rvd_Lmfn2GWDsAaqOo8y-76" value="パラメータ" style="swimlane;fontStyle=0;childLayout=stackLayout;horizontal=1;startSize=25;horizontalStack=0;resizeParent=1;resizeParentMax=0;resizeLast=0;collapsible=1;marginBottom=0;whiteSpace=wrap;html=1;" vertex="1" parent="rvd_Lmfn2GWDsAaqOo8y-75">
          <mxGeometry x="10" y="30" width="600" height="55" as="geometry" />
        </mxCell>
        <mxCell id="rvd_Lmfn2GWDsAaqOo8y-77" value="ー　シングルトン化用の自クラスのインスタンス" style="text;strokeColor=none;fillColor=none;align=left;verticalAlign=middle;spacingLeft=4;spacingRight=4;overflow=hidden;points=[[0,0.5],[1,0.5]];portConstraint=eastwest;rotatable=0;whiteSpace=wrap;html=1;" vertex="1" parent="rvd_Lmfn2GWDsAaqOo8y-76">
          <mxGeometry y="25" width="600" height="30" as="geometry" />
        </mxCell>
        <mxCell id="rvd_Lmfn2GWDsAaqOo8y-78" value="メゾッド" style="swimlane;fontStyle=0;childLayout=stackLayout;horizontal=1;startSize=25;horizontalStack=0;resizeParent=1;resizeParentMax=0;resizeLast=0;collapsible=1;marginBottom=0;whiteSpace=wrap;html=1;" vertex="1" parent="rvd_Lmfn2GWDsAaqOo8y-75">
          <mxGeometry x="10" y="110" width="600" height="85" as="geometry" />
        </mxCell>
        <mxCell id="rvd_Lmfn2GWDsAaqOo8y-79" value="ー　コンストラクタ、ウィンドウプロシージャ関数を制御システムにセットする" style="text;strokeColor=none;fillColor=none;align=left;verticalAlign=middle;spacingLeft=4;spacingRight=4;overflow=hidden;points=[[0,0.5],[1,0.5]];portConstraint=eastwest;rotatable=0;whiteSpace=wrap;html=1;" vertex="1" parent="rvd_Lmfn2GWDsAaqOo8y-78">
          <mxGeometry y="25" width="600" height="30" as="geometry" />
        </mxCell>
        <mxCell id="rvd_Lmfn2GWDsAaqOo8y-80" value="＋　ゲーム用のウィンドウプロシージャ関数" style="text;strokeColor=none;fillColor=none;align=left;verticalAlign=middle;spacingLeft=4;spacingRight=4;overflow=hidden;points=[[0,0.5],[1,0.5]];portConstraint=eastwest;rotatable=0;whiteSpace=wrap;html=1;" vertex="1" parent="rvd_Lmfn2GWDsAaqOo8y-78">
          <mxGeometry y="55" width="600" height="30" as="geometry" />
        </mxCell>
        <mxCell id="rvd_Lmfn2GWDsAaqOo8y-81" value="現在の設計評価　：正常" style="swimlane;whiteSpace=wrap;html=1;swimlaneFillColor=default;fontSize=17;" vertex="1" parent="rvd_Lmfn2GWDsAaqOo8y-47">
          <mxGeometry x="1990" y="325" width="460" height="50" as="geometry" />
        </mxCell>
        <mxCell id="rvd_Lmfn2GWDsAaqOo8y-82" value="" style="rounded=0;whiteSpace=wrap;html=1;align=left;verticalAlign=top;" vertex="1" parent="rvd_Lmfn2GWDsAaqOo8y-81">
          <mxGeometry x="10" y="30" width="440" height="20" as="geometry" />
        </mxCell>
        <mxCell id="rvd_Lmfn2GWDsAaqOo8y-83" value="" style="shape=link;html=1;rounded=0;entryX=0;entryY=0.5;entryDx=0;entryDy=0;exitX=1;exitY=0.5;exitDx=0;exitDy=0;" edge="1" parent="rvd_Lmfn2GWDsAaqOo8y-47" source="rvd_Lmfn2GWDsAaqOo8y-75" target="rvd_Lmfn2GWDsAaqOo8y-81">
          <mxGeometry width="100" relative="1" as="geometry">
            <mxPoint x="1690" y="330" as="sourcePoint" />
            <mxPoint x="1665" y="280" as="targetPoint" />
          </mxGeometry>
        </mxCell>
        <mxCell id="rvd_Lmfn2GWDsAaqOo8y-84" value="現在の設計評価　：正常" style="swimlane;whiteSpace=wrap;html=1;swimlaneFillColor=default;fontSize=17;" vertex="1" parent="rvd_Lmfn2GWDsAaqOo8y-47">
          <mxGeometry x="1170" y="1235" width="460" height="50" as="geometry" />
        </mxCell>
        <mxCell id="rvd_Lmfn2GWDsAaqOo8y-85" value="" style="rounded=0;whiteSpace=wrap;html=1;align=left;verticalAlign=top;" vertex="1" parent="rvd_Lmfn2GWDsAaqOo8y-84">
          <mxGeometry x="10" y="30" width="440" height="20" as="geometry" />
        </mxCell>
        <mxCell id="rvd_Lmfn2GWDsAaqOo8y-86" value="" style="shape=link;html=1;rounded=0;entryX=0;entryY=0.5;entryDx=0;entryDy=0;exitX=1;exitY=0.5;exitDx=0;exitDy=0;" edge="1" parent="rvd_Lmfn2GWDsAaqOo8y-47" source="rvd_Lmfn2GWDsAaqOo8y-68" target="rvd_Lmfn2GWDsAaqOo8y-84">
          <mxGeometry width="100" relative="1" as="geometry">
            <mxPoint x="1160" y="1259.17" as="sourcePoint" />
            <mxPoint x="1240" y="1259.17" as="targetPoint" />
          </mxGeometry>
        </mxCell>
        <mxCell id="rvd_Lmfn2GWDsAaqOo8y-87" value="現在の設計評価　：正常" style="swimlane;whiteSpace=wrap;html=1;swimlaneFillColor=default;fontSize=17;" vertex="1" parent="rvd_Lmfn2GWDsAaqOo8y-47">
          <mxGeometry x="762" y="337.5" width="460" height="60" as="geometry" />
        </mxCell>
        <mxCell id="rvd_Lmfn2GWDsAaqOo8y-88" value="" style="rounded=0;whiteSpace=wrap;html=1;align=left;verticalAlign=top;" vertex="1" parent="rvd_Lmfn2GWDsAaqOo8y-87">
          <mxGeometry x="10" y="30" width="440" height="30" as="geometry" />
        </mxCell>
        <mxCell id="rvd_Lmfn2GWDsAaqOo8y-89" value="" style="shape=link;html=1;rounded=0;entryX=0;entryY=0.5;entryDx=0;entryDy=0;exitX=1;exitY=0.5;exitDx=0;exitDy=0;" edge="1" parent="rvd_Lmfn2GWDsAaqOo8y-47" source="rvd_Lmfn2GWDsAaqOo8y-48" target="rvd_Lmfn2GWDsAaqOo8y-87">
          <mxGeometry width="100" relative="1" as="geometry">
            <mxPoint x="720" y="397.5" as="sourcePoint" />
            <mxPoint x="845" y="327.5" as="targetPoint" />
          </mxGeometry>
        </mxCell>
        <mxCell id="rvd_Lmfn2GWDsAaqOo8y-90" value="" style="endArrow=classic;html=1;rounded=0;exitX=0.5;exitY=1;exitDx=0;exitDy=0;entryX=0.75;entryY=0;entryDx=0;entryDy=0;strokeWidth=8;" edge="1" parent="rvd_Lmfn2GWDsAaqOo8y-47" source="rvd_Lmfn2GWDsAaqOo8y-75" target="rvd_Lmfn2GWDsAaqOo8y-68">
          <mxGeometry width="50" height="50" relative="1" as="geometry">
            <mxPoint x="1565" y="460" as="sourcePoint" />
            <mxPoint x="920" y="1150" as="targetPoint" />
            <Array as="points">
              <mxPoint x="1600" y="920" />
              <mxPoint x="955" y="920" />
            </Array>
          </mxGeometry>
        </mxCell>
        <mxCell id="rvd_Lmfn2GWDsAaqOo8y-91" value="" style="endArrow=classic;dashed=1;html=1;strokeWidth=8;rounded=0;entryX=0.25;entryY=0;entryDx=0;entryDy=0;startArrow=none;startFill=0;endFill=1;exitX=0.25;exitY=1;exitDx=0;exitDy=0;" edge="1" parent="rvd_Lmfn2GWDsAaqOo8y-2" source="rvd_Lmfn2GWDsAaqOo8y-48" target="rvd_Lmfn2GWDsAaqOo8y-4">
          <mxGeometry width="50" height="50" relative="1" as="geometry">
            <mxPoint x="1403" y="670" as="sourcePoint" />
            <mxPoint x="2103" y="690" as="targetPoint" />
            <Array as="points">
              <mxPoint x="283" y="2460" />
              <mxPoint x="2600" y="2470" />
            </Array>
          </mxGeometry>
        </mxCell>
        <mxCell id="rvd_Lmfn2GWDsAaqOo8y-92" value="&lt;p style=&quot;line-height: 100%;&quot;&gt;通常のシステムがOSを使用するときに必要な機能だけをまとめたインターフェース　C_OS_Manager_Interface&lt;br&gt;&lt;/p&gt;" style="swimlane;whiteSpace=wrap;html=1;swimlaneFillColor=default;startSize=23;" vertex="1" parent="rvd_Lmfn2GWDsAaqOo8y-2">
          <mxGeometry x="2450" y="140" width="610" height="550" as="geometry" />
        </mxCell>
        <mxCell id="rvd_Lmfn2GWDsAaqOo8y-93" value="パラメータ" style="swimlane;fontStyle=0;childLayout=stackLayout;horizontal=1;startSize=25;horizontalStack=0;resizeParent=1;resizeParentMax=0;resizeLast=0;collapsible=1;marginBottom=0;whiteSpace=wrap;html=1;" vertex="1" parent="rvd_Lmfn2GWDsAaqOo8y-92">
          <mxGeometry x="20" y="30" width="580" height="55" as="geometry" />
        </mxCell>
        <mxCell id="rvd_Lmfn2GWDsAaqOo8y-94" value="メゾッド" style="swimlane;fontStyle=0;childLayout=stackLayout;horizontal=1;startSize=25;horizontalStack=0;resizeParent=1;resizeParentMax=0;resizeLast=0;collapsible=1;marginBottom=0;whiteSpace=wrap;html=1;" vertex="1" parent="rvd_Lmfn2GWDsAaqOo8y-92">
          <mxGeometry x="20" y="110" width="580" height="415" as="geometry" />
        </mxCell>
        <mxCell id="rvd_Lmfn2GWDsAaqOo8y-95" value="&lt;span style=&quot;background-color: initial;&quot;&gt;＋　時間の更新&lt;/span&gt;" style="text;strokeColor=none;fillColor=none;align=left;verticalAlign=middle;spacingLeft=4;spacingRight=4;overflow=hidden;points=[[0,0.5],[1,0.5]];portConstraint=eastwest;rotatable=0;whiteSpace=wrap;html=1;" vertex="1" parent="rvd_Lmfn2GWDsAaqOo8y-94">
          <mxGeometry y="25" width="580" height="30" as="geometry" />
        </mxCell>
        <mxCell id="rvd_Lmfn2GWDsAaqOo8y-96" value="＋　ウィンドウのサイズのゲッタ　＜静的関数＞" style="text;strokeColor=none;fillColor=none;align=left;verticalAlign=middle;spacingLeft=4;spacingRight=4;overflow=hidden;points=[[0,0.5],[1,0.5]];portConstraint=eastwest;rotatable=0;whiteSpace=wrap;html=1;" vertex="1" parent="rvd_Lmfn2GWDsAaqOo8y-94">
          <mxGeometry y="55" width="580" height="30" as="geometry" />
        </mxCell>
        <mxCell id="rvd_Lmfn2GWDsAaqOo8y-97" value="＋　ウィンドウのアスペクト比のゲッタ　＜静的関数＞" style="text;strokeColor=none;fillColor=none;align=left;verticalAlign=middle;spacingLeft=4;spacingRight=4;overflow=hidden;points=[[0,0.5],[1,0.5]];portConstraint=eastwest;rotatable=0;whiteSpace=wrap;html=1;" vertex="1" parent="rvd_Lmfn2GWDsAaqOo8y-94">
          <mxGeometry y="85" width="580" height="30" as="geometry" />
        </mxCell>
        <mxCell id="rvd_Lmfn2GWDsAaqOo8y-98" value="＋　ウィンドウの座標のゲッタ　＜静的関数＞" style="text;strokeColor=none;fillColor=none;align=left;verticalAlign=middle;spacingLeft=4;spacingRight=4;overflow=hidden;points=[[0,0.5],[1,0.5]];portConstraint=eastwest;rotatable=0;whiteSpace=wrap;html=1;" vertex="1" parent="rvd_Lmfn2GWDsAaqOo8y-94">
          <mxGeometry y="115" width="580" height="30" as="geometry" />
        </mxCell>
        <mxCell id="rvd_Lmfn2GWDsAaqOo8y-99" value="＋　マウスの情報のゲッタ　＜静的関数＞" style="text;strokeColor=none;fillColor=none;align=left;verticalAlign=middle;spacingLeft=4;spacingRight=4;overflow=hidden;points=[[0,0.5],[1,0.5]];portConstraint=eastwest;rotatable=0;whiteSpace=wrap;html=1;" vertex="1" parent="rvd_Lmfn2GWDsAaqOo8y-94">
          <mxGeometry y="145" width="580" height="30" as="geometry" />
        </mxCell>
        <mxCell id="rvd_Lmfn2GWDsAaqOo8y-100" value="＋　現在の年月日時分秒のゲッタ　＜静的関数＞" style="text;strokeColor=none;fillColor=none;align=left;verticalAlign=middle;spacingLeft=4;spacingRight=4;overflow=hidden;points=[[0,0.5],[1,0.5]];portConstraint=eastwest;rotatable=0;whiteSpace=wrap;html=1;" vertex="1" parent="rvd_Lmfn2GWDsAaqOo8y-94">
          <mxGeometry y="175" width="580" height="30" as="geometry" />
        </mxCell>
        <mxCell id="rvd_Lmfn2GWDsAaqOo8y-101" value="＋　現在のexe起動からのミリ秒単位での経過時間のゲッタ　＜静的関数＞" style="text;strokeColor=none;fillColor=none;align=left;verticalAlign=middle;spacingLeft=4;spacingRight=4;overflow=hidden;points=[[0,0.5],[1,0.5]];portConstraint=eastwest;rotatable=0;whiteSpace=wrap;html=1;" vertex="1" parent="rvd_Lmfn2GWDsAaqOo8y-94">
          <mxGeometry y="205" width="580" height="30" as="geometry" />
        </mxCell>
        <mxCell id="rvd_Lmfn2GWDsAaqOo8y-102" value="＋　ウィンドウタイトルのゲッタ　＜静的関数＞" style="text;strokeColor=none;fillColor=none;align=left;verticalAlign=middle;spacingLeft=4;spacingRight=4;overflow=hidden;points=[[0,0.5],[1,0.5]];portConstraint=eastwest;rotatable=0;whiteSpace=wrap;html=1;" vertex="1" parent="rvd_Lmfn2GWDsAaqOo8y-94">
          <mxGeometry y="235" width="580" height="30" as="geometry" />
        </mxCell>
        <mxCell id="rvd_Lmfn2GWDsAaqOo8y-103" value="＋　現在の年月日時分秒のゲッタ　＜静的関数＞" style="text;strokeColor=none;fillColor=none;align=left;verticalAlign=middle;spacingLeft=4;spacingRight=4;overflow=hidden;points=[[0,0.5],[1,0.5]];portConstraint=eastwest;rotatable=0;whiteSpace=wrap;html=1;" vertex="1" parent="rvd_Lmfn2GWDsAaqOo8y-94">
          <mxGeometry y="265" width="580" height="30" as="geometry" />
        </mxCell>
        <mxCell id="rvd_Lmfn2GWDsAaqOo8y-105" value="＋　現在のexe起動からのミリ秒単位での経過時間のゲッタ　＜静的関数＞" style="text;strokeColor=none;fillColor=none;align=left;verticalAlign=middle;spacingLeft=4;spacingRight=4;overflow=hidden;points=[[0,0.5],[1,0.5]];portConstraint=eastwest;rotatable=0;whiteSpace=wrap;html=1;" vertex="1" parent="rvd_Lmfn2GWDsAaqOo8y-94">
          <mxGeometry y="295" width="580" height="30" as="geometry" />
        </mxCell>
        <mxCell id="rvd_Lmfn2GWDsAaqOo8y-104" value="＋　ウィンドウのハンドル番号や、識別番号のゲッタ　＜静的関数＞" style="text;strokeColor=none;fillColor=none;align=left;verticalAlign=middle;spacingLeft=4;spacingRight=4;overflow=hidden;points=[[0,0.5],[1,0.5]];portConstraint=eastwest;rotatable=0;whiteSpace=wrap;html=1;" vertex="1" parent="rvd_Lmfn2GWDsAaqOo8y-94">
          <mxGeometry y="325" width="580" height="30" as="geometry" />
        </mxCell>
        <mxCell id="rvd_Lmfn2GWDsAaqOo8y-106" value="＋　ウィンドウタイトルの変更　＜静的関数＞" style="text;strokeColor=none;fillColor=none;align=left;verticalAlign=middle;spacingLeft=4;spacingRight=4;overflow=hidden;points=[[0,0.5],[1,0.5]];portConstraint=eastwest;rotatable=0;whiteSpace=wrap;html=1;" vertex="1" parent="rvd_Lmfn2GWDsAaqOo8y-94">
          <mxGeometry y="355" width="580" height="30" as="geometry" />
        </mxCell>
        <mxCell id="rvd_Lmfn2GWDsAaqOo8y-107" value="＋　メッセージボックスの表示　＜静的関数＞" style="text;strokeColor=none;fillColor=none;align=left;verticalAlign=middle;spacingLeft=4;spacingRight=4;overflow=hidden;points=[[0,0.5],[1,0.5]];portConstraint=eastwest;rotatable=0;whiteSpace=wrap;html=1;" vertex="1" parent="rvd_Lmfn2GWDsAaqOo8y-94">
          <mxGeometry y="385" width="580" height="30" as="geometry" />
        </mxCell>
        <mxCell id="rvd_Lmfn2GWDsAaqOo8y-108" value="" style="endArrow=classic;html=1;rounded=0;exitX=0.5;exitY=1;exitDx=0;exitDy=0;entryX=0.5;entryY=0;entryDx=0;entryDy=0;strokeWidth=8;" edge="1" parent="rvd_Lmfn2GWDsAaqOo8y-2" source="rvd_Lmfn2GWDsAaqOo8y-92" target="rvd_Lmfn2GWDsAaqOo8y-4">
          <mxGeometry width="50" height="50" relative="1" as="geometry">
            <mxPoint x="3255" y="830" as="sourcePoint" />
            <mxPoint x="3515" y="1270" as="targetPoint" />
            <Array as="points" />
          </mxGeometry>
        </mxCell>
        <mxCell id="rvd_Lmfn2GWDsAaqOo8y-109" value="現在の設計評価　：正常" style="swimlane;whiteSpace=wrap;html=1;swimlaneFillColor=default;fontSize=17;" vertex="1" parent="rvd_Lmfn2GWDsAaqOo8y-2">
          <mxGeometry x="3090" y="385" width="460" height="60" as="geometry" />
        </mxCell>
        <mxCell id="rvd_Lmfn2GWDsAaqOo8y-110" value="" style="rounded=0;whiteSpace=wrap;html=1;align=left;verticalAlign=top;" vertex="1" parent="rvd_Lmfn2GWDsAaqOo8y-109">
          <mxGeometry x="10" y="30" width="440" height="30" as="geometry" />
        </mxCell>
        <mxCell id="rvd_Lmfn2GWDsAaqOo8y-111" value="" style="shape=link;html=1;rounded=0;entryX=0;entryY=0.5;entryDx=0;entryDy=0;exitX=1;exitY=0.5;exitDx=0;exitDy=0;" edge="1" parent="rvd_Lmfn2GWDsAaqOo8y-2" source="rvd_Lmfn2GWDsAaqOo8y-92" target="rvd_Lmfn2GWDsAaqOo8y-109">
          <mxGeometry width="100" relative="1" as="geometry">
            <mxPoint x="3030" y="363" as="sourcePoint" />
            <mxPoint x="3165" y="307.5" as="targetPoint" />
          </mxGeometry>
        </mxCell>
        <mxCell id="rvd_Lmfn2GWDsAaqOo8y-112" value="" style="endArrow=classic;html=1;rounded=0;exitX=0.5;exitY=1;exitDx=0;exitDy=0;entryX=0.5;entryY=0;entryDx=0;entryDy=0;strokeWidth=8;" edge="1" parent="1" source="rvd_Lmfn2GWDsAaqOo8y-1" target="rvd_Lmfn2GWDsAaqOo8y-2">
          <mxGeometry width="50" height="50" relative="1" as="geometry">
            <mxPoint x="1940" y="230" as="sourcePoint" />
            <mxPoint x="1941" y="2250" as="targetPoint" />
            <Array as="points" />
          </mxGeometry>
        </mxCell>
      </root>
    </mxGraphModel>
  </diagram>
  <diagram id="XpHKc2eTiilgzOi2euWE" name="ver.2.1.0">
    <mxGraphModel dx="14340" dy="8360" grid="1" gridSize="10" guides="1" tooltips="1" connect="1" arrows="1" fold="1" page="1" pageScale="1" pageWidth="827" pageHeight="1169" math="0" shadow="0">
      <root>
        <mxCell id="0" />
        <mxCell id="1" parent="0" />
        <mxCell id="_BVpVDuyS6NIprukY8_N-1" value="上位層&lt;br style=&quot;font-size: 36px;&quot;&gt;レンダリング層やアセット層など" style="rounded=0;whiteSpace=wrap;html=1;fontSize=36;" parent="1" vertex="1">
          <mxGeometry x="1565" y="30" width="990" height="170" as="geometry" />
        </mxCell>
        <mxCell id="_BVpVDuyS6NIprukY8_N-2" value="プラットフォーム層　ネームスペース＜OS＞" style="swimlane;whiteSpace=wrap;html=1;swimlaneFillColor=default;" parent="1" vertex="1">
          <mxGeometry x="160" y="340" width="3800" height="3870" as="geometry" />
        </mxCell>
        <mxCell id="_BVpVDuyS6NIprukY8_N-3" value="&lt;p style=&quot;line-height: 100%;&quot;&gt;OS制御用システムの基底クラス　ネームスペース＜OS::BASE＞&lt;/p&gt;" style="swimlane;whiteSpace=wrap;html=1;swimlaneFillColor=default;" parent="_BVpVDuyS6NIprukY8_N-2" vertex="1">
          <mxGeometry x="2400" y="2570" width="1300" height="1270" as="geometry" />
        </mxCell>
        <mxCell id="_BVpVDuyS6NIprukY8_N-4" value="&lt;p style=&quot;line-height: 100%;&quot;&gt;OS制御システムの基底クラス　C_OS_Management_System_Base&lt;br&gt;&lt;/p&gt;" style="swimlane;whiteSpace=wrap;html=1;swimlaneFillColor=default;" parent="_BVpVDuyS6NIprukY8_N-2" vertex="1">
          <mxGeometry x="2461" y="2640" width="560" height="1190" as="geometry" />
        </mxCell>
        <mxCell id="_BVpVDuyS6NIprukY8_N-5" value="パラメータ" style="swimlane;fontStyle=0;childLayout=stackLayout;horizontal=1;startSize=25;horizontalStack=0;resizeParent=1;resizeParentMax=0;resizeLast=0;collapsible=1;marginBottom=0;whiteSpace=wrap;html=1;" parent="_BVpVDuyS6NIprukY8_N-4" vertex="1">
          <mxGeometry x="10" y="30" width="540" height="265" as="geometry" />
        </mxCell>
        <mxCell id="_BVpVDuyS6NIprukY8_N-6" value="ー　ウィンドウのサイズ" style="text;strokeColor=none;fillColor=none;align=left;verticalAlign=middle;spacingLeft=4;spacingRight=4;overflow=hidden;points=[[0,0.5],[1,0.5]];portConstraint=eastwest;rotatable=0;whiteSpace=wrap;html=1;" parent="_BVpVDuyS6NIprukY8_N-5" vertex="1">
          <mxGeometry y="25" width="540" height="30" as="geometry" />
        </mxCell>
        <mxCell id="_BVpVDuyS6NIprukY8_N-7" value="ー　ウィンドウの位置座標" style="text;strokeColor=none;fillColor=none;align=left;verticalAlign=middle;spacingLeft=4;spacingRight=4;overflow=hidden;points=[[0,0.5],[1,0.5]];portConstraint=eastwest;rotatable=0;whiteSpace=wrap;html=1;" parent="_BVpVDuyS6NIprukY8_N-5" vertex="1">
          <mxGeometry y="55" width="540" height="30" as="geometry" />
        </mxCell>
        <mxCell id="_BVpVDuyS6NIprukY8_N-8" value="ー　マウスの入力情報" style="text;strokeColor=none;fillColor=none;align=left;verticalAlign=middle;spacingLeft=4;spacingRight=4;overflow=hidden;points=[[0,0.5],[1,0.5]];portConstraint=eastwest;rotatable=0;whiteSpace=wrap;html=1;" parent="_BVpVDuyS6NIprukY8_N-5" vertex="1">
          <mxGeometry y="85" width="540" height="30" as="geometry" />
        </mxCell>
        <mxCell id="_BVpVDuyS6NIprukY8_N-9" value="ー　ウィンドウタイトル" style="text;strokeColor=none;fillColor=none;align=left;verticalAlign=middle;spacingLeft=4;spacingRight=4;overflow=hidden;points=[[0,0.5],[1,0.5]];portConstraint=eastwest;rotatable=0;whiteSpace=wrap;html=1;" parent="_BVpVDuyS6NIprukY8_N-5" vertex="1">
          <mxGeometry y="115" width="540" height="30" as="geometry" />
        </mxCell>
        <mxCell id="_BVpVDuyS6NIprukY8_N-10" value="ー　現在の年月日時分秒" style="text;strokeColor=none;fillColor=none;align=left;verticalAlign=middle;spacingLeft=4;spacingRight=4;overflow=hidden;points=[[0,0.5],[1,0.5]];portConstraint=eastwest;rotatable=0;whiteSpace=wrap;html=1;" parent="_BVpVDuyS6NIprukY8_N-5" vertex="1">
          <mxGeometry y="145" width="540" height="30" as="geometry" />
        </mxCell>
        <mxCell id="_BVpVDuyS6NIprukY8_N-11" value="ー　現在のexe起動時からのミリ秒単位での経過時間" style="text;strokeColor=none;fillColor=none;align=left;verticalAlign=middle;spacingLeft=4;spacingRight=4;overflow=hidden;points=[[0,0.5],[1,0.5]];portConstraint=eastwest;rotatable=0;whiteSpace=wrap;html=1;" parent="_BVpVDuyS6NIprukY8_N-5" vertex="1">
          <mxGeometry y="175" width="540" height="30" as="geometry" />
        </mxCell>
        <mxCell id="_BVpVDuyS6NIprukY8_N-12" value="＝　シングルトン化用の自クラスポインタ　＜静的変数＞" style="text;strokeColor=none;fillColor=none;align=left;verticalAlign=middle;spacingLeft=4;spacingRight=4;overflow=hidden;points=[[0,0.5],[1,0.5]];portConstraint=eastwest;rotatable=0;whiteSpace=wrap;html=1;" parent="_BVpVDuyS6NIprukY8_N-5" vertex="1">
          <mxGeometry y="205" width="540" height="30" as="geometry" />
        </mxCell>
        <mxCell id="_BVpVDuyS6NIprukY8_N-13" value="＝　OSがアクティブであるかどうかのフラグ　＜静的変数＞" style="text;strokeColor=none;fillColor=none;align=left;verticalAlign=middle;spacingLeft=4;spacingRight=4;overflow=hidden;points=[[0,0.5],[1,0.5]];portConstraint=eastwest;rotatable=0;whiteSpace=wrap;html=1;" parent="_BVpVDuyS6NIprukY8_N-5" vertex="1">
          <mxGeometry y="235" width="540" height="30" as="geometry" />
        </mxCell>
        <mxCell id="_BVpVDuyS6NIprukY8_N-14" value="メゾッド" style="swimlane;fontStyle=0;childLayout=stackLayout;horizontal=1;startSize=25;horizontalStack=0;resizeParent=1;resizeParentMax=0;resizeLast=0;collapsible=1;marginBottom=0;whiteSpace=wrap;html=1;" parent="_BVpVDuyS6NIprukY8_N-4" vertex="1">
          <mxGeometry x="10" y="310" width="540" height="865" as="geometry" />
        </mxCell>
        <mxCell id="_BVpVDuyS6NIprukY8_N-15" value="＝　ウィンドウタイトルのセッタ" style="text;strokeColor=none;fillColor=none;align=left;verticalAlign=middle;spacingLeft=4;spacingRight=4;overflow=hidden;points=[[0,0.5],[1,0.5]];portConstraint=eastwest;rotatable=0;whiteSpace=wrap;html=1;" parent="_BVpVDuyS6NIprukY8_N-14" vertex="1">
          <mxGeometry y="25" width="540" height="30" as="geometry" />
        </mxCell>
        <mxCell id="_BVpVDuyS6NIprukY8_N-16" value="＝　現在の年月日時分秒のセッタ" style="text;strokeColor=none;fillColor=none;align=left;verticalAlign=middle;spacingLeft=4;spacingRight=4;overflow=hidden;points=[[0,0.5],[1,0.5]];portConstraint=eastwest;rotatable=0;whiteSpace=wrap;html=1;" parent="_BVpVDuyS6NIprukY8_N-14" vertex="1">
          <mxGeometry y="55" width="540" height="30" as="geometry" />
        </mxCell>
        <mxCell id="_BVpVDuyS6NIprukY8_N-17" value="＝　現在のexe起動時からのミリ秒単位での経過時間のセッタ" style="text;strokeColor=none;fillColor=none;align=left;verticalAlign=middle;spacingLeft=4;spacingRight=4;overflow=hidden;points=[[0,0.5],[1,0.5]];portConstraint=eastwest;rotatable=0;whiteSpace=wrap;html=1;" parent="_BVpVDuyS6NIprukY8_N-14" vertex="1">
          <mxGeometry y="85" width="540" height="30" as="geometry" />
        </mxCell>
        <mxCell id="_BVpVDuyS6NIprukY8_N-18" value="＋　コンストラクタ" style="text;strokeColor=none;fillColor=none;align=left;verticalAlign=middle;spacingLeft=4;spacingRight=4;overflow=hidden;points=[[0,0.5],[1,0.5]];portConstraint=eastwest;rotatable=0;whiteSpace=wrap;html=1;" parent="_BVpVDuyS6NIprukY8_N-14" vertex="1">
          <mxGeometry y="115" width="540" height="30" as="geometry" />
        </mxCell>
        <mxCell id="_BVpVDuyS6NIprukY8_N-19" value="＋　OSの初期化　＜純粋仮想関数＞" style="text;strokeColor=none;fillColor=none;align=left;verticalAlign=middle;spacingLeft=4;spacingRight=4;overflow=hidden;points=[[0,0.5],[1,0.5]];portConstraint=eastwest;rotatable=0;whiteSpace=wrap;html=1;" parent="_BVpVDuyS6NIprukY8_N-14" vertex="1">
          <mxGeometry y="145" width="540" height="30" as="geometry" />
        </mxCell>
        <mxCell id="_BVpVDuyS6NIprukY8_N-20" value="＋　メモリの解放処理　＜純粋仮想関数＞" style="text;strokeColor=none;fillColor=none;align=left;verticalAlign=middle;spacingLeft=4;spacingRight=4;overflow=hidden;points=[[0,0.5],[1,0.5]];portConstraint=eastwest;rotatable=0;whiteSpace=wrap;html=1;" parent="_BVpVDuyS6NIprukY8_N-14" vertex="1">
          <mxGeometry y="175" width="540" height="30" as="geometry" />
        </mxCell>
        <mxCell id="_BVpVDuyS6NIprukY8_N-21" value="＋　OSシステムの削除　＜静的関数＞" style="text;strokeColor=none;fillColor=none;align=left;verticalAlign=middle;spacingLeft=4;spacingRight=4;overflow=hidden;points=[[0,0.5],[1,0.5]];portConstraint=eastwest;rotatable=0;whiteSpace=wrap;html=1;" parent="_BVpVDuyS6NIprukY8_N-14" vertex="1">
          <mxGeometry y="205" width="540" height="30" as="geometry" />
        </mxCell>
        <mxCell id="_BVpVDuyS6NIprukY8_N-22" value="＋　デストラクタ　＜仮想関数＞" style="text;strokeColor=none;fillColor=none;align=left;verticalAlign=middle;spacingLeft=4;spacingRight=4;overflow=hidden;points=[[0,0.5],[1,0.5]];portConstraint=eastwest;rotatable=0;whiteSpace=wrap;html=1;" parent="_BVpVDuyS6NIprukY8_N-14" vertex="1">
          <mxGeometry y="235" width="540" height="30" as="geometry" />
        </mxCell>
        <mxCell id="_BVpVDuyS6NIprukY8_N-23" value="＋　OSの更新処理　＜純粋仮想関数＞" style="text;strokeColor=none;fillColor=none;align=left;verticalAlign=middle;spacingLeft=4;spacingRight=4;overflow=hidden;points=[[0,0.5],[1,0.5]];portConstraint=eastwest;rotatable=0;whiteSpace=wrap;html=1;" parent="_BVpVDuyS6NIprukY8_N-14" vertex="1">
          <mxGeometry y="265" width="540" height="30" as="geometry" />
        </mxCell>
        <mxCell id="_BVpVDuyS6NIprukY8_N-24" value="＋　ウィンドウサイズの更新処理　＜純粋仮想関数＞" style="text;strokeColor=none;fillColor=none;align=left;verticalAlign=middle;spacingLeft=4;spacingRight=4;overflow=hidden;points=[[0,0.5],[1,0.5]];portConstraint=eastwest;rotatable=0;whiteSpace=wrap;html=1;" parent="_BVpVDuyS6NIprukY8_N-14" vertex="1">
          <mxGeometry y="295" width="540" height="30" as="geometry" />
        </mxCell>
        <mxCell id="_BVpVDuyS6NIprukY8_N-109" value="&lt;span style=&quot;background-color: initial;&quot;&gt;＋　時間の更新　＜純粋仮想関数＞&lt;/span&gt;" style="text;strokeColor=none;fillColor=none;align=left;verticalAlign=middle;spacingLeft=4;spacingRight=4;overflow=hidden;points=[[0,0.5],[1,0.5]];portConstraint=eastwest;rotatable=0;whiteSpace=wrap;html=1;" parent="_BVpVDuyS6NIprukY8_N-14" vertex="1">
          <mxGeometry y="325" width="540" height="30" as="geometry" />
        </mxCell>
        <mxCell id="_BVpVDuyS6NIprukY8_N-25" value="＋　マウス座標のセッタ" style="text;strokeColor=none;fillColor=none;align=left;verticalAlign=middle;spacingLeft=4;spacingRight=4;overflow=hidden;points=[[0,0.5],[1,0.5]];portConstraint=eastwest;rotatable=0;whiteSpace=wrap;html=1;" parent="_BVpVDuyS6NIprukY8_N-14" vertex="1">
          <mxGeometry y="355" width="540" height="30" as="geometry" />
        </mxCell>
        <mxCell id="_BVpVDuyS6NIprukY8_N-26" value="＋　ウィンドウサイズのセッタ" style="text;strokeColor=none;fillColor=none;align=left;verticalAlign=middle;spacingLeft=4;spacingRight=4;overflow=hidden;points=[[0,0.5],[1,0.5]];portConstraint=eastwest;rotatable=0;whiteSpace=wrap;html=1;" parent="_BVpVDuyS6NIprukY8_N-14" vertex="1">
          <mxGeometry y="385" width="540" height="30" as="geometry" />
        </mxCell>
        <mxCell id="_BVpVDuyS6NIprukY8_N-27" value="＋　ウィンドウ座標のセッタ" style="text;strokeColor=none;fillColor=none;align=left;verticalAlign=middle;spacingLeft=4;spacingRight=4;overflow=hidden;points=[[0,0.5],[1,0.5]];portConstraint=eastwest;rotatable=0;whiteSpace=wrap;html=1;" parent="_BVpVDuyS6NIprukY8_N-14" vertex="1">
          <mxGeometry y="415" width="540" height="30" as="geometry" />
        </mxCell>
        <mxCell id="_BVpVDuyS6NIprukY8_N-28" value="＋　マウス左クリックフラグのセッタ" style="text;strokeColor=none;fillColor=none;align=left;verticalAlign=middle;spacingLeft=4;spacingRight=4;overflow=hidden;points=[[0,0.5],[1,0.5]];portConstraint=eastwest;rotatable=0;whiteSpace=wrap;html=1;" parent="_BVpVDuyS6NIprukY8_N-14" vertex="1">
          <mxGeometry y="445" width="540" height="30" as="geometry" />
        </mxCell>
        <mxCell id="_BVpVDuyS6NIprukY8_N-29" value="＋　マウス右クリックフラグのセッタ" style="text;strokeColor=none;fillColor=none;align=left;verticalAlign=middle;spacingLeft=4;spacingRight=4;overflow=hidden;points=[[0,0.5],[1,0.5]];portConstraint=eastwest;rotatable=0;whiteSpace=wrap;html=1;" parent="_BVpVDuyS6NIprukY8_N-14" vertex="1">
          <mxGeometry y="475" width="540" height="30" as="geometry" />
        </mxCell>
        <mxCell id="_BVpVDuyS6NIprukY8_N-30" value="＋　マウス中クリックフラグのセッタ" style="text;strokeColor=none;fillColor=none;align=left;verticalAlign=middle;spacingLeft=4;spacingRight=4;overflow=hidden;points=[[0,0.5],[1,0.5]];portConstraint=eastwest;rotatable=0;whiteSpace=wrap;html=1;" parent="_BVpVDuyS6NIprukY8_N-14" vertex="1">
          <mxGeometry y="505" width="540" height="30" as="geometry" />
        </mxCell>
        <mxCell id="_BVpVDuyS6NIprukY8_N-31" value="＋　自クラスのシングルトンインスタンスのアドレスのゲッタ　＜静的関数＞" style="text;strokeColor=none;fillColor=none;align=left;verticalAlign=middle;spacingLeft=4;spacingRight=4;overflow=hidden;points=[[0,0.5],[1,0.5]];portConstraint=eastwest;rotatable=0;whiteSpace=wrap;html=1;" parent="_BVpVDuyS6NIprukY8_N-14" vertex="1">
          <mxGeometry y="535" width="540" height="30" as="geometry" />
        </mxCell>
        <mxCell id="_BVpVDuyS6NIprukY8_N-32" value="＋　OSがアクティブであるかどうかのフラグのゲッタ　＜静的関数＞" style="text;strokeColor=none;fillColor=none;align=left;verticalAlign=middle;spacingLeft=4;spacingRight=4;overflow=hidden;points=[[0,0.5],[1,0.5]];portConstraint=eastwest;rotatable=0;whiteSpace=wrap;html=1;" parent="_BVpVDuyS6NIprukY8_N-14" vertex="1">
          <mxGeometry y="565" width="540" height="30" as="geometry" />
        </mxCell>
        <mxCell id="_BVpVDuyS6NIprukY8_N-33" value="＋　ウィンドウのサイズのゲッタ　＜const関数＞" style="text;strokeColor=none;fillColor=none;align=left;verticalAlign=middle;spacingLeft=4;spacingRight=4;overflow=hidden;points=[[0,0.5],[1,0.5]];portConstraint=eastwest;rotatable=0;whiteSpace=wrap;html=1;" parent="_BVpVDuyS6NIprukY8_N-14" vertex="1">
          <mxGeometry y="595" width="540" height="30" as="geometry" />
        </mxCell>
        <mxCell id="_BVpVDuyS6NIprukY8_N-34" value="＋　ウィンドウのアスペクト比のゲッタ　＜const関数＞" style="text;strokeColor=none;fillColor=none;align=left;verticalAlign=middle;spacingLeft=4;spacingRight=4;overflow=hidden;points=[[0,0.5],[1,0.5]];portConstraint=eastwest;rotatable=0;whiteSpace=wrap;html=1;" parent="_BVpVDuyS6NIprukY8_N-14" vertex="1">
          <mxGeometry y="625" width="540" height="30" as="geometry" />
        </mxCell>
        <mxCell id="_BVpVDuyS6NIprukY8_N-35" value="＋　ウィンドウの座標のゲッタ　＜const関数＞" style="text;strokeColor=none;fillColor=none;align=left;verticalAlign=middle;spacingLeft=4;spacingRight=4;overflow=hidden;points=[[0,0.5],[1,0.5]];portConstraint=eastwest;rotatable=0;whiteSpace=wrap;html=1;" parent="_BVpVDuyS6NIprukY8_N-14" vertex="1">
          <mxGeometry y="655" width="540" height="30" as="geometry" />
        </mxCell>
        <mxCell id="_BVpVDuyS6NIprukY8_N-36" value="＋　マウス情報のゲッタ　＜const関数＞" style="text;strokeColor=none;fillColor=none;align=left;verticalAlign=middle;spacingLeft=4;spacingRight=4;overflow=hidden;points=[[0,0.5],[1,0.5]];portConstraint=eastwest;rotatable=0;whiteSpace=wrap;html=1;" parent="_BVpVDuyS6NIprukY8_N-14" vertex="1">
          <mxGeometry y="685" width="540" height="30" as="geometry" />
        </mxCell>
        <mxCell id="_BVpVDuyS6NIprukY8_N-37" value="＋　ウィンドウタイトルのゲッタ　＜const関数＞" style="text;strokeColor=none;fillColor=none;align=left;verticalAlign=middle;spacingLeft=4;spacingRight=4;overflow=hidden;points=[[0,0.5],[1,0.5]];portConstraint=eastwest;rotatable=0;whiteSpace=wrap;html=1;" parent="_BVpVDuyS6NIprukY8_N-14" vertex="1">
          <mxGeometry y="715" width="540" height="30" as="geometry" />
        </mxCell>
        <mxCell id="_BVpVDuyS6NIprukY8_N-38" value="＋　現在の年月日時分秒のゲッタ　＜const関数＞" style="text;strokeColor=none;fillColor=none;align=left;verticalAlign=middle;spacingLeft=4;spacingRight=4;overflow=hidden;points=[[0,0.5],[1,0.5]];portConstraint=eastwest;rotatable=0;whiteSpace=wrap;html=1;" parent="_BVpVDuyS6NIprukY8_N-14" vertex="1">
          <mxGeometry y="745" width="540" height="30" as="geometry" />
        </mxCell>
        <mxCell id="_BVpVDuyS6NIprukY8_N-39" value="＋　現在のexe起動からのミリ秒単位での経過時間のゲッタ　＜const関数＞" style="text;strokeColor=none;fillColor=none;align=left;verticalAlign=middle;spacingLeft=4;spacingRight=4;overflow=hidden;points=[[0,0.5],[1,0.5]];portConstraint=eastwest;rotatable=0;whiteSpace=wrap;html=1;" parent="_BVpVDuyS6NIprukY8_N-14" vertex="1">
          <mxGeometry y="775" width="540" height="30" as="geometry" />
        </mxCell>
        <mxCell id="_BVpVDuyS6NIprukY8_N-40" value="＋　ウィンドウタイトルの変更　＜純粋仮想関数＞" style="text;strokeColor=none;fillColor=none;align=left;verticalAlign=middle;spacingLeft=4;spacingRight=4;overflow=hidden;points=[[0,0.5],[1,0.5]];portConstraint=eastwest;rotatable=0;whiteSpace=wrap;html=1;" parent="_BVpVDuyS6NIprukY8_N-14" vertex="1">
          <mxGeometry y="805" width="540" height="30" as="geometry" />
        </mxCell>
        <mxCell id="_BVpVDuyS6NIprukY8_N-41" value="＋　メッセージボックスの表示　＜純粋仮想関数＞" style="text;strokeColor=none;fillColor=none;align=left;verticalAlign=middle;spacingLeft=4;spacingRight=4;overflow=hidden;points=[[0,0.5],[1,0.5]];portConstraint=eastwest;rotatable=0;whiteSpace=wrap;html=1;" parent="_BVpVDuyS6NIprukY8_N-14" vertex="1">
          <mxGeometry y="835" width="540" height="30" as="geometry" />
        </mxCell>
        <mxCell id="_BVpVDuyS6NIprukY8_N-42" value="現在の設計評価　：正常" style="swimlane;whiteSpace=wrap;html=1;swimlaneFillColor=default;fontSize=17;" parent="_BVpVDuyS6NIprukY8_N-2" vertex="1">
          <mxGeometry x="3120" y="3215" width="460" height="40" as="geometry" />
        </mxCell>
        <mxCell id="_BVpVDuyS6NIprukY8_N-43" value="" style="rounded=0;whiteSpace=wrap;html=1;align=left;verticalAlign=top;" parent="_BVpVDuyS6NIprukY8_N-42" vertex="1">
          <mxGeometry x="10" y="30" width="440" height="10" as="geometry" />
        </mxCell>
        <mxCell id="_BVpVDuyS6NIprukY8_N-44" value="" style="shape=link;html=1;rounded=0;entryX=0;entryY=0.5;entryDx=0;entryDy=0;exitX=1;exitY=0.5;exitDx=0;exitDy=0;" parent="_BVpVDuyS6NIprukY8_N-2" source="_BVpVDuyS6NIprukY8_N-4" target="_BVpVDuyS6NIprukY8_N-42" edge="1">
          <mxGeometry width="100" relative="1" as="geometry">
            <mxPoint x="3045" y="1820" as="sourcePoint" />
            <mxPoint x="3145" y="1820" as="targetPoint" />
          </mxGeometry>
        </mxCell>
        <mxCell id="_BVpVDuyS6NIprukY8_N-45" value="ウィンドウズOS層　ネームスペース＜OS::WINDOWS＞" style="swimlane;whiteSpace=wrap;html=1;" parent="_BVpVDuyS6NIprukY8_N-2" vertex="1">
          <mxGeometry x="60" y="860" width="2460" height="1490" as="geometry" />
        </mxCell>
        <mxCell id="_BVpVDuyS6NIprukY8_N-46" value="&lt;p style=&quot;line-height: 100%;&quot;&gt;ウィンドウズOS制御用システム　C_Windows_OS_Management_System　基底クラス&amp;lt;C_OS_System_Base&amp;gt;&lt;/p&gt;" style="swimlane;whiteSpace=wrap;html=1;swimlaneFillColor=default;" parent="_BVpVDuyS6NIprukY8_N-45" vertex="1">
          <mxGeometry x="60" y="55" width="650" height="625" as="geometry" />
        </mxCell>
        <mxCell id="_BVpVDuyS6NIprukY8_N-47" value="パラメータ" style="swimlane;fontStyle=0;childLayout=stackLayout;horizontal=1;startSize=25;horizontalStack=0;resizeParent=1;resizeParentMax=0;resizeLast=0;collapsible=1;marginBottom=0;whiteSpace=wrap;html=1;" parent="_BVpVDuyS6NIprukY8_N-46" vertex="1">
          <mxGeometry x="10" y="30" width="600" height="115" as="geometry" />
        </mxCell>
        <mxCell id="_BVpVDuyS6NIprukY8_N-48" value="ー　自ウィンドウのハンドル" style="text;strokeColor=none;fillColor=none;align=left;verticalAlign=middle;spacingLeft=4;spacingRight=4;overflow=hidden;points=[[0,0.5],[1,0.5]];portConstraint=eastwest;rotatable=0;whiteSpace=wrap;html=1;" parent="_BVpVDuyS6NIprukY8_N-47" vertex="1">
          <mxGeometry y="25" width="600" height="30" as="geometry" />
        </mxCell>
        <mxCell id="_BVpVDuyS6NIprukY8_N-49" value="ー　ウィンドウの処理を取得するためのメッセージパラメータ" style="text;strokeColor=none;fillColor=none;align=left;verticalAlign=middle;spacingLeft=4;spacingRight=4;overflow=hidden;points=[[0,0.5],[1,0.5]];portConstraint=eastwest;rotatable=0;whiteSpace=wrap;html=1;" parent="_BVpVDuyS6NIprukY8_N-47" vertex="1">
          <mxGeometry y="55" width="600" height="30" as="geometry" />
        </mxCell>
        <mxCell id="_BVpVDuyS6NIprukY8_N-50" value="ー　ウィンドウ操作用のコマンド番号" style="text;strokeColor=none;fillColor=none;align=left;verticalAlign=middle;spacingLeft=4;spacingRight=4;overflow=hidden;points=[[0,0.5],[1,0.5]];portConstraint=eastwest;rotatable=0;whiteSpace=wrap;html=1;" parent="_BVpVDuyS6NIprukY8_N-47" vertex="1">
          <mxGeometry y="85" width="600" height="30" as="geometry" />
        </mxCell>
        <mxCell id="_BVpVDuyS6NIprukY8_N-51" value="メゾッド" style="swimlane;fontStyle=0;childLayout=stackLayout;horizontal=1;startSize=25;horizontalStack=0;resizeParent=1;resizeParentMax=0;resizeLast=0;collapsible=1;marginBottom=0;whiteSpace=wrap;html=1;" parent="_BVpVDuyS6NIprukY8_N-46" vertex="1">
          <mxGeometry x="10" y="155" width="600" height="445" as="geometry" />
        </mxCell>
        <mxCell id="_BVpVDuyS6NIprukY8_N-52" value="ー　コンストラクタ" style="text;strokeColor=none;fillColor=none;align=left;verticalAlign=middle;spacingLeft=4;spacingRight=4;overflow=hidden;points=[[0,0.5],[1,0.5]];portConstraint=eastwest;rotatable=0;whiteSpace=wrap;html=1;" parent="_BVpVDuyS6NIprukY8_N-51" vertex="1">
          <mxGeometry y="25" width="600" height="30" as="geometry" />
        </mxCell>
        <mxCell id="_BVpVDuyS6NIprukY8_N-53" value="ー　ウィンドウ生成処理" style="text;strokeColor=none;fillColor=none;align=left;verticalAlign=middle;spacingLeft=4;spacingRight=4;overflow=hidden;points=[[0,0.5],[1,0.5]];portConstraint=eastwest;rotatable=0;whiteSpace=wrap;html=1;" parent="_BVpVDuyS6NIprukY8_N-51" vertex="1">
          <mxGeometry y="55" width="600" height="30" as="geometry" />
        </mxCell>
        <mxCell id="_BVpVDuyS6NIprukY8_N-54" value="ー　マウス入力の更新処理" style="text;strokeColor=none;fillColor=none;align=left;verticalAlign=middle;spacingLeft=4;spacingRight=4;overflow=hidden;points=[[0,0.5],[1,0.5]];portConstraint=eastwest;rotatable=0;whiteSpace=wrap;html=1;" parent="_BVpVDuyS6NIprukY8_N-51" vertex="1">
          <mxGeometry y="85" width="600" height="30" as="geometry" />
        </mxCell>
        <mxCell id="_BVpVDuyS6NIprukY8_N-56" value="＋　ウィンドウズ制御用システム生成処理（シングルトンインスタンス生成）　＜静的関数＞" style="text;strokeColor=none;fillColor=none;align=left;verticalAlign=middle;spacingLeft=4;spacingRight=4;overflow=hidden;points=[[0,0.5],[1,0.5]];portConstraint=eastwest;rotatable=0;whiteSpace=wrap;html=1;" parent="_BVpVDuyS6NIprukY8_N-51" vertex="1">
          <mxGeometry y="115" width="600" height="30" as="geometry" />
        </mxCell>
        <mxCell id="_BVpVDuyS6NIprukY8_N-57" value="＋　ウィンドウズ機能の初期化処理　＜継承関数＞" style="text;strokeColor=none;fillColor=none;align=left;verticalAlign=middle;spacingLeft=4;spacingRight=4;overflow=hidden;points=[[0,0.5],[1,0.5]];portConstraint=eastwest;rotatable=0;whiteSpace=wrap;html=1;" parent="_BVpVDuyS6NIprukY8_N-51" vertex="1">
          <mxGeometry y="145" width="600" height="30" as="geometry" />
        </mxCell>
        <mxCell id="_BVpVDuyS6NIprukY8_N-58" value="＋　デストラクタ　＜継承関数＞" style="text;strokeColor=none;fillColor=none;align=left;verticalAlign=middle;spacingLeft=4;spacingRight=4;overflow=hidden;points=[[0,0.5],[1,0.5]];portConstraint=eastwest;rotatable=0;whiteSpace=wrap;html=1;" parent="_BVpVDuyS6NIprukY8_N-51" vertex="1">
          <mxGeometry y="175" width="600" height="30" as="geometry" />
        </mxCell>
        <mxCell id="_BVpVDuyS6NIprukY8_N-59" value="＋　メモリの解放処理　＜継承関数＞" style="text;strokeColor=none;fillColor=none;align=left;verticalAlign=middle;spacingLeft=4;spacingRight=4;overflow=hidden;points=[[0,0.5],[1,0.5]];portConstraint=eastwest;rotatable=0;whiteSpace=wrap;html=1;" parent="_BVpVDuyS6NIprukY8_N-51" vertex="1">
          <mxGeometry y="205" width="600" height="30" as="geometry" />
        </mxCell>
        <mxCell id="_BVpVDuyS6NIprukY8_N-60" value="＋　ウィンドウの更新処理　＜継承関数＞" style="text;strokeColor=none;fillColor=none;align=left;verticalAlign=middle;spacingLeft=4;spacingRight=4;overflow=hidden;points=[[0,0.5],[1,0.5]];portConstraint=eastwest;rotatable=0;whiteSpace=wrap;html=1;" parent="_BVpVDuyS6NIprukY8_N-51" vertex="1">
          <mxGeometry y="235" width="600" height="30" as="geometry" />
        </mxCell>
        <mxCell id="_BVpVDuyS6NIprukY8_N-61" value="＋　ウィンドウのサイズの更新処理　＜継承関数＞" style="text;strokeColor=none;fillColor=none;align=left;verticalAlign=middle;spacingLeft=4;spacingRight=4;overflow=hidden;points=[[0,0.5],[1,0.5]];portConstraint=eastwest;rotatable=0;whiteSpace=wrap;html=1;" parent="_BVpVDuyS6NIprukY8_N-51" vertex="1">
          <mxGeometry y="265" width="600" height="30" as="geometry" />
        </mxCell>
        <mxCell id="_BVpVDuyS6NIprukY8_N-55" value="&lt;span style=&quot;background-color: initial;&quot;&gt;＋　時間の更新　＜継承関数＞&lt;/span&gt;" style="text;strokeColor=none;fillColor=none;align=left;verticalAlign=middle;spacingLeft=4;spacingRight=4;overflow=hidden;points=[[0,0.5],[1,0.5]];portConstraint=eastwest;rotatable=0;whiteSpace=wrap;html=1;" parent="_BVpVDuyS6NIprukY8_N-51" vertex="1">
          <mxGeometry y="295" width="600" height="30" as="geometry" />
        </mxCell>
        <mxCell id="_BVpVDuyS6NIprukY8_N-62" value="＋　ウィンドウ操作用のコマンド番号のセッタ　＜静的関数＞" style="text;strokeColor=none;fillColor=none;align=left;verticalAlign=middle;spacingLeft=4;spacingRight=4;overflow=hidden;points=[[0,0.5],[1,0.5]];portConstraint=eastwest;rotatable=0;whiteSpace=wrap;html=1;" parent="_BVpVDuyS6NIprukY8_N-51" vertex="1">
          <mxGeometry y="325" width="600" height="30" as="geometry" />
        </mxCell>
        <mxCell id="_BVpVDuyS6NIprukY8_N-63" value="＋　自ウィンドウのハンドルのゲッタ　＜静的関数＞" style="text;strokeColor=none;fillColor=none;align=left;verticalAlign=middle;spacingLeft=4;spacingRight=4;overflow=hidden;points=[[0,0.5],[1,0.5]];portConstraint=eastwest;rotatable=0;whiteSpace=wrap;html=1;" parent="_BVpVDuyS6NIprukY8_N-51" vertex="1">
          <mxGeometry y="355" width="600" height="30" as="geometry" />
        </mxCell>
        <mxCell id="_BVpVDuyS6NIprukY8_N-64" value="＋　ウィンドウタイトルの変更　＜継承関数＞" style="text;strokeColor=none;fillColor=none;align=left;verticalAlign=middle;spacingLeft=4;spacingRight=4;overflow=hidden;points=[[0,0.5],[1,0.5]];portConstraint=eastwest;rotatable=0;whiteSpace=wrap;html=1;" parent="_BVpVDuyS6NIprukY8_N-51" vertex="1">
          <mxGeometry y="385" width="600" height="30" as="geometry" />
        </mxCell>
        <mxCell id="_BVpVDuyS6NIprukY8_N-65" value="＋　メッセージボックスの表示　＜継承関数＞" style="text;strokeColor=none;fillColor=none;align=left;verticalAlign=middle;spacingLeft=4;spacingRight=4;overflow=hidden;points=[[0,0.5],[1,0.5]];portConstraint=eastwest;rotatable=0;whiteSpace=wrap;html=1;" parent="_BVpVDuyS6NIprukY8_N-51" vertex="1">
          <mxGeometry y="415" width="600" height="30" as="geometry" />
        </mxCell>
        <mxCell id="_BVpVDuyS6NIprukY8_N-66" value="&lt;p style=&quot;line-height: 100%;&quot;&gt;ウィンドウプロシージャ関数制御システム　C_Wnd_Proc_Manager&lt;/p&gt;" style="swimlane;whiteSpace=wrap;html=1;swimlaneFillColor=default;" parent="_BVpVDuyS6NIprukY8_N-45" vertex="1">
          <mxGeometry x="490" y="1150" width="620" height="220" as="geometry" />
        </mxCell>
        <mxCell id="_BVpVDuyS6NIprukY8_N-67" value="パラメータ" style="swimlane;fontStyle=0;childLayout=stackLayout;horizontal=1;startSize=25;horizontalStack=0;resizeParent=1;resizeParentMax=0;resizeLast=0;collapsible=1;marginBottom=0;whiteSpace=wrap;html=1;" parent="_BVpVDuyS6NIprukY8_N-66" vertex="1">
          <mxGeometry x="10" y="30" width="600" height="55" as="geometry" />
        </mxCell>
        <mxCell id="_BVpVDuyS6NIprukY8_N-68" value="ー　ゲーム用のウィンドウプロシージャのアドレス" style="text;strokeColor=none;fillColor=none;align=left;verticalAlign=middle;spacingLeft=4;spacingRight=4;overflow=hidden;points=[[0,0.5],[1,0.5]];portConstraint=eastwest;rotatable=0;whiteSpace=wrap;html=1;" parent="_BVpVDuyS6NIprukY8_N-67" vertex="1">
          <mxGeometry y="25" width="600" height="30" as="geometry" />
        </mxCell>
        <mxCell id="_BVpVDuyS6NIprukY8_N-69" value="メゾッド" style="swimlane;fontStyle=0;childLayout=stackLayout;horizontal=1;startSize=25;horizontalStack=0;resizeParent=1;resizeParentMax=0;resizeLast=0;collapsible=1;marginBottom=0;whiteSpace=wrap;html=1;" parent="_BVpVDuyS6NIprukY8_N-66" vertex="1">
          <mxGeometry x="10" y="110" width="600" height="85" as="geometry" />
        </mxCell>
        <mxCell id="_BVpVDuyS6NIprukY8_N-70" value="＋　ゲーム用のウィンドウプロシージャのセッタ" style="text;strokeColor=none;fillColor=none;align=left;verticalAlign=middle;spacingLeft=4;spacingRight=4;overflow=hidden;points=[[0,0.5],[1,0.5]];portConstraint=eastwest;rotatable=0;whiteSpace=wrap;html=1;" parent="_BVpVDuyS6NIprukY8_N-69" vertex="1">
          <mxGeometry y="25" width="600" height="30" as="geometry" />
        </mxCell>
        <mxCell id="_BVpVDuyS6NIprukY8_N-71" value="＋　ゲーム用のウィンドウプロシージャのゲッタ" style="text;strokeColor=none;fillColor=none;align=left;verticalAlign=middle;spacingLeft=4;spacingRight=4;overflow=hidden;points=[[0,0.5],[1,0.5]];portConstraint=eastwest;rotatable=0;whiteSpace=wrap;html=1;" parent="_BVpVDuyS6NIprukY8_N-69" vertex="1">
          <mxGeometry y="55" width="600" height="30" as="geometry" />
        </mxCell>
        <mxCell id="_BVpVDuyS6NIprukY8_N-72" value="" style="endArrow=classic;html=1;rounded=0;exitX=0.5;exitY=1;exitDx=0;exitDy=0;entryX=0.25;entryY=0;entryDx=0;entryDy=0;strokeWidth=8;" parent="_BVpVDuyS6NIprukY8_N-45" source="_BVpVDuyS6NIprukY8_N-46" target="_BVpVDuyS6NIprukY8_N-66" edge="1">
          <mxGeometry width="50" height="50" relative="1" as="geometry">
            <mxPoint x="550" y="930" as="sourcePoint" />
            <mxPoint x="600" y="880" as="targetPoint" />
            <Array as="points">
              <mxPoint x="390" y="930" />
              <mxPoint x="645" y="930" />
            </Array>
          </mxGeometry>
        </mxCell>
        <mxCell id="_BVpVDuyS6NIprukY8_N-73" value="&lt;p style=&quot;line-height: 100%;&quot;&gt;ゲーム用ウィンドウプロシージャ管理クラス　C_Wnd_Proc_For_Game_APK&lt;/p&gt;" style="swimlane;whiteSpace=wrap;html=1;swimlaneFillColor=default;" parent="_BVpVDuyS6NIprukY8_N-45" vertex="1">
          <mxGeometry x="1290" y="240" width="620" height="220" as="geometry" />
        </mxCell>
        <mxCell id="_BVpVDuyS6NIprukY8_N-74" value="パラメータ" style="swimlane;fontStyle=0;childLayout=stackLayout;horizontal=1;startSize=25;horizontalStack=0;resizeParent=1;resizeParentMax=0;resizeLast=0;collapsible=1;marginBottom=0;whiteSpace=wrap;html=1;" parent="_BVpVDuyS6NIprukY8_N-73" vertex="1">
          <mxGeometry x="10" y="30" width="600" height="55" as="geometry" />
        </mxCell>
        <mxCell id="_BVpVDuyS6NIprukY8_N-75" value="ー　シングルトン化用の自クラスのインスタンス" style="text;strokeColor=none;fillColor=none;align=left;verticalAlign=middle;spacingLeft=4;spacingRight=4;overflow=hidden;points=[[0,0.5],[1,0.5]];portConstraint=eastwest;rotatable=0;whiteSpace=wrap;html=1;" parent="_BVpVDuyS6NIprukY8_N-74" vertex="1">
          <mxGeometry y="25" width="600" height="30" as="geometry" />
        </mxCell>
        <mxCell id="_BVpVDuyS6NIprukY8_N-76" value="メゾッド" style="swimlane;fontStyle=0;childLayout=stackLayout;horizontal=1;startSize=25;horizontalStack=0;resizeParent=1;resizeParentMax=0;resizeLast=0;collapsible=1;marginBottom=0;whiteSpace=wrap;html=1;" parent="_BVpVDuyS6NIprukY8_N-73" vertex="1">
          <mxGeometry x="10" y="110" width="600" height="85" as="geometry" />
        </mxCell>
        <mxCell id="_BVpVDuyS6NIprukY8_N-77" value="ー　コンストラクタ、ウィンドウプロシージャ関数を制御システムにセットする" style="text;strokeColor=none;fillColor=none;align=left;verticalAlign=middle;spacingLeft=4;spacingRight=4;overflow=hidden;points=[[0,0.5],[1,0.5]];portConstraint=eastwest;rotatable=0;whiteSpace=wrap;html=1;" parent="_BVpVDuyS6NIprukY8_N-76" vertex="1">
          <mxGeometry y="25" width="600" height="30" as="geometry" />
        </mxCell>
        <mxCell id="_BVpVDuyS6NIprukY8_N-78" value="＋　ゲーム用のウィンドウプロシージャ関数" style="text;strokeColor=none;fillColor=none;align=left;verticalAlign=middle;spacingLeft=4;spacingRight=4;overflow=hidden;points=[[0,0.5],[1,0.5]];portConstraint=eastwest;rotatable=0;whiteSpace=wrap;html=1;" parent="_BVpVDuyS6NIprukY8_N-76" vertex="1">
          <mxGeometry y="55" width="600" height="30" as="geometry" />
        </mxCell>
        <mxCell id="_BVpVDuyS6NIprukY8_N-79" value="現在の設計評価　：正常" style="swimlane;whiteSpace=wrap;html=1;swimlaneFillColor=default;fontSize=17;" parent="_BVpVDuyS6NIprukY8_N-45" vertex="1">
          <mxGeometry x="1990" y="325" width="460" height="50" as="geometry" />
        </mxCell>
        <mxCell id="_BVpVDuyS6NIprukY8_N-80" value="" style="rounded=0;whiteSpace=wrap;html=1;align=left;verticalAlign=top;" parent="_BVpVDuyS6NIprukY8_N-79" vertex="1">
          <mxGeometry x="10" y="30" width="440" height="20" as="geometry" />
        </mxCell>
        <mxCell id="_BVpVDuyS6NIprukY8_N-81" value="" style="shape=link;html=1;rounded=0;entryX=0;entryY=0.5;entryDx=0;entryDy=0;exitX=1;exitY=0.5;exitDx=0;exitDy=0;" parent="_BVpVDuyS6NIprukY8_N-45" source="_BVpVDuyS6NIprukY8_N-73" target="_BVpVDuyS6NIprukY8_N-79" edge="1">
          <mxGeometry width="100" relative="1" as="geometry">
            <mxPoint x="1690" y="330" as="sourcePoint" />
            <mxPoint x="1665" y="280" as="targetPoint" />
          </mxGeometry>
        </mxCell>
        <mxCell id="_BVpVDuyS6NIprukY8_N-82" value="現在の設計評価　：正常" style="swimlane;whiteSpace=wrap;html=1;swimlaneFillColor=default;fontSize=17;" parent="_BVpVDuyS6NIprukY8_N-45" vertex="1">
          <mxGeometry x="1170" y="1235" width="460" height="50" as="geometry" />
        </mxCell>
        <mxCell id="_BVpVDuyS6NIprukY8_N-83" value="" style="rounded=0;whiteSpace=wrap;html=1;align=left;verticalAlign=top;" parent="_BVpVDuyS6NIprukY8_N-82" vertex="1">
          <mxGeometry x="10" y="30" width="440" height="20" as="geometry" />
        </mxCell>
        <mxCell id="_BVpVDuyS6NIprukY8_N-84" value="" style="shape=link;html=1;rounded=0;entryX=0;entryY=0.5;entryDx=0;entryDy=0;exitX=1;exitY=0.5;exitDx=0;exitDy=0;" parent="_BVpVDuyS6NIprukY8_N-45" source="_BVpVDuyS6NIprukY8_N-66" target="_BVpVDuyS6NIprukY8_N-82" edge="1">
          <mxGeometry width="100" relative="1" as="geometry">
            <mxPoint x="1160" y="1259.17" as="sourcePoint" />
            <mxPoint x="1240" y="1259.17" as="targetPoint" />
          </mxGeometry>
        </mxCell>
        <mxCell id="_BVpVDuyS6NIprukY8_N-85" value="現在の設計評価　：正常" style="swimlane;whiteSpace=wrap;html=1;swimlaneFillColor=default;fontSize=17;" parent="_BVpVDuyS6NIprukY8_N-45" vertex="1">
          <mxGeometry x="762" y="337.5" width="460" height="60" as="geometry" />
        </mxCell>
        <mxCell id="_BVpVDuyS6NIprukY8_N-86" value="" style="rounded=0;whiteSpace=wrap;html=1;align=left;verticalAlign=top;" parent="_BVpVDuyS6NIprukY8_N-85" vertex="1">
          <mxGeometry x="10" y="30" width="440" height="30" as="geometry" />
        </mxCell>
        <mxCell id="_BVpVDuyS6NIprukY8_N-87" value="" style="shape=link;html=1;rounded=0;entryX=0;entryY=0.5;entryDx=0;entryDy=0;exitX=1;exitY=0.5;exitDx=0;exitDy=0;" parent="_BVpVDuyS6NIprukY8_N-45" source="_BVpVDuyS6NIprukY8_N-46" target="_BVpVDuyS6NIprukY8_N-85" edge="1">
          <mxGeometry width="100" relative="1" as="geometry">
            <mxPoint x="720" y="397.5" as="sourcePoint" />
            <mxPoint x="845" y="327.5" as="targetPoint" />
          </mxGeometry>
        </mxCell>
        <mxCell id="_BVpVDuyS6NIprukY8_N-88" value="" style="endArrow=classic;html=1;rounded=0;exitX=0.5;exitY=1;exitDx=0;exitDy=0;entryX=0.75;entryY=0;entryDx=0;entryDy=0;strokeWidth=8;" parent="_BVpVDuyS6NIprukY8_N-45" source="_BVpVDuyS6NIprukY8_N-73" target="_BVpVDuyS6NIprukY8_N-66" edge="1">
          <mxGeometry width="50" height="50" relative="1" as="geometry">
            <mxPoint x="1565" y="460" as="sourcePoint" />
            <mxPoint x="920" y="1150" as="targetPoint" />
            <Array as="points">
              <mxPoint x="1600" y="920" />
              <mxPoint x="955" y="920" />
            </Array>
          </mxGeometry>
        </mxCell>
        <mxCell id="_BVpVDuyS6NIprukY8_N-89" value="" style="endArrow=classic;dashed=1;html=1;strokeWidth=8;rounded=0;entryX=0.25;entryY=0;entryDx=0;entryDy=0;startArrow=none;startFill=0;endFill=1;exitX=0.25;exitY=1;exitDx=0;exitDy=0;" parent="_BVpVDuyS6NIprukY8_N-2" source="_BVpVDuyS6NIprukY8_N-46" target="_BVpVDuyS6NIprukY8_N-4" edge="1">
          <mxGeometry width="50" height="50" relative="1" as="geometry">
            <mxPoint x="1403" y="670" as="sourcePoint" />
            <mxPoint x="2103" y="690" as="targetPoint" />
            <Array as="points">
              <mxPoint x="283" y="2460" />
              <mxPoint x="2600" y="2470" />
            </Array>
          </mxGeometry>
        </mxCell>
        <mxCell id="_BVpVDuyS6NIprukY8_N-90" value="&lt;p style=&quot;line-height: 100%;&quot;&gt;通常のシステムがOSを使用するときに必要な機能だけをまとめたインターフェース　C_OS_Manager_Interface&lt;br&gt;&lt;/p&gt;" style="swimlane;whiteSpace=wrap;html=1;swimlaneFillColor=default;startSize=23;" parent="_BVpVDuyS6NIprukY8_N-2" vertex="1">
          <mxGeometry x="2450" y="140" width="610" height="520" as="geometry" />
        </mxCell>
        <mxCell id="_BVpVDuyS6NIprukY8_N-91" value="パラメータ" style="swimlane;fontStyle=0;childLayout=stackLayout;horizontal=1;startSize=25;horizontalStack=0;resizeParent=1;resizeParentMax=0;resizeLast=0;collapsible=1;marginBottom=0;whiteSpace=wrap;html=1;" parent="_BVpVDuyS6NIprukY8_N-90" vertex="1">
          <mxGeometry x="20" y="30" width="580" height="55" as="geometry" />
        </mxCell>
        <mxCell id="_BVpVDuyS6NIprukY8_N-92" value="メゾッド" style="swimlane;fontStyle=0;childLayout=stackLayout;horizontal=1;startSize=25;horizontalStack=0;resizeParent=1;resizeParentMax=0;resizeLast=0;collapsible=1;marginBottom=0;whiteSpace=wrap;html=1;" parent="_BVpVDuyS6NIprukY8_N-90" vertex="1">
          <mxGeometry x="20" y="110" width="580" height="385" as="geometry" />
        </mxCell>
        <mxCell id="_BVpVDuyS6NIprukY8_N-111" value="&lt;span style=&quot;background-color: initial;&quot;&gt;＋　時間の更新&lt;/span&gt;" style="text;strokeColor=none;fillColor=none;align=left;verticalAlign=middle;spacingLeft=4;spacingRight=4;overflow=hidden;points=[[0,0.5],[1,0.5]];portConstraint=eastwest;rotatable=0;whiteSpace=wrap;html=1;" parent="_BVpVDuyS6NIprukY8_N-92" vertex="1">
          <mxGeometry y="25" width="580" height="30" as="geometry" />
        </mxCell>
        <mxCell id="_BVpVDuyS6NIprukY8_N-93" value="＋　ウィンドウのサイズのゲッタ　＜静的関数＞" style="text;strokeColor=none;fillColor=none;align=left;verticalAlign=middle;spacingLeft=4;spacingRight=4;overflow=hidden;points=[[0,0.5],[1,0.5]];portConstraint=eastwest;rotatable=0;whiteSpace=wrap;html=1;" parent="_BVpVDuyS6NIprukY8_N-92" vertex="1">
          <mxGeometry y="55" width="580" height="30" as="geometry" />
        </mxCell>
        <mxCell id="_BVpVDuyS6NIprukY8_N-94" value="＋　ウィンドウのアスペクト比のゲッタ　＜静的関数＞" style="text;strokeColor=none;fillColor=none;align=left;verticalAlign=middle;spacingLeft=4;spacingRight=4;overflow=hidden;points=[[0,0.5],[1,0.5]];portConstraint=eastwest;rotatable=0;whiteSpace=wrap;html=1;" parent="_BVpVDuyS6NIprukY8_N-92" vertex="1">
          <mxGeometry y="85" width="580" height="30" as="geometry" />
        </mxCell>
        <mxCell id="_BVpVDuyS6NIprukY8_N-95" value="＋　ウィンドウの座標のゲッタ　＜静的関数＞" style="text;strokeColor=none;fillColor=none;align=left;verticalAlign=middle;spacingLeft=4;spacingRight=4;overflow=hidden;points=[[0,0.5],[1,0.5]];portConstraint=eastwest;rotatable=0;whiteSpace=wrap;html=1;" parent="_BVpVDuyS6NIprukY8_N-92" vertex="1">
          <mxGeometry y="115" width="580" height="30" as="geometry" />
        </mxCell>
        <mxCell id="_BVpVDuyS6NIprukY8_N-96" value="＋　マウスの情報のゲッタ　＜静的関数＞" style="text;strokeColor=none;fillColor=none;align=left;verticalAlign=middle;spacingLeft=4;spacingRight=4;overflow=hidden;points=[[0,0.5],[1,0.5]];portConstraint=eastwest;rotatable=0;whiteSpace=wrap;html=1;" parent="_BVpVDuyS6NIprukY8_N-92" vertex="1">
          <mxGeometry y="145" width="580" height="30" as="geometry" />
        </mxCell>
        <mxCell id="_BVpVDuyS6NIprukY8_N-97" value="＋　現在の年月日時分秒のゲッタ　＜静的関数＞" style="text;strokeColor=none;fillColor=none;align=left;verticalAlign=middle;spacingLeft=4;spacingRight=4;overflow=hidden;points=[[0,0.5],[1,0.5]];portConstraint=eastwest;rotatable=0;whiteSpace=wrap;html=1;" parent="_BVpVDuyS6NIprukY8_N-92" vertex="1">
          <mxGeometry y="175" width="580" height="30" as="geometry" />
        </mxCell>
        <mxCell id="_BVpVDuyS6NIprukY8_N-98" value="＋　現在のexe起動からのミリ秒単位での経過時間のゲッタ　＜静的関数＞" style="text;strokeColor=none;fillColor=none;align=left;verticalAlign=middle;spacingLeft=4;spacingRight=4;overflow=hidden;points=[[0,0.5],[1,0.5]];portConstraint=eastwest;rotatable=0;whiteSpace=wrap;html=1;" parent="_BVpVDuyS6NIprukY8_N-92" vertex="1">
          <mxGeometry y="205" width="580" height="30" as="geometry" />
        </mxCell>
        <mxCell id="_BVpVDuyS6NIprukY8_N-99" value="＋　ウィンドウタイトルのゲッタ　＜静的関数＞" style="text;strokeColor=none;fillColor=none;align=left;verticalAlign=middle;spacingLeft=4;spacingRight=4;overflow=hidden;points=[[0,0.5],[1,0.5]];portConstraint=eastwest;rotatable=0;whiteSpace=wrap;html=1;" parent="_BVpVDuyS6NIprukY8_N-92" vertex="1">
          <mxGeometry y="235" width="580" height="30" as="geometry" />
        </mxCell>
        <mxCell id="_BVpVDuyS6NIprukY8_N-100" value="＋　現在の年月日時分秒のゲッタ　＜静的関数＞" style="text;strokeColor=none;fillColor=none;align=left;verticalAlign=middle;spacingLeft=4;spacingRight=4;overflow=hidden;points=[[0,0.5],[1,0.5]];portConstraint=eastwest;rotatable=0;whiteSpace=wrap;html=1;" parent="_BVpVDuyS6NIprukY8_N-92" vertex="1">
          <mxGeometry y="265" width="580" height="30" as="geometry" />
        </mxCell>
        <mxCell id="_BVpVDuyS6NIprukY8_N-101" value="＋　現在のexe起動からのミリ秒単位での経過時間のゲッタ　＜静的関数＞" style="text;strokeColor=none;fillColor=none;align=left;verticalAlign=middle;spacingLeft=4;spacingRight=4;overflow=hidden;points=[[0,0.5],[1,0.5]];portConstraint=eastwest;rotatable=0;whiteSpace=wrap;html=1;" parent="_BVpVDuyS6NIprukY8_N-92" vertex="1">
          <mxGeometry y="295" width="580" height="30" as="geometry" />
        </mxCell>
        <mxCell id="_BVpVDuyS6NIprukY8_N-102" value="＋　ウィンドウタイトルの変更　＜静的関数＞" style="text;strokeColor=none;fillColor=none;align=left;verticalAlign=middle;spacingLeft=4;spacingRight=4;overflow=hidden;points=[[0,0.5],[1,0.5]];portConstraint=eastwest;rotatable=0;whiteSpace=wrap;html=1;" parent="_BVpVDuyS6NIprukY8_N-92" vertex="1">
          <mxGeometry y="325" width="580" height="30" as="geometry" />
        </mxCell>
        <mxCell id="_BVpVDuyS6NIprukY8_N-103" value="＋　メッセージボックスの表示　＜静的関数＞" style="text;strokeColor=none;fillColor=none;align=left;verticalAlign=middle;spacingLeft=4;spacingRight=4;overflow=hidden;points=[[0,0.5],[1,0.5]];portConstraint=eastwest;rotatable=0;whiteSpace=wrap;html=1;" parent="_BVpVDuyS6NIprukY8_N-92" vertex="1">
          <mxGeometry y="355" width="580" height="30" as="geometry" />
        </mxCell>
        <mxCell id="_BVpVDuyS6NIprukY8_N-104" value="" style="endArrow=classic;html=1;rounded=0;exitX=0.5;exitY=1;exitDx=0;exitDy=0;entryX=0.5;entryY=0;entryDx=0;entryDy=0;strokeWidth=8;" parent="_BVpVDuyS6NIprukY8_N-2" source="_BVpVDuyS6NIprukY8_N-90" target="_BVpVDuyS6NIprukY8_N-4" edge="1">
          <mxGeometry width="50" height="50" relative="1" as="geometry">
            <mxPoint x="3255" y="830" as="sourcePoint" />
            <mxPoint x="3515" y="1270" as="targetPoint" />
            <Array as="points" />
          </mxGeometry>
        </mxCell>
        <mxCell id="_BVpVDuyS6NIprukY8_N-105" value="現在の設計評価　：正常" style="swimlane;whiteSpace=wrap;html=1;swimlaneFillColor=default;fontSize=17;" parent="_BVpVDuyS6NIprukY8_N-2" vertex="1">
          <mxGeometry x="3090" y="370" width="460" height="60" as="geometry" />
        </mxCell>
        <mxCell id="_BVpVDuyS6NIprukY8_N-106" value="" style="rounded=0;whiteSpace=wrap;html=1;align=left;verticalAlign=top;" parent="_BVpVDuyS6NIprukY8_N-105" vertex="1">
          <mxGeometry x="10" y="30" width="440" height="30" as="geometry" />
        </mxCell>
        <mxCell id="_BVpVDuyS6NIprukY8_N-107" value="" style="shape=link;html=1;rounded=0;entryX=0;entryY=0.5;entryDx=0;entryDy=0;exitX=1;exitY=0.5;exitDx=0;exitDy=0;" parent="_BVpVDuyS6NIprukY8_N-2" source="_BVpVDuyS6NIprukY8_N-90" target="_BVpVDuyS6NIprukY8_N-105" edge="1">
          <mxGeometry width="100" relative="1" as="geometry">
            <mxPoint x="3030" y="363" as="sourcePoint" />
            <mxPoint x="3165" y="307.5" as="targetPoint" />
          </mxGeometry>
        </mxCell>
        <mxCell id="_BVpVDuyS6NIprukY8_N-108" value="" style="endArrow=classic;html=1;rounded=0;exitX=0.5;exitY=1;exitDx=0;exitDy=0;entryX=0.5;entryY=0;entryDx=0;entryDy=0;strokeWidth=8;" parent="1" source="_BVpVDuyS6NIprukY8_N-1" target="_BVpVDuyS6NIprukY8_N-2" edge="1">
          <mxGeometry width="50" height="50" relative="1" as="geometry">
            <mxPoint x="1940" y="230" as="sourcePoint" />
            <mxPoint x="1941" y="2250" as="targetPoint" />
            <Array as="points" />
          </mxGeometry>
        </mxCell>
      </root>
    </mxGraphModel>
  </diagram>
  <diagram id="UAC1pPKLjXaomb1J3CXk" name="ver.2.0.0">
    <mxGraphModel dx="1434" dy="836" grid="1" gridSize="10" guides="1" tooltips="1" connect="1" arrows="1" fold="1" page="1" pageScale="1" pageWidth="827" pageHeight="1169" math="0" shadow="0">
      <root>
        <mxCell id="0" />
        <mxCell id="1" parent="0" />
        <mxCell id="AN_IjQ9SjAtzLRTBZs15-6" value="上位層&lt;br style=&quot;font-size: 36px;&quot;&gt;レンダリング層やアセット層など" style="rounded=0;whiteSpace=wrap;html=1;fontSize=36;" parent="1" vertex="1">
          <mxGeometry x="1565" y="30" width="990" height="170" as="geometry" />
        </mxCell>
        <mxCell id="AN_IjQ9SjAtzLRTBZs15-7" value="プラットフォーム層　ネームスペース＜OS＞" style="swimlane;whiteSpace=wrap;html=1;swimlaneFillColor=default;" parent="1" vertex="1">
          <mxGeometry x="160" y="340" width="3800" height="3870" as="geometry" />
        </mxCell>
        <mxCell id="4wO1hoSlMN6wJ2fs9qXw-6" value="&lt;p style=&quot;line-height: 100%;&quot;&gt;OS制御用システムの基底クラス　ネームスペース＜OS::BASE＞&lt;/p&gt;" style="swimlane;whiteSpace=wrap;html=1;swimlaneFillColor=default;" parent="AN_IjQ9SjAtzLRTBZs15-7" vertex="1">
          <mxGeometry x="2400" y="2570" width="1300" height="1270" as="geometry" />
        </mxCell>
        <mxCell id="AN_IjQ9SjAtzLRTBZs15-8" value="&lt;p style=&quot;line-height: 100%;&quot;&gt;OS制御システムの基底クラス　C_OS_Management_System_Base&lt;br&gt;&lt;/p&gt;" style="swimlane;whiteSpace=wrap;html=1;swimlaneFillColor=default;" parent="AN_IjQ9SjAtzLRTBZs15-7" vertex="1">
          <mxGeometry x="2461" y="2640" width="560" height="1160" as="geometry" />
        </mxCell>
        <mxCell id="AN_IjQ9SjAtzLRTBZs15-9" value="パラメータ" style="swimlane;fontStyle=0;childLayout=stackLayout;horizontal=1;startSize=25;horizontalStack=0;resizeParent=1;resizeParentMax=0;resizeLast=0;collapsible=1;marginBottom=0;whiteSpace=wrap;html=1;" parent="AN_IjQ9SjAtzLRTBZs15-8" vertex="1">
          <mxGeometry x="10" y="30" width="540" height="265" as="geometry" />
        </mxCell>
        <mxCell id="AN_IjQ9SjAtzLRTBZs15-10" value="ー　ウィンドウのサイズ" style="text;strokeColor=none;fillColor=none;align=left;verticalAlign=middle;spacingLeft=4;spacingRight=4;overflow=hidden;points=[[0,0.5],[1,0.5]];portConstraint=eastwest;rotatable=0;whiteSpace=wrap;html=1;" parent="AN_IjQ9SjAtzLRTBZs15-9" vertex="1">
          <mxGeometry y="25" width="540" height="30" as="geometry" />
        </mxCell>
        <mxCell id="AN_IjQ9SjAtzLRTBZs15-11" value="ー　ウィンドウの位置座標" style="text;strokeColor=none;fillColor=none;align=left;verticalAlign=middle;spacingLeft=4;spacingRight=4;overflow=hidden;points=[[0,0.5],[1,0.5]];portConstraint=eastwest;rotatable=0;whiteSpace=wrap;html=1;" parent="AN_IjQ9SjAtzLRTBZs15-9" vertex="1">
          <mxGeometry y="55" width="540" height="30" as="geometry" />
        </mxCell>
        <mxCell id="AN_IjQ9SjAtzLRTBZs15-12" value="ー　マウスの入力情報" style="text;strokeColor=none;fillColor=none;align=left;verticalAlign=middle;spacingLeft=4;spacingRight=4;overflow=hidden;points=[[0,0.5],[1,0.5]];portConstraint=eastwest;rotatable=0;whiteSpace=wrap;html=1;" parent="AN_IjQ9SjAtzLRTBZs15-9" vertex="1">
          <mxGeometry y="85" width="540" height="30" as="geometry" />
        </mxCell>
        <mxCell id="5RXkAcUY_dp5dEoDGxU0-1" value="ー　ウィンドウタイトル" style="text;strokeColor=none;fillColor=none;align=left;verticalAlign=middle;spacingLeft=4;spacingRight=4;overflow=hidden;points=[[0,0.5],[1,0.5]];portConstraint=eastwest;rotatable=0;whiteSpace=wrap;html=1;" parent="AN_IjQ9SjAtzLRTBZs15-9" vertex="1">
          <mxGeometry y="115" width="540" height="30" as="geometry" />
        </mxCell>
        <mxCell id="4lsep5q1GfsTIuzuscHI-10" value="ー　現在の年月日時分秒" style="text;strokeColor=none;fillColor=none;align=left;verticalAlign=middle;spacingLeft=4;spacingRight=4;overflow=hidden;points=[[0,0.5],[1,0.5]];portConstraint=eastwest;rotatable=0;whiteSpace=wrap;html=1;" parent="AN_IjQ9SjAtzLRTBZs15-9" vertex="1">
          <mxGeometry y="145" width="540" height="30" as="geometry" />
        </mxCell>
        <mxCell id="4lsep5q1GfsTIuzuscHI-11" value="ー　現在のexe起動時からのミリ秒単位での経過時間" style="text;strokeColor=none;fillColor=none;align=left;verticalAlign=middle;spacingLeft=4;spacingRight=4;overflow=hidden;points=[[0,0.5],[1,0.5]];portConstraint=eastwest;rotatable=0;whiteSpace=wrap;html=1;" parent="AN_IjQ9SjAtzLRTBZs15-9" vertex="1">
          <mxGeometry y="175" width="540" height="30" as="geometry" />
        </mxCell>
        <mxCell id="AN_IjQ9SjAtzLRTBZs15-13" value="＝　シングルトン化用の自クラスポインタ　＜静的変数＞" style="text;strokeColor=none;fillColor=none;align=left;verticalAlign=middle;spacingLeft=4;spacingRight=4;overflow=hidden;points=[[0,0.5],[1,0.5]];portConstraint=eastwest;rotatable=0;whiteSpace=wrap;html=1;" parent="AN_IjQ9SjAtzLRTBZs15-9" vertex="1">
          <mxGeometry y="205" width="540" height="30" as="geometry" />
        </mxCell>
        <mxCell id="AN_IjQ9SjAtzLRTBZs15-14" value="＝　OSがアクティブであるかどうかのフラグ　＜静的変数＞" style="text;strokeColor=none;fillColor=none;align=left;verticalAlign=middle;spacingLeft=4;spacingRight=4;overflow=hidden;points=[[0,0.5],[1,0.5]];portConstraint=eastwest;rotatable=0;whiteSpace=wrap;html=1;" parent="AN_IjQ9SjAtzLRTBZs15-9" vertex="1">
          <mxGeometry y="235" width="540" height="30" as="geometry" />
        </mxCell>
        <mxCell id="AN_IjQ9SjAtzLRTBZs15-15" value="メゾッド" style="swimlane;fontStyle=0;childLayout=stackLayout;horizontal=1;startSize=25;horizontalStack=0;resizeParent=1;resizeParentMax=0;resizeLast=0;collapsible=1;marginBottom=0;whiteSpace=wrap;html=1;" parent="AN_IjQ9SjAtzLRTBZs15-8" vertex="1">
          <mxGeometry x="10" y="310" width="540" height="835" as="geometry" />
        </mxCell>
        <mxCell id="5RXkAcUY_dp5dEoDGxU0-2" value="＝　ウィンドウタイトルのセッタ" style="text;strokeColor=none;fillColor=none;align=left;verticalAlign=middle;spacingLeft=4;spacingRight=4;overflow=hidden;points=[[0,0.5],[1,0.5]];portConstraint=eastwest;rotatable=0;whiteSpace=wrap;html=1;" parent="AN_IjQ9SjAtzLRTBZs15-15" vertex="1">
          <mxGeometry y="25" width="540" height="30" as="geometry" />
        </mxCell>
        <mxCell id="Dkf14J60W0tzW-mejW8Q-1" value="＝　現在の年月日時分秒のセッタ" style="text;strokeColor=none;fillColor=none;align=left;verticalAlign=middle;spacingLeft=4;spacingRight=4;overflow=hidden;points=[[0,0.5],[1,0.5]];portConstraint=eastwest;rotatable=0;whiteSpace=wrap;html=1;" parent="AN_IjQ9SjAtzLRTBZs15-15" vertex="1">
          <mxGeometry y="55" width="540" height="30" as="geometry" />
        </mxCell>
        <mxCell id="4wO1hoSlMN6wJ2fs9qXw-2" value="＝　現在のexe起動時からのミリ秒単位での経過時間のセッタ" style="text;strokeColor=none;fillColor=none;align=left;verticalAlign=middle;spacingLeft=4;spacingRight=4;overflow=hidden;points=[[0,0.5],[1,0.5]];portConstraint=eastwest;rotatable=0;whiteSpace=wrap;html=1;" parent="AN_IjQ9SjAtzLRTBZs15-15" vertex="1">
          <mxGeometry y="85" width="540" height="30" as="geometry" />
        </mxCell>
        <mxCell id="AN_IjQ9SjAtzLRTBZs15-16" value="＋　コンストラクタ" style="text;strokeColor=none;fillColor=none;align=left;verticalAlign=middle;spacingLeft=4;spacingRight=4;overflow=hidden;points=[[0,0.5],[1,0.5]];portConstraint=eastwest;rotatable=0;whiteSpace=wrap;html=1;" parent="AN_IjQ9SjAtzLRTBZs15-15" vertex="1">
          <mxGeometry y="115" width="540" height="30" as="geometry" />
        </mxCell>
        <mxCell id="AN_IjQ9SjAtzLRTBZs15-17" value="＋　OSの初期化　＜純粋仮想関数＞" style="text;strokeColor=none;fillColor=none;align=left;verticalAlign=middle;spacingLeft=4;spacingRight=4;overflow=hidden;points=[[0,0.5],[1,0.5]];portConstraint=eastwest;rotatable=0;whiteSpace=wrap;html=1;" parent="AN_IjQ9SjAtzLRTBZs15-15" vertex="1">
          <mxGeometry y="145" width="540" height="30" as="geometry" />
        </mxCell>
        <mxCell id="AN_IjQ9SjAtzLRTBZs15-18" value="＋　メモリの解放処理　＜純粋仮想関数＞" style="text;strokeColor=none;fillColor=none;align=left;verticalAlign=middle;spacingLeft=4;spacingRight=4;overflow=hidden;points=[[0,0.5],[1,0.5]];portConstraint=eastwest;rotatable=0;whiteSpace=wrap;html=1;" parent="AN_IjQ9SjAtzLRTBZs15-15" vertex="1">
          <mxGeometry y="175" width="540" height="30" as="geometry" />
        </mxCell>
        <mxCell id="AN_IjQ9SjAtzLRTBZs15-19" value="＋　OSシステムの削除　＜静的関数＞" style="text;strokeColor=none;fillColor=none;align=left;verticalAlign=middle;spacingLeft=4;spacingRight=4;overflow=hidden;points=[[0,0.5],[1,0.5]];portConstraint=eastwest;rotatable=0;whiteSpace=wrap;html=1;" parent="AN_IjQ9SjAtzLRTBZs15-15" vertex="1">
          <mxGeometry y="205" width="540" height="30" as="geometry" />
        </mxCell>
        <mxCell id="AN_IjQ9SjAtzLRTBZs15-20" value="＋　デストラクタ　＜仮想関数＞" style="text;strokeColor=none;fillColor=none;align=left;verticalAlign=middle;spacingLeft=4;spacingRight=4;overflow=hidden;points=[[0,0.5],[1,0.5]];portConstraint=eastwest;rotatable=0;whiteSpace=wrap;html=1;" parent="AN_IjQ9SjAtzLRTBZs15-15" vertex="1">
          <mxGeometry y="235" width="540" height="30" as="geometry" />
        </mxCell>
        <mxCell id="AN_IjQ9SjAtzLRTBZs15-21" value="＋　OSの更新処理　＜純粋仮想関数＞" style="text;strokeColor=none;fillColor=none;align=left;verticalAlign=middle;spacingLeft=4;spacingRight=4;overflow=hidden;points=[[0,0.5],[1,0.5]];portConstraint=eastwest;rotatable=0;whiteSpace=wrap;html=1;" parent="AN_IjQ9SjAtzLRTBZs15-15" vertex="1">
          <mxGeometry y="265" width="540" height="30" as="geometry" />
        </mxCell>
        <mxCell id="AN_IjQ9SjAtzLRTBZs15-22" value="＋　ウィンドウサイズの更新処理　＜純粋仮想関数＞" style="text;strokeColor=none;fillColor=none;align=left;verticalAlign=middle;spacingLeft=4;spacingRight=4;overflow=hidden;points=[[0,0.5],[1,0.5]];portConstraint=eastwest;rotatable=0;whiteSpace=wrap;html=1;" parent="AN_IjQ9SjAtzLRTBZs15-15" vertex="1">
          <mxGeometry y="295" width="540" height="30" as="geometry" />
        </mxCell>
        <mxCell id="AN_IjQ9SjAtzLRTBZs15-23" value="＋　マウス座標のセッタ" style="text;strokeColor=none;fillColor=none;align=left;verticalAlign=middle;spacingLeft=4;spacingRight=4;overflow=hidden;points=[[0,0.5],[1,0.5]];portConstraint=eastwest;rotatable=0;whiteSpace=wrap;html=1;" parent="AN_IjQ9SjAtzLRTBZs15-15" vertex="1">
          <mxGeometry y="325" width="540" height="30" as="geometry" />
        </mxCell>
        <mxCell id="AN_IjQ9SjAtzLRTBZs15-24" value="＋　ウィンドウサイズのセッタ" style="text;strokeColor=none;fillColor=none;align=left;verticalAlign=middle;spacingLeft=4;spacingRight=4;overflow=hidden;points=[[0,0.5],[1,0.5]];portConstraint=eastwest;rotatable=0;whiteSpace=wrap;html=1;" parent="AN_IjQ9SjAtzLRTBZs15-15" vertex="1">
          <mxGeometry y="355" width="540" height="30" as="geometry" />
        </mxCell>
        <mxCell id="AN_IjQ9SjAtzLRTBZs15-25" value="＋　ウィンドウ座標のセッタ" style="text;strokeColor=none;fillColor=none;align=left;verticalAlign=middle;spacingLeft=4;spacingRight=4;overflow=hidden;points=[[0,0.5],[1,0.5]];portConstraint=eastwest;rotatable=0;whiteSpace=wrap;html=1;" parent="AN_IjQ9SjAtzLRTBZs15-15" vertex="1">
          <mxGeometry y="385" width="540" height="30" as="geometry" />
        </mxCell>
        <mxCell id="AN_IjQ9SjAtzLRTBZs15-26" value="＋　マウス左クリックフラグのセッタ" style="text;strokeColor=none;fillColor=none;align=left;verticalAlign=middle;spacingLeft=4;spacingRight=4;overflow=hidden;points=[[0,0.5],[1,0.5]];portConstraint=eastwest;rotatable=0;whiteSpace=wrap;html=1;" parent="AN_IjQ9SjAtzLRTBZs15-15" vertex="1">
          <mxGeometry y="415" width="540" height="30" as="geometry" />
        </mxCell>
        <mxCell id="AN_IjQ9SjAtzLRTBZs15-27" value="＋　マウス右クリックフラグのセッタ" style="text;strokeColor=none;fillColor=none;align=left;verticalAlign=middle;spacingLeft=4;spacingRight=4;overflow=hidden;points=[[0,0.5],[1,0.5]];portConstraint=eastwest;rotatable=0;whiteSpace=wrap;html=1;" parent="AN_IjQ9SjAtzLRTBZs15-15" vertex="1">
          <mxGeometry y="445" width="540" height="30" as="geometry" />
        </mxCell>
        <mxCell id="AN_IjQ9SjAtzLRTBZs15-28" value="＋　マウス中クリックフラグのセッタ" style="text;strokeColor=none;fillColor=none;align=left;verticalAlign=middle;spacingLeft=4;spacingRight=4;overflow=hidden;points=[[0,0.5],[1,0.5]];portConstraint=eastwest;rotatable=0;whiteSpace=wrap;html=1;" parent="AN_IjQ9SjAtzLRTBZs15-15" vertex="1">
          <mxGeometry y="475" width="540" height="30" as="geometry" />
        </mxCell>
        <mxCell id="AN_IjQ9SjAtzLRTBZs15-29" value="＋　自クラスのシングルトンインスタンスのアドレスのゲッタ　＜静的関数＞" style="text;strokeColor=none;fillColor=none;align=left;verticalAlign=middle;spacingLeft=4;spacingRight=4;overflow=hidden;points=[[0,0.5],[1,0.5]];portConstraint=eastwest;rotatable=0;whiteSpace=wrap;html=1;" parent="AN_IjQ9SjAtzLRTBZs15-15" vertex="1">
          <mxGeometry y="505" width="540" height="30" as="geometry" />
        </mxCell>
        <mxCell id="AN_IjQ9SjAtzLRTBZs15-30" value="＋　OSがアクティブであるかどうかのフラグのゲッタ　＜静的関数＞" style="text;strokeColor=none;fillColor=none;align=left;verticalAlign=middle;spacingLeft=4;spacingRight=4;overflow=hidden;points=[[0,0.5],[1,0.5]];portConstraint=eastwest;rotatable=0;whiteSpace=wrap;html=1;" parent="AN_IjQ9SjAtzLRTBZs15-15" vertex="1">
          <mxGeometry y="535" width="540" height="30" as="geometry" />
        </mxCell>
        <mxCell id="AN_IjQ9SjAtzLRTBZs15-31" value="＋　ウィンドウのサイズのゲッタ　＜const関数＞" style="text;strokeColor=none;fillColor=none;align=left;verticalAlign=middle;spacingLeft=4;spacingRight=4;overflow=hidden;points=[[0,0.5],[1,0.5]];portConstraint=eastwest;rotatable=0;whiteSpace=wrap;html=1;" parent="AN_IjQ9SjAtzLRTBZs15-15" vertex="1">
          <mxGeometry y="565" width="540" height="30" as="geometry" />
        </mxCell>
        <mxCell id="AN_IjQ9SjAtzLRTBZs15-32" value="＋　ウィンドウのアスペクト比のゲッタ　＜const関数＞" style="text;strokeColor=none;fillColor=none;align=left;verticalAlign=middle;spacingLeft=4;spacingRight=4;overflow=hidden;points=[[0,0.5],[1,0.5]];portConstraint=eastwest;rotatable=0;whiteSpace=wrap;html=1;" parent="AN_IjQ9SjAtzLRTBZs15-15" vertex="1">
          <mxGeometry y="595" width="540" height="30" as="geometry" />
        </mxCell>
        <mxCell id="AN_IjQ9SjAtzLRTBZs15-33" value="＋　ウィンドウの座標のゲッタ　＜const関数＞" style="text;strokeColor=none;fillColor=none;align=left;verticalAlign=middle;spacingLeft=4;spacingRight=4;overflow=hidden;points=[[0,0.5],[1,0.5]];portConstraint=eastwest;rotatable=0;whiteSpace=wrap;html=1;" parent="AN_IjQ9SjAtzLRTBZs15-15" vertex="1">
          <mxGeometry y="625" width="540" height="30" as="geometry" />
        </mxCell>
        <mxCell id="AN_IjQ9SjAtzLRTBZs15-34" value="＋　マウス情報のゲッタ　＜const関数＞" style="text;strokeColor=none;fillColor=none;align=left;verticalAlign=middle;spacingLeft=4;spacingRight=4;overflow=hidden;points=[[0,0.5],[1,0.5]];portConstraint=eastwest;rotatable=0;whiteSpace=wrap;html=1;" parent="AN_IjQ9SjAtzLRTBZs15-15" vertex="1">
          <mxGeometry y="655" width="540" height="30" as="geometry" />
        </mxCell>
        <mxCell id="5RXkAcUY_dp5dEoDGxU0-3" value="＋　ウィンドウタイトルのゲッタ　＜const関数＞" style="text;strokeColor=none;fillColor=none;align=left;verticalAlign=middle;spacingLeft=4;spacingRight=4;overflow=hidden;points=[[0,0.5],[1,0.5]];portConstraint=eastwest;rotatable=0;whiteSpace=wrap;html=1;" parent="AN_IjQ9SjAtzLRTBZs15-15" vertex="1">
          <mxGeometry y="685" width="540" height="30" as="geometry" />
        </mxCell>
        <mxCell id="AN_IjQ9SjAtzLRTBZs15-35" value="＋　現在の年月日時分秒のゲッタ　＜const関数＞" style="text;strokeColor=none;fillColor=none;align=left;verticalAlign=middle;spacingLeft=4;spacingRight=4;overflow=hidden;points=[[0,0.5],[1,0.5]];portConstraint=eastwest;rotatable=0;whiteSpace=wrap;html=1;" parent="AN_IjQ9SjAtzLRTBZs15-15" vertex="1">
          <mxGeometry y="715" width="540" height="30" as="geometry" />
        </mxCell>
        <mxCell id="AN_IjQ9SjAtzLRTBZs15-36" value="＋　現在のexe起動からのミリ秒単位での経過時間のゲッタ　＜const関数＞" style="text;strokeColor=none;fillColor=none;align=left;verticalAlign=middle;spacingLeft=4;spacingRight=4;overflow=hidden;points=[[0,0.5],[1,0.5]];portConstraint=eastwest;rotatable=0;whiteSpace=wrap;html=1;" parent="AN_IjQ9SjAtzLRTBZs15-15" vertex="1">
          <mxGeometry y="745" width="540" height="30" as="geometry" />
        </mxCell>
        <mxCell id="AN_IjQ9SjAtzLRTBZs15-37" value="＋　ウィンドウタイトルの変更　＜純粋仮想関数＞" style="text;strokeColor=none;fillColor=none;align=left;verticalAlign=middle;spacingLeft=4;spacingRight=4;overflow=hidden;points=[[0,0.5],[1,0.5]];portConstraint=eastwest;rotatable=0;whiteSpace=wrap;html=1;" parent="AN_IjQ9SjAtzLRTBZs15-15" vertex="1">
          <mxGeometry y="775" width="540" height="30" as="geometry" />
        </mxCell>
        <mxCell id="AN_IjQ9SjAtzLRTBZs15-38" value="＋　メッセージボックスの表示　＜純粋仮想関数＞" style="text;strokeColor=none;fillColor=none;align=left;verticalAlign=middle;spacingLeft=4;spacingRight=4;overflow=hidden;points=[[0,0.5],[1,0.5]];portConstraint=eastwest;rotatable=0;whiteSpace=wrap;html=1;" parent="AN_IjQ9SjAtzLRTBZs15-15" vertex="1">
          <mxGeometry y="805" width="540" height="30" as="geometry" />
        </mxCell>
        <mxCell id="AN_IjQ9SjAtzLRTBZs15-39" value="現在の設計評価　：正常" style="swimlane;whiteSpace=wrap;html=1;swimlaneFillColor=default;fontSize=17;" parent="AN_IjQ9SjAtzLRTBZs15-7" vertex="1">
          <mxGeometry x="3120" y="3200" width="460" height="40" as="geometry" />
        </mxCell>
        <mxCell id="AN_IjQ9SjAtzLRTBZs15-40" value="" style="rounded=0;whiteSpace=wrap;html=1;align=left;verticalAlign=top;" parent="AN_IjQ9SjAtzLRTBZs15-39" vertex="1">
          <mxGeometry x="10" y="30" width="440" height="10" as="geometry" />
        </mxCell>
        <mxCell id="AN_IjQ9SjAtzLRTBZs15-41" value="" style="shape=link;html=1;rounded=0;entryX=0;entryY=0.5;entryDx=0;entryDy=0;exitX=1;exitY=0.5;exitDx=0;exitDy=0;" parent="AN_IjQ9SjAtzLRTBZs15-7" source="AN_IjQ9SjAtzLRTBZs15-8" target="AN_IjQ9SjAtzLRTBZs15-39" edge="1">
          <mxGeometry width="100" relative="1" as="geometry">
            <mxPoint x="3045" y="1820" as="sourcePoint" />
            <mxPoint x="3145" y="1820" as="targetPoint" />
          </mxGeometry>
        </mxCell>
        <mxCell id="AN_IjQ9SjAtzLRTBZs15-42" value="ウィンドウズOS層　ネームスペース＜OS::WINDOWS＞" style="swimlane;whiteSpace=wrap;html=1;" parent="AN_IjQ9SjAtzLRTBZs15-7" vertex="1">
          <mxGeometry x="60" y="860" width="2460" height="1490" as="geometry" />
        </mxCell>
        <mxCell id="AN_IjQ9SjAtzLRTBZs15-43" value="&lt;p style=&quot;line-height: 100%;&quot;&gt;ウィンドウズOS制御用システム　C_Windows_OS_Management_System　基底クラス&amp;lt;C_OS_System_Base&amp;gt;&lt;/p&gt;" style="swimlane;whiteSpace=wrap;html=1;swimlaneFillColor=default;" parent="AN_IjQ9SjAtzLRTBZs15-42" vertex="1">
          <mxGeometry x="60" y="55" width="650" height="625" as="geometry" />
        </mxCell>
        <mxCell id="AN_IjQ9SjAtzLRTBZs15-44" value="パラメータ" style="swimlane;fontStyle=0;childLayout=stackLayout;horizontal=1;startSize=25;horizontalStack=0;resizeParent=1;resizeParentMax=0;resizeLast=0;collapsible=1;marginBottom=0;whiteSpace=wrap;html=1;" parent="AN_IjQ9SjAtzLRTBZs15-43" vertex="1">
          <mxGeometry x="10" y="30" width="600" height="115" as="geometry" />
        </mxCell>
        <mxCell id="AN_IjQ9SjAtzLRTBZs15-45" value="ー　自ウィンドウのハンドル" style="text;strokeColor=none;fillColor=none;align=left;verticalAlign=middle;spacingLeft=4;spacingRight=4;overflow=hidden;points=[[0,0.5],[1,0.5]];portConstraint=eastwest;rotatable=0;whiteSpace=wrap;html=1;" parent="AN_IjQ9SjAtzLRTBZs15-44" vertex="1">
          <mxGeometry y="25" width="600" height="30" as="geometry" />
        </mxCell>
        <mxCell id="AN_IjQ9SjAtzLRTBZs15-46" value="ー　ウィンドウの処理を取得するためのメッセージパラメータ" style="text;strokeColor=none;fillColor=none;align=left;verticalAlign=middle;spacingLeft=4;spacingRight=4;overflow=hidden;points=[[0,0.5],[1,0.5]];portConstraint=eastwest;rotatable=0;whiteSpace=wrap;html=1;" parent="AN_IjQ9SjAtzLRTBZs15-44" vertex="1">
          <mxGeometry y="55" width="600" height="30" as="geometry" />
        </mxCell>
        <mxCell id="AN_IjQ9SjAtzLRTBZs15-47" value="ー　ウィンドウ操作用のコマンド番号" style="text;strokeColor=none;fillColor=none;align=left;verticalAlign=middle;spacingLeft=4;spacingRight=4;overflow=hidden;points=[[0,0.5],[1,0.5]];portConstraint=eastwest;rotatable=0;whiteSpace=wrap;html=1;" parent="AN_IjQ9SjAtzLRTBZs15-44" vertex="1">
          <mxGeometry y="85" width="600" height="30" as="geometry" />
        </mxCell>
        <mxCell id="AN_IjQ9SjAtzLRTBZs15-48" value="メゾッド" style="swimlane;fontStyle=0;childLayout=stackLayout;horizontal=1;startSize=25;horizontalStack=0;resizeParent=1;resizeParentMax=0;resizeLast=0;collapsible=1;marginBottom=0;whiteSpace=wrap;html=1;" parent="AN_IjQ9SjAtzLRTBZs15-43" vertex="1">
          <mxGeometry x="10" y="155" width="600" height="445" as="geometry" />
        </mxCell>
        <mxCell id="AN_IjQ9SjAtzLRTBZs15-49" value="ー　コンストラクタ" style="text;strokeColor=none;fillColor=none;align=left;verticalAlign=middle;spacingLeft=4;spacingRight=4;overflow=hidden;points=[[0,0.5],[1,0.5]];portConstraint=eastwest;rotatable=0;whiteSpace=wrap;html=1;" parent="AN_IjQ9SjAtzLRTBZs15-48" vertex="1">
          <mxGeometry y="25" width="600" height="30" as="geometry" />
        </mxCell>
        <mxCell id="AN_IjQ9SjAtzLRTBZs15-50" value="ー　ウィンドウ生成処理" style="text;strokeColor=none;fillColor=none;align=left;verticalAlign=middle;spacingLeft=4;spacingRight=4;overflow=hidden;points=[[0,0.5],[1,0.5]];portConstraint=eastwest;rotatable=0;whiteSpace=wrap;html=1;" parent="AN_IjQ9SjAtzLRTBZs15-48" vertex="1">
          <mxGeometry y="55" width="600" height="30" as="geometry" />
        </mxCell>
        <mxCell id="AN_IjQ9SjAtzLRTBZs15-51" value="ー　マウス入力の更新処理" style="text;strokeColor=none;fillColor=none;align=left;verticalAlign=middle;spacingLeft=4;spacingRight=4;overflow=hidden;points=[[0,0.5],[1,0.5]];portConstraint=eastwest;rotatable=0;whiteSpace=wrap;html=1;" parent="AN_IjQ9SjAtzLRTBZs15-48" vertex="1">
          <mxGeometry y="85" width="600" height="30" as="geometry" />
        </mxCell>
        <mxCell id="RmfzD_DcgQo4E3nXE32q-2" value="ー　時間の更新" style="text;strokeColor=none;fillColor=none;align=left;verticalAlign=middle;spacingLeft=4;spacingRight=4;overflow=hidden;points=[[0,0.5],[1,0.5]];portConstraint=eastwest;rotatable=0;whiteSpace=wrap;html=1;" parent="AN_IjQ9SjAtzLRTBZs15-48" vertex="1">
          <mxGeometry y="115" width="600" height="30" as="geometry" />
        </mxCell>
        <mxCell id="AN_IjQ9SjAtzLRTBZs15-52" value="＋　ウィンドウズ制御用システム生成処理（シングルトンインスタンス生成）　＜静的関数＞" style="text;strokeColor=none;fillColor=none;align=left;verticalAlign=middle;spacingLeft=4;spacingRight=4;overflow=hidden;points=[[0,0.5],[1,0.5]];portConstraint=eastwest;rotatable=0;whiteSpace=wrap;html=1;" parent="AN_IjQ9SjAtzLRTBZs15-48" vertex="1">
          <mxGeometry y="145" width="600" height="30" as="geometry" />
        </mxCell>
        <mxCell id="AN_IjQ9SjAtzLRTBZs15-53" value="＋　ウィンドウズ機能の初期化処理　＜継承関数＞" style="text;strokeColor=none;fillColor=none;align=left;verticalAlign=middle;spacingLeft=4;spacingRight=4;overflow=hidden;points=[[0,0.5],[1,0.5]];portConstraint=eastwest;rotatable=0;whiteSpace=wrap;html=1;" parent="AN_IjQ9SjAtzLRTBZs15-48" vertex="1">
          <mxGeometry y="175" width="600" height="30" as="geometry" />
        </mxCell>
        <mxCell id="AN_IjQ9SjAtzLRTBZs15-54" value="＋　デストラクタ　＜継承関数＞" style="text;strokeColor=none;fillColor=none;align=left;verticalAlign=middle;spacingLeft=4;spacingRight=4;overflow=hidden;points=[[0,0.5],[1,0.5]];portConstraint=eastwest;rotatable=0;whiteSpace=wrap;html=1;" parent="AN_IjQ9SjAtzLRTBZs15-48" vertex="1">
          <mxGeometry y="205" width="600" height="30" as="geometry" />
        </mxCell>
        <mxCell id="AN_IjQ9SjAtzLRTBZs15-55" value="＋　メモリの解放処理　＜継承関数＞" style="text;strokeColor=none;fillColor=none;align=left;verticalAlign=middle;spacingLeft=4;spacingRight=4;overflow=hidden;points=[[0,0.5],[1,0.5]];portConstraint=eastwest;rotatable=0;whiteSpace=wrap;html=1;" parent="AN_IjQ9SjAtzLRTBZs15-48" vertex="1">
          <mxGeometry y="235" width="600" height="30" as="geometry" />
        </mxCell>
        <mxCell id="AN_IjQ9SjAtzLRTBZs15-56" value="＋　ウィンドウの更新処理　＜継承関数＞" style="text;strokeColor=none;fillColor=none;align=left;verticalAlign=middle;spacingLeft=4;spacingRight=4;overflow=hidden;points=[[0,0.5],[1,0.5]];portConstraint=eastwest;rotatable=0;whiteSpace=wrap;html=1;" parent="AN_IjQ9SjAtzLRTBZs15-48" vertex="1">
          <mxGeometry y="265" width="600" height="30" as="geometry" />
        </mxCell>
        <mxCell id="AN_IjQ9SjAtzLRTBZs15-57" value="＋　ウィンドウのサイズの更新処理　＜継承関数＞" style="text;strokeColor=none;fillColor=none;align=left;verticalAlign=middle;spacingLeft=4;spacingRight=4;overflow=hidden;points=[[0,0.5],[1,0.5]];portConstraint=eastwest;rotatable=0;whiteSpace=wrap;html=1;" parent="AN_IjQ9SjAtzLRTBZs15-48" vertex="1">
          <mxGeometry y="295" width="600" height="30" as="geometry" />
        </mxCell>
        <mxCell id="AN_IjQ9SjAtzLRTBZs15-58" value="＋　ウィンドウ操作用のコマンド番号のセッタ　＜静的関数＞" style="text;strokeColor=none;fillColor=none;align=left;verticalAlign=middle;spacingLeft=4;spacingRight=4;overflow=hidden;points=[[0,0.5],[1,0.5]];portConstraint=eastwest;rotatable=0;whiteSpace=wrap;html=1;" parent="AN_IjQ9SjAtzLRTBZs15-48" vertex="1">
          <mxGeometry y="325" width="600" height="30" as="geometry" />
        </mxCell>
        <mxCell id="AN_IjQ9SjAtzLRTBZs15-59" value="＋　自ウィンドウのハンドルのゲッタ　＜静的関数＞" style="text;strokeColor=none;fillColor=none;align=left;verticalAlign=middle;spacingLeft=4;spacingRight=4;overflow=hidden;points=[[0,0.5],[1,0.5]];portConstraint=eastwest;rotatable=0;whiteSpace=wrap;html=1;" parent="AN_IjQ9SjAtzLRTBZs15-48" vertex="1">
          <mxGeometry y="355" width="600" height="30" as="geometry" />
        </mxCell>
        <mxCell id="AN_IjQ9SjAtzLRTBZs15-62" value="＋　ウィンドウタイトルの変更　＜継承関数＞" style="text;strokeColor=none;fillColor=none;align=left;verticalAlign=middle;spacingLeft=4;spacingRight=4;overflow=hidden;points=[[0,0.5],[1,0.5]];portConstraint=eastwest;rotatable=0;whiteSpace=wrap;html=1;" parent="AN_IjQ9SjAtzLRTBZs15-48" vertex="1">
          <mxGeometry y="385" width="600" height="30" as="geometry" />
        </mxCell>
        <mxCell id="AN_IjQ9SjAtzLRTBZs15-63" value="＋　メッセージボックスの表示　＜継承関数＞" style="text;strokeColor=none;fillColor=none;align=left;verticalAlign=middle;spacingLeft=4;spacingRight=4;overflow=hidden;points=[[0,0.5],[1,0.5]];portConstraint=eastwest;rotatable=0;whiteSpace=wrap;html=1;" parent="AN_IjQ9SjAtzLRTBZs15-48" vertex="1">
          <mxGeometry y="415" width="600" height="30" as="geometry" />
        </mxCell>
        <mxCell id="AN_IjQ9SjAtzLRTBZs15-64" value="&lt;p style=&quot;line-height: 100%;&quot;&gt;ウィンドウプロシージャ関数制御システム　C_Wnd_Proc_Manager&lt;/p&gt;" style="swimlane;whiteSpace=wrap;html=1;swimlaneFillColor=default;" parent="AN_IjQ9SjAtzLRTBZs15-42" vertex="1">
          <mxGeometry x="490" y="1150" width="620" height="220" as="geometry" />
        </mxCell>
        <mxCell id="AN_IjQ9SjAtzLRTBZs15-65" value="パラメータ" style="swimlane;fontStyle=0;childLayout=stackLayout;horizontal=1;startSize=25;horizontalStack=0;resizeParent=1;resizeParentMax=0;resizeLast=0;collapsible=1;marginBottom=0;whiteSpace=wrap;html=1;" parent="AN_IjQ9SjAtzLRTBZs15-64" vertex="1">
          <mxGeometry x="10" y="30" width="600" height="55" as="geometry" />
        </mxCell>
        <mxCell id="AN_IjQ9SjAtzLRTBZs15-66" value="ー　ゲーム用のウィンドウプロシージャのアドレス" style="text;strokeColor=none;fillColor=none;align=left;verticalAlign=middle;spacingLeft=4;spacingRight=4;overflow=hidden;points=[[0,0.5],[1,0.5]];portConstraint=eastwest;rotatable=0;whiteSpace=wrap;html=1;" parent="AN_IjQ9SjAtzLRTBZs15-65" vertex="1">
          <mxGeometry y="25" width="600" height="30" as="geometry" />
        </mxCell>
        <mxCell id="AN_IjQ9SjAtzLRTBZs15-67" value="メゾッド" style="swimlane;fontStyle=0;childLayout=stackLayout;horizontal=1;startSize=25;horizontalStack=0;resizeParent=1;resizeParentMax=0;resizeLast=0;collapsible=1;marginBottom=0;whiteSpace=wrap;html=1;" parent="AN_IjQ9SjAtzLRTBZs15-64" vertex="1">
          <mxGeometry x="10" y="110" width="600" height="85" as="geometry" />
        </mxCell>
        <mxCell id="AN_IjQ9SjAtzLRTBZs15-68" value="＋　ゲーム用のウィンドウプロシージャのセッタ" style="text;strokeColor=none;fillColor=none;align=left;verticalAlign=middle;spacingLeft=4;spacingRight=4;overflow=hidden;points=[[0,0.5],[1,0.5]];portConstraint=eastwest;rotatable=0;whiteSpace=wrap;html=1;" parent="AN_IjQ9SjAtzLRTBZs15-67" vertex="1">
          <mxGeometry y="25" width="600" height="30" as="geometry" />
        </mxCell>
        <mxCell id="AN_IjQ9SjAtzLRTBZs15-69" value="＋　ゲーム用のウィンドウプロシージャのゲッタ" style="text;strokeColor=none;fillColor=none;align=left;verticalAlign=middle;spacingLeft=4;spacingRight=4;overflow=hidden;points=[[0,0.5],[1,0.5]];portConstraint=eastwest;rotatable=0;whiteSpace=wrap;html=1;" parent="AN_IjQ9SjAtzLRTBZs15-67" vertex="1">
          <mxGeometry y="55" width="600" height="30" as="geometry" />
        </mxCell>
        <mxCell id="AN_IjQ9SjAtzLRTBZs15-70" value="" style="endArrow=classic;html=1;rounded=0;exitX=0.5;exitY=1;exitDx=0;exitDy=0;entryX=0.25;entryY=0;entryDx=0;entryDy=0;strokeWidth=8;" parent="AN_IjQ9SjAtzLRTBZs15-42" source="AN_IjQ9SjAtzLRTBZs15-43" target="AN_IjQ9SjAtzLRTBZs15-64" edge="1">
          <mxGeometry width="50" height="50" relative="1" as="geometry">
            <mxPoint x="550" y="930" as="sourcePoint" />
            <mxPoint x="600" y="880" as="targetPoint" />
            <Array as="points">
              <mxPoint x="390" y="930" />
              <mxPoint x="645" y="930" />
            </Array>
          </mxGeometry>
        </mxCell>
        <mxCell id="AN_IjQ9SjAtzLRTBZs15-71" value="&lt;p style=&quot;line-height: 100%;&quot;&gt;ゲーム用ウィンドウプロシージャ管理クラス　C_Wnd_Proc_For_Game_APK&lt;/p&gt;" style="swimlane;whiteSpace=wrap;html=1;swimlaneFillColor=default;" parent="AN_IjQ9SjAtzLRTBZs15-42" vertex="1">
          <mxGeometry x="1290" y="240" width="620" height="220" as="geometry" />
        </mxCell>
        <mxCell id="AN_IjQ9SjAtzLRTBZs15-72" value="パラメータ" style="swimlane;fontStyle=0;childLayout=stackLayout;horizontal=1;startSize=25;horizontalStack=0;resizeParent=1;resizeParentMax=0;resizeLast=0;collapsible=1;marginBottom=0;whiteSpace=wrap;html=1;" parent="AN_IjQ9SjAtzLRTBZs15-71" vertex="1">
          <mxGeometry x="10" y="30" width="600" height="55" as="geometry" />
        </mxCell>
        <mxCell id="AN_IjQ9SjAtzLRTBZs15-73" value="ー　シングルトン化用の自クラスのインスタンス" style="text;strokeColor=none;fillColor=none;align=left;verticalAlign=middle;spacingLeft=4;spacingRight=4;overflow=hidden;points=[[0,0.5],[1,0.5]];portConstraint=eastwest;rotatable=0;whiteSpace=wrap;html=1;" parent="AN_IjQ9SjAtzLRTBZs15-72" vertex="1">
          <mxGeometry y="25" width="600" height="30" as="geometry" />
        </mxCell>
        <mxCell id="AN_IjQ9SjAtzLRTBZs15-74" value="メゾッド" style="swimlane;fontStyle=0;childLayout=stackLayout;horizontal=1;startSize=25;horizontalStack=0;resizeParent=1;resizeParentMax=0;resizeLast=0;collapsible=1;marginBottom=0;whiteSpace=wrap;html=1;" parent="AN_IjQ9SjAtzLRTBZs15-71" vertex="1">
          <mxGeometry x="10" y="110" width="600" height="85" as="geometry" />
        </mxCell>
        <mxCell id="AN_IjQ9SjAtzLRTBZs15-75" value="ー　コンストラクタ、ウィンドウプロシージャ関数を制御システムにセットする" style="text;strokeColor=none;fillColor=none;align=left;verticalAlign=middle;spacingLeft=4;spacingRight=4;overflow=hidden;points=[[0,0.5],[1,0.5]];portConstraint=eastwest;rotatable=0;whiteSpace=wrap;html=1;" parent="AN_IjQ9SjAtzLRTBZs15-74" vertex="1">
          <mxGeometry y="25" width="600" height="30" as="geometry" />
        </mxCell>
        <mxCell id="AN_IjQ9SjAtzLRTBZs15-76" value="＋　ゲーム用のウィンドウプロシージャ関数" style="text;strokeColor=none;fillColor=none;align=left;verticalAlign=middle;spacingLeft=4;spacingRight=4;overflow=hidden;points=[[0,0.5],[1,0.5]];portConstraint=eastwest;rotatable=0;whiteSpace=wrap;html=1;" parent="AN_IjQ9SjAtzLRTBZs15-74" vertex="1">
          <mxGeometry y="55" width="600" height="30" as="geometry" />
        </mxCell>
        <mxCell id="AN_IjQ9SjAtzLRTBZs15-77" value="現在の設計評価　：正常" style="swimlane;whiteSpace=wrap;html=1;swimlaneFillColor=default;fontSize=17;" parent="AN_IjQ9SjAtzLRTBZs15-42" vertex="1">
          <mxGeometry x="1990" y="325" width="460" height="50" as="geometry" />
        </mxCell>
        <mxCell id="AN_IjQ9SjAtzLRTBZs15-78" value="" style="rounded=0;whiteSpace=wrap;html=1;align=left;verticalAlign=top;" parent="AN_IjQ9SjAtzLRTBZs15-77" vertex="1">
          <mxGeometry x="10" y="30" width="440" height="20" as="geometry" />
        </mxCell>
        <mxCell id="AN_IjQ9SjAtzLRTBZs15-79" value="" style="shape=link;html=1;rounded=0;entryX=0;entryY=0.5;entryDx=0;entryDy=0;exitX=1;exitY=0.5;exitDx=0;exitDy=0;" parent="AN_IjQ9SjAtzLRTBZs15-42" source="AN_IjQ9SjAtzLRTBZs15-71" target="AN_IjQ9SjAtzLRTBZs15-77" edge="1">
          <mxGeometry width="100" relative="1" as="geometry">
            <mxPoint x="1690" y="330" as="sourcePoint" />
            <mxPoint x="1665" y="280" as="targetPoint" />
          </mxGeometry>
        </mxCell>
        <mxCell id="AN_IjQ9SjAtzLRTBZs15-80" value="現在の設計評価　：正常" style="swimlane;whiteSpace=wrap;html=1;swimlaneFillColor=default;fontSize=17;" parent="AN_IjQ9SjAtzLRTBZs15-42" vertex="1">
          <mxGeometry x="1170" y="1235" width="460" height="50" as="geometry" />
        </mxCell>
        <mxCell id="AN_IjQ9SjAtzLRTBZs15-81" value="" style="rounded=0;whiteSpace=wrap;html=1;align=left;verticalAlign=top;" parent="AN_IjQ9SjAtzLRTBZs15-80" vertex="1">
          <mxGeometry x="10" y="30" width="440" height="20" as="geometry" />
        </mxCell>
        <mxCell id="AN_IjQ9SjAtzLRTBZs15-82" value="" style="shape=link;html=1;rounded=0;entryX=0;entryY=0.5;entryDx=0;entryDy=0;exitX=1;exitY=0.5;exitDx=0;exitDy=0;" parent="AN_IjQ9SjAtzLRTBZs15-42" source="AN_IjQ9SjAtzLRTBZs15-64" target="AN_IjQ9SjAtzLRTBZs15-80" edge="1">
          <mxGeometry width="100" relative="1" as="geometry">
            <mxPoint x="1160" y="1259.17" as="sourcePoint" />
            <mxPoint x="1240" y="1259.17" as="targetPoint" />
          </mxGeometry>
        </mxCell>
        <mxCell id="AN_IjQ9SjAtzLRTBZs15-83" value="現在の設計評価　：正常" style="swimlane;whiteSpace=wrap;html=1;swimlaneFillColor=default;fontSize=17;" parent="AN_IjQ9SjAtzLRTBZs15-42" vertex="1">
          <mxGeometry x="762" y="337.5" width="460" height="60" as="geometry" />
        </mxCell>
        <mxCell id="AN_IjQ9SjAtzLRTBZs15-84" value="" style="rounded=0;whiteSpace=wrap;html=1;align=left;verticalAlign=top;" parent="AN_IjQ9SjAtzLRTBZs15-83" vertex="1">
          <mxGeometry x="10" y="30" width="440" height="30" as="geometry" />
        </mxCell>
        <mxCell id="AN_IjQ9SjAtzLRTBZs15-85" value="" style="shape=link;html=1;rounded=0;entryX=0;entryY=0.5;entryDx=0;entryDy=0;exitX=1;exitY=0.5;exitDx=0;exitDy=0;" parent="AN_IjQ9SjAtzLRTBZs15-42" source="AN_IjQ9SjAtzLRTBZs15-43" target="AN_IjQ9SjAtzLRTBZs15-83" edge="1">
          <mxGeometry width="100" relative="1" as="geometry">
            <mxPoint x="720" y="397.5" as="sourcePoint" />
            <mxPoint x="845" y="327.5" as="targetPoint" />
          </mxGeometry>
        </mxCell>
        <mxCell id="4wO1hoSlMN6wJ2fs9qXw-1" value="" style="endArrow=classic;html=1;rounded=0;exitX=0.5;exitY=1;exitDx=0;exitDy=0;entryX=0.75;entryY=0;entryDx=0;entryDy=0;strokeWidth=8;" parent="AN_IjQ9SjAtzLRTBZs15-42" source="AN_IjQ9SjAtzLRTBZs15-71" target="AN_IjQ9SjAtzLRTBZs15-64" edge="1">
          <mxGeometry width="50" height="50" relative="1" as="geometry">
            <mxPoint x="1565" y="460" as="sourcePoint" />
            <mxPoint x="920" y="1150" as="targetPoint" />
            <Array as="points">
              <mxPoint x="1600" y="920" />
              <mxPoint x="955" y="920" />
            </Array>
          </mxGeometry>
        </mxCell>
        <mxCell id="AN_IjQ9SjAtzLRTBZs15-86" value="" style="endArrow=classic;dashed=1;html=1;strokeWidth=8;rounded=0;entryX=0.25;entryY=0;entryDx=0;entryDy=0;startArrow=none;startFill=0;endFill=1;exitX=0.25;exitY=1;exitDx=0;exitDy=0;" parent="AN_IjQ9SjAtzLRTBZs15-7" source="AN_IjQ9SjAtzLRTBZs15-43" target="AN_IjQ9SjAtzLRTBZs15-8" edge="1">
          <mxGeometry width="50" height="50" relative="1" as="geometry">
            <mxPoint x="1403" y="670" as="sourcePoint" />
            <mxPoint x="2103" y="690" as="targetPoint" />
            <Array as="points">
              <mxPoint x="283" y="2460" />
              <mxPoint x="2600" y="2470" />
            </Array>
          </mxGeometry>
        </mxCell>
        <mxCell id="dW4i2QfHWsAgknBdQhbe-3" value="&lt;p style=&quot;line-height: 100%;&quot;&gt;通常のシステムがOSを使用するときに必要な機能だけをまとめたインターフェース　C_OS_Manager_Interface&lt;br&gt;&lt;/p&gt;" style="swimlane;whiteSpace=wrap;html=1;swimlaneFillColor=default;" parent="AN_IjQ9SjAtzLRTBZs15-7" vertex="1">
          <mxGeometry x="2450" y="140" width="610" height="480" as="geometry" />
        </mxCell>
        <mxCell id="dW4i2QfHWsAgknBdQhbe-4" value="パラメータ" style="swimlane;fontStyle=0;childLayout=stackLayout;horizontal=1;startSize=25;horizontalStack=0;resizeParent=1;resizeParentMax=0;resizeLast=0;collapsible=1;marginBottom=0;whiteSpace=wrap;html=1;" parent="dW4i2QfHWsAgknBdQhbe-3" vertex="1">
          <mxGeometry x="20" y="30" width="580" height="55" as="geometry" />
        </mxCell>
        <mxCell id="dW4i2QfHWsAgknBdQhbe-10" value="メゾッド" style="swimlane;fontStyle=0;childLayout=stackLayout;horizontal=1;startSize=25;horizontalStack=0;resizeParent=1;resizeParentMax=0;resizeLast=0;collapsible=1;marginBottom=0;whiteSpace=wrap;html=1;" parent="dW4i2QfHWsAgknBdQhbe-3" vertex="1">
          <mxGeometry x="20" y="110" width="580" height="355" as="geometry" />
        </mxCell>
        <mxCell id="dW4i2QfHWsAgknBdQhbe-26" value="＋　ウィンドウのサイズのゲッタ　＜静的関数＞" style="text;strokeColor=none;fillColor=none;align=left;verticalAlign=middle;spacingLeft=4;spacingRight=4;overflow=hidden;points=[[0,0.5],[1,0.5]];portConstraint=eastwest;rotatable=0;whiteSpace=wrap;html=1;" parent="dW4i2QfHWsAgknBdQhbe-10" vertex="1">
          <mxGeometry y="25" width="580" height="30" as="geometry" />
        </mxCell>
        <mxCell id="dW4i2QfHWsAgknBdQhbe-27" value="＋　ウィンドウのアスペクト比のゲッタ　＜静的関数＞" style="text;strokeColor=none;fillColor=none;align=left;verticalAlign=middle;spacingLeft=4;spacingRight=4;overflow=hidden;points=[[0,0.5],[1,0.5]];portConstraint=eastwest;rotatable=0;whiteSpace=wrap;html=1;" parent="dW4i2QfHWsAgknBdQhbe-10" vertex="1">
          <mxGeometry y="55" width="580" height="30" as="geometry" />
        </mxCell>
        <mxCell id="dW4i2QfHWsAgknBdQhbe-28" value="＋　ウィンドウの座標のゲッタ　＜静的関数＞" style="text;strokeColor=none;fillColor=none;align=left;verticalAlign=middle;spacingLeft=4;spacingRight=4;overflow=hidden;points=[[0,0.5],[1,0.5]];portConstraint=eastwest;rotatable=0;whiteSpace=wrap;html=1;" parent="dW4i2QfHWsAgknBdQhbe-10" vertex="1">
          <mxGeometry y="85" width="580" height="30" as="geometry" />
        </mxCell>
        <mxCell id="dW4i2QfHWsAgknBdQhbe-29" value="＋　マウスの情報のゲッタ　＜静的関数＞" style="text;strokeColor=none;fillColor=none;align=left;verticalAlign=middle;spacingLeft=4;spacingRight=4;overflow=hidden;points=[[0,0.5],[1,0.5]];portConstraint=eastwest;rotatable=0;whiteSpace=wrap;html=1;" parent="dW4i2QfHWsAgknBdQhbe-10" vertex="1">
          <mxGeometry y="115" width="580" height="30" as="geometry" />
        </mxCell>
        <mxCell id="dW4i2QfHWsAgknBdQhbe-30" value="＋　現在の年月日時分秒のゲッタ　＜静的関数＞" style="text;strokeColor=none;fillColor=none;align=left;verticalAlign=middle;spacingLeft=4;spacingRight=4;overflow=hidden;points=[[0,0.5],[1,0.5]];portConstraint=eastwest;rotatable=0;whiteSpace=wrap;html=1;" parent="dW4i2QfHWsAgknBdQhbe-10" vertex="1">
          <mxGeometry y="145" width="580" height="30" as="geometry" />
        </mxCell>
        <mxCell id="dW4i2QfHWsAgknBdQhbe-31" value="＋　現在のexe起動からのミリ秒単位での経過時間のゲッタ　＜静的関数＞" style="text;strokeColor=none;fillColor=none;align=left;verticalAlign=middle;spacingLeft=4;spacingRight=4;overflow=hidden;points=[[0,0.5],[1,0.5]];portConstraint=eastwest;rotatable=0;whiteSpace=wrap;html=1;" parent="dW4i2QfHWsAgknBdQhbe-10" vertex="1">
          <mxGeometry y="175" width="580" height="30" as="geometry" />
        </mxCell>
        <mxCell id="4wO1hoSlMN6wJ2fs9qXw-5" value="＋　ウィンドウタイトルのゲッタ　＜静的関数＞" style="text;strokeColor=none;fillColor=none;align=left;verticalAlign=middle;spacingLeft=4;spacingRight=4;overflow=hidden;points=[[0,0.5],[1,0.5]];portConstraint=eastwest;rotatable=0;whiteSpace=wrap;html=1;" parent="dW4i2QfHWsAgknBdQhbe-10" vertex="1">
          <mxGeometry y="205" width="580" height="30" as="geometry" />
        </mxCell>
        <mxCell id="4wO1hoSlMN6wJ2fs9qXw-4" value="＋　現在の年月日時分秒のゲッタ　＜静的関数＞" style="text;strokeColor=none;fillColor=none;align=left;verticalAlign=middle;spacingLeft=4;spacingRight=4;overflow=hidden;points=[[0,0.5],[1,0.5]];portConstraint=eastwest;rotatable=0;whiteSpace=wrap;html=1;" parent="dW4i2QfHWsAgknBdQhbe-10" vertex="1">
          <mxGeometry y="235" width="580" height="30" as="geometry" />
        </mxCell>
        <mxCell id="4wO1hoSlMN6wJ2fs9qXw-3" value="＋　現在のexe起動からのミリ秒単位での経過時間のゲッタ　＜静的関数＞" style="text;strokeColor=none;fillColor=none;align=left;verticalAlign=middle;spacingLeft=4;spacingRight=4;overflow=hidden;points=[[0,0.5],[1,0.5]];portConstraint=eastwest;rotatable=0;whiteSpace=wrap;html=1;" parent="dW4i2QfHWsAgknBdQhbe-10" vertex="1">
          <mxGeometry y="265" width="580" height="30" as="geometry" />
        </mxCell>
        <mxCell id="dW4i2QfHWsAgknBdQhbe-32" value="＋　ウィンドウタイトルの変更　＜静的関数＞" style="text;strokeColor=none;fillColor=none;align=left;verticalAlign=middle;spacingLeft=4;spacingRight=4;overflow=hidden;points=[[0,0.5],[1,0.5]];portConstraint=eastwest;rotatable=0;whiteSpace=wrap;html=1;" parent="dW4i2QfHWsAgknBdQhbe-10" vertex="1">
          <mxGeometry y="295" width="580" height="30" as="geometry" />
        </mxCell>
        <mxCell id="dW4i2QfHWsAgknBdQhbe-33" value="＋　メッセージボックスの表示　＜静的関数＞" style="text;strokeColor=none;fillColor=none;align=left;verticalAlign=middle;spacingLeft=4;spacingRight=4;overflow=hidden;points=[[0,0.5],[1,0.5]];portConstraint=eastwest;rotatable=0;whiteSpace=wrap;html=1;" parent="dW4i2QfHWsAgknBdQhbe-10" vertex="1">
          <mxGeometry y="325" width="580" height="30" as="geometry" />
        </mxCell>
        <mxCell id="4lsep5q1GfsTIuzuscHI-9" value="" style="endArrow=classic;html=1;rounded=0;exitX=0.5;exitY=1;exitDx=0;exitDy=0;entryX=0.5;entryY=0;entryDx=0;entryDy=0;strokeWidth=8;" parent="AN_IjQ9SjAtzLRTBZs15-7" source="dW4i2QfHWsAgknBdQhbe-3" target="AN_IjQ9SjAtzLRTBZs15-8" edge="1">
          <mxGeometry width="50" height="50" relative="1" as="geometry">
            <mxPoint x="3255" y="830" as="sourcePoint" />
            <mxPoint x="3515" y="1270" as="targetPoint" />
            <Array as="points" />
          </mxGeometry>
        </mxCell>
        <mxCell id="4lsep5q1GfsTIuzuscHI-12" value="現在の設計評価　：正常" style="swimlane;whiteSpace=wrap;html=1;swimlaneFillColor=default;fontSize=17;" parent="AN_IjQ9SjAtzLRTBZs15-7" vertex="1">
          <mxGeometry x="3090" y="350" width="460" height="60" as="geometry" />
        </mxCell>
        <mxCell id="4lsep5q1GfsTIuzuscHI-13" value="" style="rounded=0;whiteSpace=wrap;html=1;align=left;verticalAlign=top;" parent="4lsep5q1GfsTIuzuscHI-12" vertex="1">
          <mxGeometry x="10" y="30" width="440" height="30" as="geometry" />
        </mxCell>
        <mxCell id="4lsep5q1GfsTIuzuscHI-14" value="" style="shape=link;html=1;rounded=0;entryX=0;entryY=0.5;entryDx=0;entryDy=0;exitX=1;exitY=0.5;exitDx=0;exitDy=0;" parent="AN_IjQ9SjAtzLRTBZs15-7" source="dW4i2QfHWsAgknBdQhbe-3" target="4lsep5q1GfsTIuzuscHI-12" edge="1">
          <mxGeometry width="100" relative="1" as="geometry">
            <mxPoint x="3030" y="363" as="sourcePoint" />
            <mxPoint x="3165" y="307.5" as="targetPoint" />
          </mxGeometry>
        </mxCell>
        <mxCell id="qJZmBqXpnlem08QuyvD9-1" value="" style="endArrow=classic;html=1;rounded=0;exitX=0.5;exitY=1;exitDx=0;exitDy=0;entryX=0.5;entryY=0;entryDx=0;entryDy=0;strokeWidth=8;" parent="1" source="AN_IjQ9SjAtzLRTBZs15-6" target="AN_IjQ9SjAtzLRTBZs15-7" edge="1">
          <mxGeometry width="50" height="50" relative="1" as="geometry">
            <mxPoint x="1940" y="230" as="sourcePoint" />
            <mxPoint x="1941" y="2250" as="targetPoint" />
            <Array as="points" />
          </mxGeometry>
        </mxCell>
      </root>
    </mxGraphModel>
  </diagram>
  <diagram name="ver.1.0.0" id="rUNOVL-YZ9ixlKsIOIGU">
    <mxGraphModel dx="3704" dy="3028" grid="1" gridSize="10" guides="1" tooltips="1" connect="1" arrows="1" fold="1" page="1" pageScale="1" pageWidth="827" pageHeight="1169" math="0" shadow="0">
      <root>
        <mxCell id="0" />
        <mxCell id="1" parent="0" />
        <mxCell id="BZFop_Z_mp7bM7QsDtb2-7" value="上位層&lt;br style=&quot;font-size: 36px;&quot;&gt;レンダリング層やアセット層など" style="rounded=0;whiteSpace=wrap;html=1;fontSize=36;" parent="1" vertex="1">
          <mxGeometry x="1290" width="990" height="170" as="geometry" />
        </mxCell>
        <mxCell id="BZFop_Z_mp7bM7QsDtb2-9" value="プラットフォーム層　ネームスペース＜OS＞" style="swimlane;whiteSpace=wrap;html=1;swimlaneFillColor=default;startSize=23;" parent="1" vertex="1">
          <mxGeometry x="30" y="350" width="3510" height="3000" as="geometry" />
        </mxCell>
        <mxCell id="BZFop_Z_mp7bM7QsDtb2-21" value="&lt;p style=&quot;line-height: 100%;&quot;&gt;OS制御システムの基底クラス　C_OS_System_Base&lt;br&gt;&lt;/p&gt;" style="swimlane;whiteSpace=wrap;html=1;swimlaneFillColor=default;" parent="BZFop_Z_mp7bM7QsDtb2-9" vertex="1">
          <mxGeometry x="1923" y="1880" width="560" height="940" as="geometry" />
        </mxCell>
        <mxCell id="BZFop_Z_mp7bM7QsDtb2-22" value="パラメータ" style="swimlane;fontStyle=0;childLayout=stackLayout;horizontal=1;startSize=25;horizontalStack=0;resizeParent=1;resizeParentMax=0;resizeLast=0;collapsible=1;marginBottom=0;whiteSpace=wrap;html=1;" parent="BZFop_Z_mp7bM7QsDtb2-21" vertex="1">
          <mxGeometry x="10" y="30" width="540" height="175" as="geometry" />
        </mxCell>
        <mxCell id="BZFop_Z_mp7bM7QsDtb2-23" value="ー　ウィンドウのサイズ" style="text;strokeColor=none;fillColor=none;align=left;verticalAlign=middle;spacingLeft=4;spacingRight=4;overflow=hidden;points=[[0,0.5],[1,0.5]];portConstraint=eastwest;rotatable=0;whiteSpace=wrap;html=1;" parent="BZFop_Z_mp7bM7QsDtb2-22" vertex="1">
          <mxGeometry y="25" width="540" height="30" as="geometry" />
        </mxCell>
        <mxCell id="BZFop_Z_mp7bM7QsDtb2-26" value="ー　ウィンドウの位置座標" style="text;strokeColor=none;fillColor=none;align=left;verticalAlign=middle;spacingLeft=4;spacingRight=4;overflow=hidden;points=[[0,0.5],[1,0.5]];portConstraint=eastwest;rotatable=0;whiteSpace=wrap;html=1;" parent="BZFop_Z_mp7bM7QsDtb2-22" vertex="1">
          <mxGeometry y="55" width="540" height="30" as="geometry" />
        </mxCell>
        <mxCell id="BZFop_Z_mp7bM7QsDtb2-28" value="ー　マウスの入力情報" style="text;strokeColor=none;fillColor=none;align=left;verticalAlign=middle;spacingLeft=4;spacingRight=4;overflow=hidden;points=[[0,0.5],[1,0.5]];portConstraint=eastwest;rotatable=0;whiteSpace=wrap;html=1;" parent="BZFop_Z_mp7bM7QsDtb2-22" vertex="1">
          <mxGeometry y="85" width="540" height="30" as="geometry" />
        </mxCell>
        <mxCell id="BZFop_Z_mp7bM7QsDtb2-29" value="＝　シングルトン化用の自クラスポインタ　＜静的変数＞" style="text;strokeColor=none;fillColor=none;align=left;verticalAlign=middle;spacingLeft=4;spacingRight=4;overflow=hidden;points=[[0,0.5],[1,0.5]];portConstraint=eastwest;rotatable=0;whiteSpace=wrap;html=1;" parent="BZFop_Z_mp7bM7QsDtb2-22" vertex="1">
          <mxGeometry y="115" width="540" height="30" as="geometry" />
        </mxCell>
        <mxCell id="BZFop_Z_mp7bM7QsDtb2-30" value="＝　OSがアクティブであるかどうかのフラグ　＜静的変数＞" style="text;strokeColor=none;fillColor=none;align=left;verticalAlign=middle;spacingLeft=4;spacingRight=4;overflow=hidden;points=[[0,0.5],[1,0.5]];portConstraint=eastwest;rotatable=0;whiteSpace=wrap;html=1;" parent="BZFop_Z_mp7bM7QsDtb2-22" vertex="1">
          <mxGeometry y="145" width="540" height="30" as="geometry" />
        </mxCell>
        <mxCell id="BZFop_Z_mp7bM7QsDtb2-24" value="メゾッド" style="swimlane;fontStyle=0;childLayout=stackLayout;horizontal=1;startSize=25;horizontalStack=0;resizeParent=1;resizeParentMax=0;resizeLast=0;collapsible=1;marginBottom=0;whiteSpace=wrap;html=1;" parent="BZFop_Z_mp7bM7QsDtb2-21" vertex="1">
          <mxGeometry x="10" y="210" width="540" height="715" as="geometry" />
        </mxCell>
        <mxCell id="BZFop_Z_mp7bM7QsDtb2-25" value="＋　コンストラクタ" style="text;strokeColor=none;fillColor=none;align=left;verticalAlign=middle;spacingLeft=4;spacingRight=4;overflow=hidden;points=[[0,0.5],[1,0.5]];portConstraint=eastwest;rotatable=0;whiteSpace=wrap;html=1;" parent="BZFop_Z_mp7bM7QsDtb2-24" vertex="1">
          <mxGeometry y="25" width="540" height="30" as="geometry" />
        </mxCell>
        <mxCell id="BZFop_Z_mp7bM7QsDtb2-32" value="＋　OSの初期化　＜純粋仮想関数＞" style="text;strokeColor=none;fillColor=none;align=left;verticalAlign=middle;spacingLeft=4;spacingRight=4;overflow=hidden;points=[[0,0.5],[1,0.5]];portConstraint=eastwest;rotatable=0;whiteSpace=wrap;html=1;" parent="BZFop_Z_mp7bM7QsDtb2-24" vertex="1">
          <mxGeometry y="55" width="540" height="30" as="geometry" />
        </mxCell>
        <mxCell id="BZFop_Z_mp7bM7QsDtb2-33" value="＋　メモリの解放処理　＜純粋仮想関数＞" style="text;strokeColor=none;fillColor=none;align=left;verticalAlign=middle;spacingLeft=4;spacingRight=4;overflow=hidden;points=[[0,0.5],[1,0.5]];portConstraint=eastwest;rotatable=0;whiteSpace=wrap;html=1;" parent="BZFop_Z_mp7bM7QsDtb2-24" vertex="1">
          <mxGeometry y="85" width="540" height="30" as="geometry" />
        </mxCell>
        <mxCell id="BZFop_Z_mp7bM7QsDtb2-34" value="＋　OSシステムの削除　＜静的関数＞" style="text;strokeColor=none;fillColor=none;align=left;verticalAlign=middle;spacingLeft=4;spacingRight=4;overflow=hidden;points=[[0,0.5],[1,0.5]];portConstraint=eastwest;rotatable=0;whiteSpace=wrap;html=1;" parent="BZFop_Z_mp7bM7QsDtb2-24" vertex="1">
          <mxGeometry y="115" width="540" height="30" as="geometry" />
        </mxCell>
        <mxCell id="BZFop_Z_mp7bM7QsDtb2-35" value="＋　デストラクタ　＜仮想関数＞" style="text;strokeColor=none;fillColor=none;align=left;verticalAlign=middle;spacingLeft=4;spacingRight=4;overflow=hidden;points=[[0,0.5],[1,0.5]];portConstraint=eastwest;rotatable=0;whiteSpace=wrap;html=1;" parent="BZFop_Z_mp7bM7QsDtb2-24" vertex="1">
          <mxGeometry y="145" width="540" height="30" as="geometry" />
        </mxCell>
        <mxCell id="BZFop_Z_mp7bM7QsDtb2-36" value="＋　OSの更新処理　＜純粋仮想関数＞" style="text;strokeColor=none;fillColor=none;align=left;verticalAlign=middle;spacingLeft=4;spacingRight=4;overflow=hidden;points=[[0,0.5],[1,0.5]];portConstraint=eastwest;rotatable=0;whiteSpace=wrap;html=1;" parent="BZFop_Z_mp7bM7QsDtb2-24" vertex="1">
          <mxGeometry y="175" width="540" height="30" as="geometry" />
        </mxCell>
        <mxCell id="BZFop_Z_mp7bM7QsDtb2-37" value="＋　ウィンドウサイズの更新処理　＜純粋仮想関数＞" style="text;strokeColor=none;fillColor=none;align=left;verticalAlign=middle;spacingLeft=4;spacingRight=4;overflow=hidden;points=[[0,0.5],[1,0.5]];portConstraint=eastwest;rotatable=0;whiteSpace=wrap;html=1;" parent="BZFop_Z_mp7bM7QsDtb2-24" vertex="1">
          <mxGeometry y="205" width="540" height="30" as="geometry" />
        </mxCell>
        <mxCell id="BZFop_Z_mp7bM7QsDtb2-38" value="＋　マウス座標のセッタ" style="text;strokeColor=none;fillColor=none;align=left;verticalAlign=middle;spacingLeft=4;spacingRight=4;overflow=hidden;points=[[0,0.5],[1,0.5]];portConstraint=eastwest;rotatable=0;whiteSpace=wrap;html=1;" parent="BZFop_Z_mp7bM7QsDtb2-24" vertex="1">
          <mxGeometry y="235" width="540" height="30" as="geometry" />
        </mxCell>
        <mxCell id="BZFop_Z_mp7bM7QsDtb2-39" value="＋　ウィンドウサイズのセッタ" style="text;strokeColor=none;fillColor=none;align=left;verticalAlign=middle;spacingLeft=4;spacingRight=4;overflow=hidden;points=[[0,0.5],[1,0.5]];portConstraint=eastwest;rotatable=0;whiteSpace=wrap;html=1;" parent="BZFop_Z_mp7bM7QsDtb2-24" vertex="1">
          <mxGeometry y="265" width="540" height="30" as="geometry" />
        </mxCell>
        <mxCell id="BZFop_Z_mp7bM7QsDtb2-41" value="＋　ウィンドウ座標のセッタ" style="text;strokeColor=none;fillColor=none;align=left;verticalAlign=middle;spacingLeft=4;spacingRight=4;overflow=hidden;points=[[0,0.5],[1,0.5]];portConstraint=eastwest;rotatable=0;whiteSpace=wrap;html=1;" parent="BZFop_Z_mp7bM7QsDtb2-24" vertex="1">
          <mxGeometry y="295" width="540" height="30" as="geometry" />
        </mxCell>
        <mxCell id="BZFop_Z_mp7bM7QsDtb2-42" value="＋　マウス左クリックフラグのセッタ" style="text;strokeColor=none;fillColor=none;align=left;verticalAlign=middle;spacingLeft=4;spacingRight=4;overflow=hidden;points=[[0,0.5],[1,0.5]];portConstraint=eastwest;rotatable=0;whiteSpace=wrap;html=1;" parent="BZFop_Z_mp7bM7QsDtb2-24" vertex="1">
          <mxGeometry y="325" width="540" height="30" as="geometry" />
        </mxCell>
        <mxCell id="BZFop_Z_mp7bM7QsDtb2-43" value="＋　マウス右クリックフラグのセッタ" style="text;strokeColor=none;fillColor=none;align=left;verticalAlign=middle;spacingLeft=4;spacingRight=4;overflow=hidden;points=[[0,0.5],[1,0.5]];portConstraint=eastwest;rotatable=0;whiteSpace=wrap;html=1;" parent="BZFop_Z_mp7bM7QsDtb2-24" vertex="1">
          <mxGeometry y="355" width="540" height="30" as="geometry" />
        </mxCell>
        <mxCell id="BZFop_Z_mp7bM7QsDtb2-44" value="＋　マウス中クリックフラグのセッタ" style="text;strokeColor=none;fillColor=none;align=left;verticalAlign=middle;spacingLeft=4;spacingRight=4;overflow=hidden;points=[[0,0.5],[1,0.5]];portConstraint=eastwest;rotatable=0;whiteSpace=wrap;html=1;" parent="BZFop_Z_mp7bM7QsDtb2-24" vertex="1">
          <mxGeometry y="385" width="540" height="30" as="geometry" />
        </mxCell>
        <mxCell id="BZFop_Z_mp7bM7QsDtb2-45" value="＋　自クラスのシングルトンインスタンスのアドレスのゲッタ　＜静的関数＞" style="text;strokeColor=none;fillColor=none;align=left;verticalAlign=middle;spacingLeft=4;spacingRight=4;overflow=hidden;points=[[0,0.5],[1,0.5]];portConstraint=eastwest;rotatable=0;whiteSpace=wrap;html=1;" parent="BZFop_Z_mp7bM7QsDtb2-24" vertex="1">
          <mxGeometry y="415" width="540" height="30" as="geometry" />
        </mxCell>
        <mxCell id="BZFop_Z_mp7bM7QsDtb2-46" value="＋　OSがアクティブであるかどうかのフラグのゲッタ　＜静的関数＞" style="text;strokeColor=none;fillColor=none;align=left;verticalAlign=middle;spacingLeft=4;spacingRight=4;overflow=hidden;points=[[0,0.5],[1,0.5]];portConstraint=eastwest;rotatable=0;whiteSpace=wrap;html=1;" parent="BZFop_Z_mp7bM7QsDtb2-24" vertex="1">
          <mxGeometry y="445" width="540" height="30" as="geometry" />
        </mxCell>
        <mxCell id="BZFop_Z_mp7bM7QsDtb2-47" value="＋　ウィンドウのサイズのゲッタ　：const関数" style="text;strokeColor=none;fillColor=none;align=left;verticalAlign=middle;spacingLeft=4;spacingRight=4;overflow=hidden;points=[[0,0.5],[1,0.5]];portConstraint=eastwest;rotatable=0;whiteSpace=wrap;html=1;" parent="BZFop_Z_mp7bM7QsDtb2-24" vertex="1">
          <mxGeometry y="475" width="540" height="30" as="geometry" />
        </mxCell>
        <mxCell id="BZFop_Z_mp7bM7QsDtb2-48" value="＋　ウィンドウのアスペクト比のゲッタ" style="text;strokeColor=none;fillColor=none;align=left;verticalAlign=middle;spacingLeft=4;spacingRight=4;overflow=hidden;points=[[0,0.5],[1,0.5]];portConstraint=eastwest;rotatable=0;whiteSpace=wrap;html=1;" parent="BZFop_Z_mp7bM7QsDtb2-24" vertex="1">
          <mxGeometry y="505" width="540" height="30" as="geometry" />
        </mxCell>
        <mxCell id="BZFop_Z_mp7bM7QsDtb2-49" value="＋　ウィンドウの座標のゲッタ" style="text;strokeColor=none;fillColor=none;align=left;verticalAlign=middle;spacingLeft=4;spacingRight=4;overflow=hidden;points=[[0,0.5],[1,0.5]];portConstraint=eastwest;rotatable=0;whiteSpace=wrap;html=1;" parent="BZFop_Z_mp7bM7QsDtb2-24" vertex="1">
          <mxGeometry y="535" width="540" height="30" as="geometry" />
        </mxCell>
        <mxCell id="BZFop_Z_mp7bM7QsDtb2-50" value="＋　マウスの状態のゲッタ" style="text;strokeColor=none;fillColor=none;align=left;verticalAlign=middle;spacingLeft=4;spacingRight=4;overflow=hidden;points=[[0,0.5],[1,0.5]];portConstraint=eastwest;rotatable=0;whiteSpace=wrap;html=1;" parent="BZFop_Z_mp7bM7QsDtb2-24" vertex="1">
          <mxGeometry y="565" width="540" height="30" as="geometry" />
        </mxCell>
        <mxCell id="BZFop_Z_mp7bM7QsDtb2-51" value="＋　現在の年月日時分秒のゲッタ　＜純粋仮想関数＞" style="text;strokeColor=none;fillColor=none;align=left;verticalAlign=middle;spacingLeft=4;spacingRight=4;overflow=hidden;points=[[0,0.5],[1,0.5]];portConstraint=eastwest;rotatable=0;whiteSpace=wrap;html=1;" parent="BZFop_Z_mp7bM7QsDtb2-24" vertex="1">
          <mxGeometry y="595" width="540" height="30" as="geometry" />
        </mxCell>
        <mxCell id="BZFop_Z_mp7bM7QsDtb2-52" value="＋　現在のexe起動からのミリ秒単位での経過時間のゲッタ　＜純粋仮想関数＞" style="text;strokeColor=none;fillColor=none;align=left;verticalAlign=middle;spacingLeft=4;spacingRight=4;overflow=hidden;points=[[0,0.5],[1,0.5]];portConstraint=eastwest;rotatable=0;whiteSpace=wrap;html=1;" parent="BZFop_Z_mp7bM7QsDtb2-24" vertex="1">
          <mxGeometry y="625" width="540" height="30" as="geometry" />
        </mxCell>
        <mxCell id="BZFop_Z_mp7bM7QsDtb2-54" value="＋　ウィンドウタイトルの変更　＜純粋仮想関数＞" style="text;strokeColor=none;fillColor=none;align=left;verticalAlign=middle;spacingLeft=4;spacingRight=4;overflow=hidden;points=[[0,0.5],[1,0.5]];portConstraint=eastwest;rotatable=0;whiteSpace=wrap;html=1;" parent="BZFop_Z_mp7bM7QsDtb2-24" vertex="1">
          <mxGeometry y="655" width="540" height="30" as="geometry" />
        </mxCell>
        <mxCell id="BZFop_Z_mp7bM7QsDtb2-53" value="＋　メッセージボックスの表示　＜純粋仮想関数＞" style="text;strokeColor=none;fillColor=none;align=left;verticalAlign=middle;spacingLeft=4;spacingRight=4;overflow=hidden;points=[[0,0.5],[1,0.5]];portConstraint=eastwest;rotatable=0;whiteSpace=wrap;html=1;" parent="BZFop_Z_mp7bM7QsDtb2-24" vertex="1">
          <mxGeometry y="685" width="540" height="30" as="geometry" />
        </mxCell>
        <mxCell id="BZFop_Z_mp7bM7QsDtb2-55" value="現在の設計評価　：修正点あり" style="swimlane;whiteSpace=wrap;html=1;swimlaneFillColor=default;fontSize=17;" parent="BZFop_Z_mp7bM7QsDtb2-9" vertex="1">
          <mxGeometry x="2563" y="2160" width="460" height="350" as="geometry" />
        </mxCell>
        <mxCell id="BZFop_Z_mp7bM7QsDtb2-62" value="１．時間など一部がインスタンスとして取得されておらず、&lt;br&gt;　　関数が呼ばれたタイミングで取得されている、&lt;br&gt;　　フレームが開始された時点の時間を取得しておかなければ、&lt;br&gt;　　関数実行のタイミングで同じフレーム間でデータがずれる&lt;br&gt;&lt;br&gt;２．const関数にしても問題のないものはすべてconst関数にするべき、&lt;br&gt;　　const関数は内部でデータが書き換えられないことを保証することができ、&lt;br&gt;　　プログラマによるミスをコンパイルの段階でエラーを出力し、&lt;br&gt;　　発見することができる。今後の開発への保険になる&lt;br&gt;&lt;br&gt;３．ウィンドウタイトルのゲッタとインスタンスを作るべき、&lt;br&gt;　　ウィンドウタイトルがゲットできなければ変更が必要かどうかも判断できない&lt;br&gt;&lt;br&gt;４．OS制御用システムであってOSのシステムではないので、&lt;br&gt;　　C_OS_Management_System_Baseなどが命名として適切である&lt;br&gt;&lt;br&gt;５．通常のシステムが使用しなくてもよい関数がパブリックに含まれているので、&lt;br&gt;　　通常のシステムからOSを利用するときのレイヤーを実装するべき" style="rounded=0;whiteSpace=wrap;html=1;align=left;verticalAlign=top;" parent="BZFop_Z_mp7bM7QsDtb2-55" vertex="1">
          <mxGeometry y="30" width="460" height="320" as="geometry" />
        </mxCell>
        <mxCell id="BZFop_Z_mp7bM7QsDtb2-63" value="" style="shape=link;html=1;rounded=0;entryX=0;entryY=0.5;entryDx=0;entryDy=0;exitX=1;exitY=0.5;exitDx=0;exitDy=0;" parent="BZFop_Z_mp7bM7QsDtb2-9" source="BZFop_Z_mp7bM7QsDtb2-21" target="BZFop_Z_mp7bM7QsDtb2-62" edge="1">
          <mxGeometry width="100" relative="1" as="geometry">
            <mxPoint x="2508" y="2280" as="sourcePoint" />
            <mxPoint x="2608" y="2280" as="targetPoint" />
          </mxGeometry>
        </mxCell>
        <mxCell id="BZFop_Z_mp7bM7QsDtb2-65" value="ウィンドウズOS層　ネームスペース＜OS::WINDOWS＞" style="swimlane;whiteSpace=wrap;html=1;" parent="BZFop_Z_mp7bM7QsDtb2-9" vertex="1">
          <mxGeometry x="130" y="100" width="2460" height="1490" as="geometry" />
        </mxCell>
        <mxCell id="BZFop_Z_mp7bM7QsDtb2-66" value="&lt;p style=&quot;line-height: 100%;&quot;&gt;ウィンドウズOS制御用システム　C_Windows_System　基底クラス&amp;lt;C_OS_System_Base&amp;gt;&lt;/p&gt;" style="swimlane;whiteSpace=wrap;html=1;swimlaneFillColor=default;" parent="BZFop_Z_mp7bM7QsDtb2-65" vertex="1">
          <mxGeometry x="90" y="55" width="620" height="655" as="geometry" />
        </mxCell>
        <mxCell id="BZFop_Z_mp7bM7QsDtb2-67" value="パラメータ" style="swimlane;fontStyle=0;childLayout=stackLayout;horizontal=1;startSize=25;horizontalStack=0;resizeParent=1;resizeParentMax=0;resizeLast=0;collapsible=1;marginBottom=0;whiteSpace=wrap;html=1;" parent="BZFop_Z_mp7bM7QsDtb2-66" vertex="1">
          <mxGeometry x="10" y="30" width="600" height="115" as="geometry" />
        </mxCell>
        <mxCell id="BZFop_Z_mp7bM7QsDtb2-68" value="ー　自ウィンドウのハンドル" style="text;strokeColor=none;fillColor=none;align=left;verticalAlign=middle;spacingLeft=4;spacingRight=4;overflow=hidden;points=[[0,0.5],[1,0.5]];portConstraint=eastwest;rotatable=0;whiteSpace=wrap;html=1;" parent="BZFop_Z_mp7bM7QsDtb2-67" vertex="1">
          <mxGeometry y="25" width="600" height="30" as="geometry" />
        </mxCell>
        <mxCell id="BZFop_Z_mp7bM7QsDtb2-73" value="ー　ウィンドウの処理を取得するためのメッセージパラメータ" style="text;strokeColor=none;fillColor=none;align=left;verticalAlign=middle;spacingLeft=4;spacingRight=4;overflow=hidden;points=[[0,0.5],[1,0.5]];portConstraint=eastwest;rotatable=0;whiteSpace=wrap;html=1;" parent="BZFop_Z_mp7bM7QsDtb2-67" vertex="1">
          <mxGeometry y="55" width="600" height="30" as="geometry" />
        </mxCell>
        <mxCell id="BZFop_Z_mp7bM7QsDtb2-74" value="ー　ウィンドウ操作用のコマンド番号" style="text;strokeColor=none;fillColor=none;align=left;verticalAlign=middle;spacingLeft=4;spacingRight=4;overflow=hidden;points=[[0,0.5],[1,0.5]];portConstraint=eastwest;rotatable=0;whiteSpace=wrap;html=1;" parent="BZFop_Z_mp7bM7QsDtb2-67" vertex="1">
          <mxGeometry y="85" width="600" height="30" as="geometry" />
        </mxCell>
        <mxCell id="BZFop_Z_mp7bM7QsDtb2-69" value="メゾッド" style="swimlane;fontStyle=0;childLayout=stackLayout;horizontal=1;startSize=25;horizontalStack=0;resizeParent=1;resizeParentMax=0;resizeLast=0;collapsible=1;marginBottom=0;whiteSpace=wrap;html=1;" parent="BZFop_Z_mp7bM7QsDtb2-66" vertex="1">
          <mxGeometry x="10" y="155" width="600" height="475" as="geometry" />
        </mxCell>
        <mxCell id="BZFop_Z_mp7bM7QsDtb2-70" value="ー　コンストラクタ" style="text;strokeColor=none;fillColor=none;align=left;verticalAlign=middle;spacingLeft=4;spacingRight=4;overflow=hidden;points=[[0,0.5],[1,0.5]];portConstraint=eastwest;rotatable=0;whiteSpace=wrap;html=1;" parent="BZFop_Z_mp7bM7QsDtb2-69" vertex="1">
          <mxGeometry y="25" width="600" height="30" as="geometry" />
        </mxCell>
        <mxCell id="BZFop_Z_mp7bM7QsDtb2-75" value="ー　ウィンドウ生成処理" style="text;strokeColor=none;fillColor=none;align=left;verticalAlign=middle;spacingLeft=4;spacingRight=4;overflow=hidden;points=[[0,0.5],[1,0.5]];portConstraint=eastwest;rotatable=0;whiteSpace=wrap;html=1;" parent="BZFop_Z_mp7bM7QsDtb2-69" vertex="1">
          <mxGeometry y="55" width="600" height="30" as="geometry" />
        </mxCell>
        <mxCell id="BZFop_Z_mp7bM7QsDtb2-76" value="ー　マウス入力の更新処理" style="text;strokeColor=none;fillColor=none;align=left;verticalAlign=middle;spacingLeft=4;spacingRight=4;overflow=hidden;points=[[0,0.5],[1,0.5]];portConstraint=eastwest;rotatable=0;whiteSpace=wrap;html=1;" parent="BZFop_Z_mp7bM7QsDtb2-69" vertex="1">
          <mxGeometry y="85" width="600" height="30" as="geometry" />
        </mxCell>
        <mxCell id="BZFop_Z_mp7bM7QsDtb2-77" value="＋　ウィンドウズ制御用システム生成処理（シングルトンインスタンス生成）　＜静的関数＞" style="text;strokeColor=none;fillColor=none;align=left;verticalAlign=middle;spacingLeft=4;spacingRight=4;overflow=hidden;points=[[0,0.5],[1,0.5]];portConstraint=eastwest;rotatable=0;whiteSpace=wrap;html=1;" parent="BZFop_Z_mp7bM7QsDtb2-69" vertex="1">
          <mxGeometry y="115" width="600" height="30" as="geometry" />
        </mxCell>
        <mxCell id="BZFop_Z_mp7bM7QsDtb2-79" value="＋　ウィンドウズ機能の初期化処理　＜継承関数＞" style="text;strokeColor=none;fillColor=none;align=left;verticalAlign=middle;spacingLeft=4;spacingRight=4;overflow=hidden;points=[[0,0.5],[1,0.5]];portConstraint=eastwest;rotatable=0;whiteSpace=wrap;html=1;" parent="BZFop_Z_mp7bM7QsDtb2-69" vertex="1">
          <mxGeometry y="145" width="600" height="30" as="geometry" />
        </mxCell>
        <mxCell id="BZFop_Z_mp7bM7QsDtb2-78" value="＋　デストラクタ　＜継承関数＞" style="text;strokeColor=none;fillColor=none;align=left;verticalAlign=middle;spacingLeft=4;spacingRight=4;overflow=hidden;points=[[0,0.5],[1,0.5]];portConstraint=eastwest;rotatable=0;whiteSpace=wrap;html=1;" parent="BZFop_Z_mp7bM7QsDtb2-69" vertex="1">
          <mxGeometry y="175" width="600" height="30" as="geometry" />
        </mxCell>
        <mxCell id="BZFop_Z_mp7bM7QsDtb2-80" value="＋　メモリの解放処理　＜継承関数＞" style="text;strokeColor=none;fillColor=none;align=left;verticalAlign=middle;spacingLeft=4;spacingRight=4;overflow=hidden;points=[[0,0.5],[1,0.5]];portConstraint=eastwest;rotatable=0;whiteSpace=wrap;html=1;" parent="BZFop_Z_mp7bM7QsDtb2-69" vertex="1">
          <mxGeometry y="205" width="600" height="30" as="geometry" />
        </mxCell>
        <mxCell id="BZFop_Z_mp7bM7QsDtb2-81" value="＋　ウィンドウの更新処理　＜継承関数＞" style="text;strokeColor=none;fillColor=none;align=left;verticalAlign=middle;spacingLeft=4;spacingRight=4;overflow=hidden;points=[[0,0.5],[1,0.5]];portConstraint=eastwest;rotatable=0;whiteSpace=wrap;html=1;" parent="BZFop_Z_mp7bM7QsDtb2-69" vertex="1">
          <mxGeometry y="235" width="600" height="30" as="geometry" />
        </mxCell>
        <mxCell id="BZFop_Z_mp7bM7QsDtb2-82" value="＋　ウィンドウのサイズの更新処理　＜継承関数＞" style="text;strokeColor=none;fillColor=none;align=left;verticalAlign=middle;spacingLeft=4;spacingRight=4;overflow=hidden;points=[[0,0.5],[1,0.5]];portConstraint=eastwest;rotatable=0;whiteSpace=wrap;html=1;" parent="BZFop_Z_mp7bM7QsDtb2-69" vertex="1">
          <mxGeometry y="265" width="600" height="30" as="geometry" />
        </mxCell>
        <mxCell id="BZFop_Z_mp7bM7QsDtb2-83" value="＋　ウィンドウ操作用のコマンド番号のセッタ　＜静的関数＞" style="text;strokeColor=none;fillColor=none;align=left;verticalAlign=middle;spacingLeft=4;spacingRight=4;overflow=hidden;points=[[0,0.5],[1,0.5]];portConstraint=eastwest;rotatable=0;whiteSpace=wrap;html=1;" parent="BZFop_Z_mp7bM7QsDtb2-69" vertex="1">
          <mxGeometry y="295" width="600" height="30" as="geometry" />
        </mxCell>
        <mxCell id="BZFop_Z_mp7bM7QsDtb2-85" value="＋　自ウィンドウのハンドルのゲッタ　＜静的関数＞" style="text;strokeColor=none;fillColor=none;align=left;verticalAlign=middle;spacingLeft=4;spacingRight=4;overflow=hidden;points=[[0,0.5],[1,0.5]];portConstraint=eastwest;rotatable=0;whiteSpace=wrap;html=1;" parent="BZFop_Z_mp7bM7QsDtb2-69" vertex="1">
          <mxGeometry y="325" width="600" height="30" as="geometry" />
        </mxCell>
        <mxCell id="BZFop_Z_mp7bM7QsDtb2-87" value="＋　現在の年月日時分秒のゲッタ　＜継承関数＞" style="text;strokeColor=none;fillColor=none;align=left;verticalAlign=middle;spacingLeft=4;spacingRight=4;overflow=hidden;points=[[0,0.5],[1,0.5]];portConstraint=eastwest;rotatable=0;whiteSpace=wrap;html=1;" parent="BZFop_Z_mp7bM7QsDtb2-69" vertex="1">
          <mxGeometry y="355" width="600" height="30" as="geometry" />
        </mxCell>
        <mxCell id="BZFop_Z_mp7bM7QsDtb2-88" value="＋　現在のexe起動からのミリ秒単位での経過時間のゲッタ　＜継承関数＞" style="text;strokeColor=none;fillColor=none;align=left;verticalAlign=middle;spacingLeft=4;spacingRight=4;overflow=hidden;points=[[0,0.5],[1,0.5]];portConstraint=eastwest;rotatable=0;whiteSpace=wrap;html=1;" parent="BZFop_Z_mp7bM7QsDtb2-69" vertex="1">
          <mxGeometry y="385" width="600" height="30" as="geometry" />
        </mxCell>
        <mxCell id="BZFop_Z_mp7bM7QsDtb2-90" value="＋　ウィンドウタイトルの変更　＜継承関数＞" style="text;strokeColor=none;fillColor=none;align=left;verticalAlign=middle;spacingLeft=4;spacingRight=4;overflow=hidden;points=[[0,0.5],[1,0.5]];portConstraint=eastwest;rotatable=0;whiteSpace=wrap;html=1;" parent="BZFop_Z_mp7bM7QsDtb2-69" vertex="1">
          <mxGeometry y="415" width="600" height="30" as="geometry" />
        </mxCell>
        <mxCell id="BZFop_Z_mp7bM7QsDtb2-89" value="＋　メッセージボックスの表示　＜継承関数＞" style="text;strokeColor=none;fillColor=none;align=left;verticalAlign=middle;spacingLeft=4;spacingRight=4;overflow=hidden;points=[[0,0.5],[1,0.5]];portConstraint=eastwest;rotatable=0;whiteSpace=wrap;html=1;" parent="BZFop_Z_mp7bM7QsDtb2-69" vertex="1">
          <mxGeometry y="445" width="600" height="30" as="geometry" />
        </mxCell>
        <mxCell id="BZFop_Z_mp7bM7QsDtb2-112" value="&lt;p style=&quot;line-height: 100%;&quot;&gt;ウィンドウプロシージャ関数制御システム　C_Wnd_Proc_Manager&lt;/p&gt;" style="swimlane;whiteSpace=wrap;html=1;swimlaneFillColor=default;" parent="BZFop_Z_mp7bM7QsDtb2-65" vertex="1">
          <mxGeometry x="490" y="1150" width="620" height="220" as="geometry" />
        </mxCell>
        <mxCell id="BZFop_Z_mp7bM7QsDtb2-113" value="パラメータ" style="swimlane;fontStyle=0;childLayout=stackLayout;horizontal=1;startSize=25;horizontalStack=0;resizeParent=1;resizeParentMax=0;resizeLast=0;collapsible=1;marginBottom=0;whiteSpace=wrap;html=1;" parent="BZFop_Z_mp7bM7QsDtb2-112" vertex="1">
          <mxGeometry x="10" y="30" width="600" height="55" as="geometry" />
        </mxCell>
        <mxCell id="BZFop_Z_mp7bM7QsDtb2-114" value="ー　ゲーム用のウィンドウプロシージャのアドレス" style="text;strokeColor=none;fillColor=none;align=left;verticalAlign=middle;spacingLeft=4;spacingRight=4;overflow=hidden;points=[[0,0.5],[1,0.5]];portConstraint=eastwest;rotatable=0;whiteSpace=wrap;html=1;" parent="BZFop_Z_mp7bM7QsDtb2-113" vertex="1">
          <mxGeometry y="25" width="600" height="30" as="geometry" />
        </mxCell>
        <mxCell id="BZFop_Z_mp7bM7QsDtb2-117" value="メゾッド" style="swimlane;fontStyle=0;childLayout=stackLayout;horizontal=1;startSize=25;horizontalStack=0;resizeParent=1;resizeParentMax=0;resizeLast=0;collapsible=1;marginBottom=0;whiteSpace=wrap;html=1;" parent="BZFop_Z_mp7bM7QsDtb2-112" vertex="1">
          <mxGeometry x="10" y="110" width="600" height="85" as="geometry" />
        </mxCell>
        <mxCell id="BZFop_Z_mp7bM7QsDtb2-118" value="＋　ゲーム用のウィンドウプロシージャのセッタ　＜静的関数＞" style="text;strokeColor=none;fillColor=none;align=left;verticalAlign=middle;spacingLeft=4;spacingRight=4;overflow=hidden;points=[[0,0.5],[1,0.5]];portConstraint=eastwest;rotatable=0;whiteSpace=wrap;html=1;" parent="BZFop_Z_mp7bM7QsDtb2-117" vertex="1">
          <mxGeometry y="25" width="600" height="30" as="geometry" />
        </mxCell>
        <mxCell id="BZFop_Z_mp7bM7QsDtb2-119" value="＋　ゲーム用のウィンドウプロシージャのゲッタ　＜静的関数＞" style="text;strokeColor=none;fillColor=none;align=left;verticalAlign=middle;spacingLeft=4;spacingRight=4;overflow=hidden;points=[[0,0.5],[1,0.5]];portConstraint=eastwest;rotatable=0;whiteSpace=wrap;html=1;" parent="BZFop_Z_mp7bM7QsDtb2-117" vertex="1">
          <mxGeometry y="55" width="600" height="30" as="geometry" />
        </mxCell>
        <mxCell id="BZFop_Z_mp7bM7QsDtb2-133" value="" style="endArrow=classic;html=1;rounded=0;exitX=0.5;exitY=1;exitDx=0;exitDy=0;entryX=0.25;entryY=0;entryDx=0;entryDy=0;strokeWidth=8;" parent="BZFop_Z_mp7bM7QsDtb2-65" source="BZFop_Z_mp7bM7QsDtb2-66" target="BZFop_Z_mp7bM7QsDtb2-112" edge="1">
          <mxGeometry width="50" height="50" relative="1" as="geometry">
            <mxPoint x="550" y="930" as="sourcePoint" />
            <mxPoint x="600" y="880" as="targetPoint" />
            <Array as="points">
              <mxPoint x="400" y="930" />
              <mxPoint x="645" y="930" />
            </Array>
          </mxGeometry>
        </mxCell>
        <mxCell id="0NV3zA2O5QVEWmTr_D8a-1" value="&lt;p style=&quot;line-height: 100%;&quot;&gt;ゲーム用ウィンドウプロシージャ管理クラス　C_Wnd_Proc_For_Game_APK&lt;/p&gt;" style="swimlane;whiteSpace=wrap;html=1;swimlaneFillColor=default;" parent="BZFop_Z_mp7bM7QsDtb2-65" vertex="1">
          <mxGeometry x="1290" y="240" width="620" height="220" as="geometry" />
        </mxCell>
        <mxCell id="0NV3zA2O5QVEWmTr_D8a-2" value="パラメータ" style="swimlane;fontStyle=0;childLayout=stackLayout;horizontal=1;startSize=25;horizontalStack=0;resizeParent=1;resizeParentMax=0;resizeLast=0;collapsible=1;marginBottom=0;whiteSpace=wrap;html=1;" parent="0NV3zA2O5QVEWmTr_D8a-1" vertex="1">
          <mxGeometry x="10" y="30" width="600" height="55" as="geometry" />
        </mxCell>
        <mxCell id="0NV3zA2O5QVEWmTr_D8a-3" value="ー　シングルトン化用の自クラスのインスタンス" style="text;strokeColor=none;fillColor=none;align=left;verticalAlign=middle;spacingLeft=4;spacingRight=4;overflow=hidden;points=[[0,0.5],[1,0.5]];portConstraint=eastwest;rotatable=0;whiteSpace=wrap;html=1;" parent="0NV3zA2O5QVEWmTr_D8a-2" vertex="1">
          <mxGeometry y="25" width="600" height="30" as="geometry" />
        </mxCell>
        <mxCell id="0NV3zA2O5QVEWmTr_D8a-4" value="メゾッド" style="swimlane;fontStyle=0;childLayout=stackLayout;horizontal=1;startSize=25;horizontalStack=0;resizeParent=1;resizeParentMax=0;resizeLast=0;collapsible=1;marginBottom=0;whiteSpace=wrap;html=1;" parent="0NV3zA2O5QVEWmTr_D8a-1" vertex="1">
          <mxGeometry x="10" y="110" width="600" height="85" as="geometry" />
        </mxCell>
        <mxCell id="0NV3zA2O5QVEWmTr_D8a-5" value="ー　コンストラクタ、ウィンドウプロシージャ関数を制御システムにセットする" style="text;strokeColor=none;fillColor=none;align=left;verticalAlign=middle;spacingLeft=4;spacingRight=4;overflow=hidden;points=[[0,0.5],[1,0.5]];portConstraint=eastwest;rotatable=0;whiteSpace=wrap;html=1;" parent="0NV3zA2O5QVEWmTr_D8a-4" vertex="1">
          <mxGeometry y="25" width="600" height="30" as="geometry" />
        </mxCell>
        <mxCell id="0NV3zA2O5QVEWmTr_D8a-6" value="＋　ゲーム用のウィンドウプロシージャ関数　　＜静的関数＞" style="text;strokeColor=none;fillColor=none;align=left;verticalAlign=middle;spacingLeft=4;spacingRight=4;overflow=hidden;points=[[0,0.5],[1,0.5]];portConstraint=eastwest;rotatable=0;whiteSpace=wrap;html=1;" parent="0NV3zA2O5QVEWmTr_D8a-4" vertex="1">
          <mxGeometry y="55" width="600" height="30" as="geometry" />
        </mxCell>
        <mxCell id="0NV3zA2O5QVEWmTr_D8a-8" value="現在の設計評価　：正常" style="swimlane;whiteSpace=wrap;html=1;swimlaneFillColor=default;fontSize=17;" parent="BZFop_Z_mp7bM7QsDtb2-65" vertex="1">
          <mxGeometry x="1990" y="310" width="460" height="50" as="geometry" />
        </mxCell>
        <mxCell id="0NV3zA2O5QVEWmTr_D8a-9" value="" style="rounded=0;whiteSpace=wrap;html=1;align=left;verticalAlign=top;" parent="0NV3zA2O5QVEWmTr_D8a-8" vertex="1">
          <mxGeometry y="30" width="460" height="20" as="geometry" />
        </mxCell>
        <mxCell id="0NV3zA2O5QVEWmTr_D8a-10" value="" style="shape=link;html=1;rounded=0;entryX=0;entryY=0.5;entryDx=0;entryDy=0;exitX=1;exitY=0.5;exitDx=0;exitDy=0;" parent="BZFop_Z_mp7bM7QsDtb2-65" source="0NV3zA2O5QVEWmTr_D8a-1" target="0NV3zA2O5QVEWmTr_D8a-9" edge="1">
          <mxGeometry width="100" relative="1" as="geometry">
            <mxPoint x="1690" y="330" as="sourcePoint" />
            <mxPoint x="1665" y="280" as="targetPoint" />
          </mxGeometry>
        </mxCell>
        <mxCell id="0NV3zA2O5QVEWmTr_D8a-11" value="現在の設計評価　：正常" style="swimlane;whiteSpace=wrap;html=1;swimlaneFillColor=default;fontSize=17;" parent="BZFop_Z_mp7bM7QsDtb2-65" vertex="1">
          <mxGeometry x="1260" y="1235" width="460" height="50" as="geometry" />
        </mxCell>
        <mxCell id="0NV3zA2O5QVEWmTr_D8a-12" value="" style="rounded=0;whiteSpace=wrap;html=1;align=left;verticalAlign=top;" parent="0NV3zA2O5QVEWmTr_D8a-11" vertex="1">
          <mxGeometry y="30" width="460" height="20" as="geometry" />
        </mxCell>
        <mxCell id="0NV3zA2O5QVEWmTr_D8a-13" value="" style="shape=link;html=1;rounded=0;entryX=0;entryY=0.5;entryDx=0;entryDy=0;exitX=1;exitY=0.5;exitDx=0;exitDy=0;" parent="BZFop_Z_mp7bM7QsDtb2-65" source="BZFop_Z_mp7bM7QsDtb2-112" target="0NV3zA2O5QVEWmTr_D8a-11" edge="1">
          <mxGeometry width="100" relative="1" as="geometry">
            <mxPoint x="1160" y="1259.17" as="sourcePoint" />
            <mxPoint x="1240" y="1259.17" as="targetPoint" />
          </mxGeometry>
        </mxCell>
        <mxCell id="0NV3zA2O5QVEWmTr_D8a-16" value="現在の設計評価　：修正点あり" style="swimlane;whiteSpace=wrap;html=1;swimlaneFillColor=default;fontSize=17;" parent="BZFop_Z_mp7bM7QsDtb2-65" vertex="1">
          <mxGeometry x="762" y="310" width="460" height="108" as="geometry" />
        </mxCell>
        <mxCell id="0NV3zA2O5QVEWmTr_D8a-17" value="１．基底クラスの修正に伴う変更に対応すること&lt;br&gt;&lt;br&gt;２．WindowsOS制御用システムであってOSのシステムではないので、&lt;br&gt;　　C_Windows_OS_Management_Systemなどが命名として適切である" style="rounded=0;whiteSpace=wrap;html=1;align=left;verticalAlign=top;" parent="0NV3zA2O5QVEWmTr_D8a-16" vertex="1">
          <mxGeometry y="30" width="460" height="80" as="geometry" />
        </mxCell>
        <mxCell id="0NV3zA2O5QVEWmTr_D8a-18" value="" style="shape=link;html=1;rounded=0;entryX=0;entryY=0.5;entryDx=0;entryDy=0;exitX=1;exitY=0.5;exitDx=0;exitDy=0;" parent="BZFop_Z_mp7bM7QsDtb2-65" source="BZFop_Z_mp7bM7QsDtb2-66" target="0NV3zA2O5QVEWmTr_D8a-17" edge="1">
          <mxGeometry width="100" relative="1" as="geometry">
            <mxPoint x="720" y="397.5" as="sourcePoint" />
            <mxPoint x="845" y="327.5" as="targetPoint" />
          </mxGeometry>
        </mxCell>
        <mxCell id="VKdcbfYlDmGNj-VxLh3F-1" value="" style="endArrow=classic;html=1;rounded=0;exitX=0.5;exitY=1;exitDx=0;exitDy=0;entryX=0.75;entryY=0;entryDx=0;entryDy=0;strokeWidth=8;" parent="BZFop_Z_mp7bM7QsDtb2-65" source="0NV3zA2O5QVEWmTr_D8a-1" target="BZFop_Z_mp7bM7QsDtb2-112" edge="1">
          <mxGeometry width="50" height="50" relative="1" as="geometry">
            <mxPoint x="1550" y="760" as="sourcePoint" />
            <mxPoint x="1795" y="1200" as="targetPoint" />
            <Array as="points">
              <mxPoint x="1600" y="910" />
              <mxPoint x="955" y="910" />
            </Array>
          </mxGeometry>
        </mxCell>
        <mxCell id="BZFop_Z_mp7bM7QsDtb2-72" value="" style="endArrow=classic;dashed=1;html=1;strokeWidth=8;rounded=0;entryX=0.25;entryY=0;entryDx=0;entryDy=0;startArrow=none;startFill=0;endFill=1;exitX=0.25;exitY=1;exitDx=0;exitDy=0;" parent="BZFop_Z_mp7bM7QsDtb2-9" source="BZFop_Z_mp7bM7QsDtb2-66" target="BZFop_Z_mp7bM7QsDtb2-21" edge="1">
          <mxGeometry width="50" height="50" relative="1" as="geometry">
            <mxPoint x="1403" y="-90" as="sourcePoint" />
            <mxPoint x="2103" y="-70" as="targetPoint" />
            <Array as="points">
              <mxPoint x="370" y="1700" />
              <mxPoint x="2063" y="1711" />
            </Array>
          </mxGeometry>
        </mxCell>
        <mxCell id="VKdcbfYlDmGNj-VxLh3F-2" value="" style="endArrow=classic;html=1;rounded=0;exitX=0.5;exitY=1;exitDx=0;exitDy=0;entryX=0.5;entryY=0;entryDx=0;entryDy=0;strokeWidth=8;" parent="1" source="BZFop_Z_mp7bM7QsDtb2-7" target="BZFop_Z_mp7bM7QsDtb2-9" edge="1">
          <mxGeometry width="50" height="50" relative="1" as="geometry">
            <mxPoint x="2545" y="50" as="sourcePoint" />
            <mxPoint x="1900" y="740" as="targetPoint" />
            <Array as="points" />
          </mxGeometry>
        </mxCell>
      </root>
    </mxGraphModel>
  </diagram>
</mxfile>
